<?xml version="1.0" standalone="no"?>
<!DOCTYPE svg PUBLIC "-//W3C//DTD SVG 1.1//EN" "http://www.w3.org/Graphics/SVG/1.1/DTD/svg11.dtd" >
<svg>
<metadata>
Created by FontForge 20090914 at Fri Sep 20 03:24:24 2013
 By www-data
Font data copyright Punchcut 2009
</metadata>
<defs>
<font id="Amble-LightCondensed" horiz-adv-x="1057" >
  <font-face 
    font-family="Amble LtCn"
    font-weight="300"
    font-stretch="condensed"
    units-per-em="2048"
    panose-1="0 0 0 0 0 0 0 0 0 0"
    ascent="1548"
    descent="-500"
    x-height="1000"
    cap-height="1360"
    bbox="-135 -559.999 1598 1860"
    underline-thickness="100"
    underline-position="-100"
    unicode-range="U+0020-U+FB02"
  />
<missing-glyph horiz-adv-x="390" 
 />
    <glyph glyph-name="fi" unicode="fi" horiz-adv-x="1068" 
d="M84 1000l133.999 0.00195312v43c0 69.333 8.83301 128.5 26.5 177.5s43.167 89 76.5 120s74 53.5 122 67.5s102.333 21 163 21c21.333 0 43.666 -0.833008 66.999 -2.5s46.333 -3.83398 69 -6.50098s44.334 -5.83398 65.001 -9.50098s39 -7.5 55 -11.5v-106
c-14 2.66699 -31 5.5 -51 8.5s-41 5.83301 -63 8.5s-44.5 4.83398 -67.5 6.50098s-44.833 2.5 -65.5 2.5c-45.333 0 -84.666 -4.83301 -117.999 -14.5s-60.833 -25.334 -82.5 -47.001s-37.667 -50.167 -48 -85.5s-15.5 -78.333 -15.5 -129v-43h246v-110h-246v-890h-133v890
h-156zM763.999 1000h133v-1000h-133v1000z" />
    <glyph glyph-name="fl" unicode="fl" horiz-adv-x="1159" 
d="M84 1000l134 0.00195312v43c0 69.333 8.83301 128.5 26.5 177.5s43.167 89 76.5 120s74 53.5 122 67.5s102.333 21 163 21c20.667 0 42.5 -0.833008 65.5 -2.5s45.5 -3.83398 67.5 -6.50098s43.333 -5.66699 64 -9s39 -7 55 -11h121v-1400h-134v1296
c-15.333 2.66699 -32.333 5.33398 -51 8.00098s-38.167 5.16699 -58.5 7.5s-40.833 4.16602 -61.5 5.49902s-40.334 2 -59.001 2c-45.333 0 -84.666 -4.83301 -117.999 -14.5s-60.833 -25.334 -82.5 -47.001s-37.667 -50.167 -48 -85.5s-15.5 -78.333 -15.5 -129v-43h246
v-110h-246v-890h-133v890h-156z" />
    <glyph glyph-name=".notdef" horiz-adv-x="390" 
 />
    <glyph glyph-name="space" unicode=" " horiz-adv-x="432" 
 />
    <glyph glyph-name="space" unicode="&#xa0;" horiz-adv-x="432" 
 />
    <glyph glyph-name="exclam" unicode="!" horiz-adv-x="517" 
d="M194 1360h134v-976h-134v976zM187 126h149v-126h-149v126z" />
    <glyph glyph-name="quotedbl" unicode="&#x22;" horiz-adv-x="524" 
d="M74 1360h147l-62 -420l-85 10v410zM307 1360h148l-63 -420l-85 10v410z" />
    <glyph glyph-name="numbersign" unicode="#" horiz-adv-x="1175" 
d="M657 344h-230l-38 -344h-133l39 344h-204v110h216l50 436h-222v110h235l41 360h130l-40 -360h230l40 360h133l-40 -360h210v-110h-223l-48 -436h225v-110h-238l-38 -344h-133zM440 454h230l48 436h-230z" />
    <glyph glyph-name="dollar" unicode="$" horiz-adv-x="1043" 
d="M454 -19c-32 0.666992 -63.668 3.00098 -95.001 7.00098s-61.166 9 -89.499 15s-54.333 12.833 -78 20.5s-43.834 15.834 -60.501 24.501l32 108c24 -9.33301 48 -18 72 -26s49.167 -15 75.5 -21s54.333 -10.667 84 -14s62.167 -5 97.5 -5c38.667 0 74 5.5 106 16.5
s59.333 27.167 82 48.5s40.334 47.666 53.001 78.999s19 67.333 19 108c0 36.667 -7 69.667 -21 99s-33.833 55.666 -59.5 78.999s-56.5 44.333 -92.5 63s-75.667 35.667 -119 51c-46 16 -89.167 35.333 -129.5 58s-75.333 49.5 -105 80.5s-53 66.167 -70 105.5
s-25.5 83.333 -25.5 132c0 51.333 7.33301 98.166 22 140.499s36 79.333 64 111s62 57.334 102 77.001s85.333 32.167 136 37.5v220h134v-220c56.667 -5.33301 106.834 -15 150.501 -29s78.167 -26.333 103.5 -37l-34 -108l-63 25c-20.667 8 -42.5 15.167 -65.5 21.5
s-48 11.5 -75 15.5s-57.5 6 -91.5 6c-83.333 0 -145.666 -22.667 -186.999 -68s-62 -106 -62 -182c0 -30.667 4.66699 -59.5 14 -86.5s24 -52.5 44 -76.5s46.167 -46.167 78.5 -66.5s71.5 -39.166 117.5 -56.499c60 -22 112.833 -45.5 158.5 -70.5s84 -52.833 115 -83.5
s54.333 -65 70 -103s23.5 -81 23.5 -129c0 -47.333 -6.83301 -91.166 -20.5 -131.499s-33.334 -75.833 -59.001 -106.5s-56.834 -56.334 -93.501 -77.001s-78 -35.334 -124 -44.001v-249h-134v241z" />
    <glyph glyph-name="percent" unicode="%" horiz-adv-x="1521" 
d="M159 1076c0 47.333 6.33301 89.833 19 127.5s30.667 69.5 54 95.5s51.166 46 83.499 60s68.166 21 107.499 21c38.667 0 74.334 -7 107.001 -21s60.834 -34 84.501 -60s42.167 -57.833 55.5 -95.5s20 -80.167 20 -127.5c0 -48 -6.66699 -90.833 -20 -128.5
s-31.833 -69.5 -55.5 -95.5s-51.834 -45.833 -84.501 -59.5s-68.334 -20.5 -107.001 -20.5c-39.333 0 -75.166 6.83301 -107.499 20.5s-60.166 33.5 -83.499 59.5s-41.333 57.833 -54 95.5s-19 80.5 -19 128.5zM287 1076c0 -27.333 3.16699 -52.666 9.5 -75.999
s15.5 -43.833 27.5 -61.5s26.333 -31.5 43 -41.5s35.334 -15 56.001 -15s39.5 5 56.5 15s31.667 23.833 44 41.5s21.833 38.167 28.5 61.5s10 48.666 10 75.999c0 26.667 -3.33301 51.834 -10 75.501s-16.167 44.334 -28.5 62.001s-27 31.5 -44 41.5s-35.833 15 -56.5 15
s-39.334 -5 -56.001 -15s-31 -23.833 -43 -41.5s-21.167 -38.334 -27.5 -62.001s-9.5 -48.834 -9.5 -75.501zM837 284c0 47.333 6.33301 89.833 19 127.5s30.667 69.5 54 95.5s51.166 46 83.499 60s68.166 21 107.499 21s75.333 -7 108 -21s60.667 -34 84 -60
s41.333 -57.833 54 -95.5s19 -80.167 19 -127.5c0 -48 -6.33301 -90.833 -19 -128.5s-30.667 -69.5 -54 -95.5s-51.333 -45.833 -84 -59.5s-68.667 -20.5 -108 -20.5s-75.166 6.83301 -107.499 20.5s-60.166 33.5 -83.499 59.5s-41.333 57.833 -54 95.5s-19 80.5 -19 128.5z
M963 284c0 -27.333 3.33301 -52.666 10 -75.999s16 -43.833 28 -61.5s26.5 -31.5 43.5 -41.5s35.833 -15 56.5 -15s39.5 5 56.5 15s31.5 23.833 43.5 41.5s21.333 38.167 28 61.5s10 48.666 10 75.999c0 26.667 -3.33301 51.834 -10 75.501s-16 44.334 -28 62.001
s-26.5 31.5 -43.5 41.5s-35.833 15 -56.5 15s-39.5 -5 -56.5 -15s-31.5 -23.833 -43.5 -41.5s-21.333 -38.334 -28 -62.001s-10 -48.834 -10 -75.501zM1101 1360h105l-797 -1360h-109z" />
    <glyph glyph-name="ampersand" unicode="&#x26;" horiz-adv-x="1163" 
d="M1090 58l-92.9971 -77.999l-145 181c-52 -56 -109.167 -100.167 -171.5 -132.5s-130.5 -48.5 -204.5 -48.5c-55.333 0 -107 8.16699 -155 24.5s-89.5 39.833 -124.5 70.5s-62.5 67.667 -82.5 111s-30 92 -30 146c0 46.667 7.33301 89 22 127s35 73.5 61 106.5
s56.833 64.833 92.5 95.5l116.5 96l-61 77c-20 24.667 -36.5 48 -49.5 70s-23.5 43 -31.5 63s-13.5 39.833 -16.5 59.5s-4.5 40.167 -4.5 61.5c0 44.667 7.16699 85.167 21.5 121.5s34.666 67 60.999 92s58 44.333 95 58s78.5 20.5 124.5 20.5
c40.667 0 78.667 -6.83301 114 -20.5s65.666 -32.834 90.999 -57.501s45.333 -54.167 60 -88.5s22 -72.166 22 -113.499c0 -34 -5.66699 -65 -17 -93s-26.833 -54.5 -46.5 -79.5s-43 -49.833 -70 -74.5s-56.5 -50.334 -88.5 -77.001l-39 -33l315 -393
c23.333 36 45.166 72.5 65.499 109.5l57.5 108.5l83 -72c-19.333 -43.333 -39.833 -84.833 -61.5 -124.5s-45.167 -77.5 -70.5 -113.5zM217.003 332.001c0 -34.667 6.33301 -66.6699 19 -96.0029s30.5 -54.833 53.5 -76.5s50.5 -38.667 82.5 -51s67 -18.5 105 -18.5
c62 0 118 15 168 45s95.333 68.333 136 115l-334 418c-32 -25.333 -61.833 -50.166 -89.5 -74.499s-52 -49.666 -73 -75.999s-37.5 -54.666 -49.5 -84.999s-18 -63.833 -18 -100.5zM530.003 879.998c22 17.333 41.667 33.499 59 48.499s31.833 30.833 43.5 47.5
s20.667 35 27 55s9.5 43.667 9.5 71c0 22.667 -4.33301 44.334 -13 65.001s-20.334 38.5 -35.001 53.5s-31.667 27 -51 36s-39.666 13.5 -60.999 13.5c-22 0 -42.833 -4.33301 -62.5 -13s-37 -20.834 -52 -36.501s-26.833 -34.667 -35.5 -57s-13 -46.833 -13 -73.5
c0 -19.333 2 -37.833 6 -55.5s9.16699 -34.5 15.5 -50.5s13.5 -30.667 21.5 -44s15.667 -24.666 23 -33.999l59 -74l29 23z" />
    <glyph glyph-name="quotesingle" unicode="'" horiz-adv-x="320" 
d="M77 1360h143l-49 -400l-94 10v390z" />
    <glyph glyph-name="parenleft" unicode="(" horiz-adv-x="611" 
d="M260 560c0 -102 7.83496 -196.167 23.502 -282.5s36 -165.333 61 -237s52.667 -136 83 -193s60.166 -106.833 89.499 -149.5l-92 -60c-42 62 -81.167 127.833 -117.5 197.5s-67.833 143 -94.5 220s-47.667 157.5 -63 241.5s-23 171.667 -23 263
c0 94.667 7.83301 187.667 23.5 279s37.167 178.333 64.5 261s59.833 159.167 97.5 229.5s78.167 131.833 121.5 184.5l93 -60c-31.333 -44 -62.833 -95.333 -94.5 -154s-60.334 -125 -86.001 -199s-46.5 -156 -62.5 -246s-24 -188.333 -24 -295z" />
    <glyph glyph-name="parenright" unicode=")" horiz-adv-x="613" 
d="M355 592c0 102 -7.83496 196.165 -23.502 282.498s-36 165.333 -61 237s-52.833 135.834 -83.5 192.501s-61 106.667 -91 150l93 60c96.667 -124.667 170.667 -263.667 222 -417s77 -321.666 77 -504.999c0 -94.667 -7.83301 -187.667 -23.5 -279
s-37.167 -178.333 -64.5 -261s-59.666 -159.167 -96.999 -229.5s-77.666 -131.833 -120.999 -184.5l-96 60c31.333 44 63 95.167 95 153.5s60.833 124.5 86.5 198.5s46.667 156 63 246s24.5 188.667 24.5 296z" />
    <glyph glyph-name="asterisk" unicode="*" horiz-adv-x="839" 
d="M492 1380l-24 -351l250 181l59 -128l-276 -138l204 -269l-103 -87l-162 298h-16l-156 -310l-109 84l196 280l-282 120l57 134l254 -171l-24 357h132z" />
    <glyph glyph-name="plus" unicode="+" horiz-adv-x="901" 
d="M389 484h-285v110h285v316h124v-316h289v-110h-289v-318h-124v318z" />
    <glyph glyph-name="comma" unicode="," horiz-adv-x="446" 
d="M179 158h147l-114 -404l-94 14z" />
    <glyph glyph-name="hyphen" unicode="-" horiz-adv-x="688" 
d="M104 586v120h484v-120h-484z" />
    <glyph glyph-name="period" unicode="." horiz-adv-x="509" 
d="M193 132h151v-132h-151v132z" />
    <glyph glyph-name="slash" unicode="/" horiz-adv-x="737" 
d="M537 1360h131l-492 -1500h-131z" />
    <glyph glyph-name="zero" unicode="0" horiz-adv-x="1040" 
d="M107 670c0 107.333 8.83301 204.666 26.5 291.999s44 162 79 224s78.167 109.833 129.5 143.5s111 50.5 179 50.5c68.667 0 129.334 -16.833 182.001 -50.5s96.834 -81.5 132.501 -143.5s62.667 -136.667 81 -224s27.5 -184.666 27.5 -291.999
c0 -108 -9.16699 -204.667 -27.5 -290s-45.333 -157.666 -81 -216.999s-79.834 -104.666 -132.501 -135.999s-113.334 -47 -182.001 -47c-68 0 -127.667 15.667 -179 47s-94.5 76.666 -129.5 135.999s-61.333 131.666 -79 216.999s-26.5 182 -26.5 290zM240 670
c0 -88 5.83301 -167.667 17.5 -239s29.167 -132.333 52.5 -183s52.5 -89.667 87.5 -117s76.167 -41 123.5 -41c46.667 0 87.834 13.667 123.501 41s65.834 66.333 90.501 117s43.334 111.667 56.001 183s19 151 19 239s-6.33301 168.667 -19 242
s-31.334 136.5 -56.001 189.5s-54.834 94.333 -90.501 124s-76.834 44.5 -123.501 44.5c-47.333 0 -88.5 -14.833 -123.5 -44.5s-64.167 -71 -87.5 -124s-40.833 -116.167 -52.5 -189.5s-17.5 -154 -17.5 -242z" />
    <glyph glyph-name="one" unicode="1" horiz-adv-x="1045" 
d="M235 0v110h289v1109l-295 -81v110l348 112h81v-1250h277v-110h-700z" />
    <glyph glyph-name="two" unicode="2" horiz-adv-x="1042" 
d="M921 110l0.000976562 -110.002h-762v36c0 93.333 7.83301 173.166 23.5 239.499s39.834 124.833 72.501 175.5s74 96.167 124 136.5s109.667 81.166 179 122.499c74 44.667 127 93.334 159 146.001s48 108 48 166c0 36.667 -6 70.334 -18 101.001
s-28.833 56.834 -50.5 78.501s-47.834 38.5 -78.501 50.5s-64.667 18 -102 18c-32 0 -62.5 -3.16699 -91.5 -9.5s-56.667 -14.833 -83 -25.5s-51.833 -23 -76.5 -37s-48.667 -28.667 -72 -44l-44 94c18 14 40.167 28.667 66.5 44s55.5 29.5 87.5 42.5
s66.333 23.833 103 32.5s74.667 13 114 13c57.333 0 109.166 -8.5 155.499 -25.5s86 -41.333 119 -73s58.5 -70 76.5 -115s27 -95.833 27 -152.5c0 -51.333 -8.16699 -97.166 -24.5 -137.499s-38 -76.5 -65 -108.5s-58.167 -61.167 -93.5 -87.5s-72 -51.166 -110 -74.499
c-46 -30 -87.833 -60.5 -125.5 -91.5s-70.167 -65.667 -97.5 -104s-48.833 -81.833 -64.5 -130.5s-24.167 -105.334 -25.5 -170.001h629z" />
    <glyph glyph-name="three" unicode="3" horiz-adv-x="1042" 
d="M864 1004c0 -72.667 -16.8301 -135.333 -50.4971 -188s-81.834 -92.334 -144.501 -119.001c74.667 -26.667 132.5 -68.667 173.5 -126s61.5 -125.666 61.5 -204.999c0 -57.333 -10.167 -109.666 -30.5 -156.999s-49.5 -88 -87.5 -122s-84.5 -60.333 -139.5 -79
s-117.167 -28 -186.5 -28c-31.333 0 -62.833 2 -94.5 6s-62.334 10 -92.001 18s-57.167 17.667 -82.5 29s-47.333 24.333 -66 39l48 88c20.667 -10 41.5 -19.333 62.5 -28s42.667 -16 65 -22s45.833 -10.833 70.5 -14.5s51 -5.5 79 -5.5c46.667 0 89.834 5.5 129.501 16.5
s74 27.667 103 50s51.5 50.5 67.5 84.5s24 73.667 24 119c0 48 -7.66699 89.5 -23 124.5s-36.666 64 -63.999 87s-59.666 40.167 -96.999 51.5s-78 17 -122 17h-156v110h156c38.667 0 74.167 5.16699 106.5 15.5s60.333 26.166 84 47.499s42.167 48.333 55.5 81
s20 71.334 20 116.001c0 46.667 -7.33301 86.5 -22 119.5s-34.834 60 -60.501 81s-56 36.167 -91 45.5s-73.167 14 -114.5 14c-26.667 0 -51.334 -1.83301 -74.001 -5.5s-44.334 -9 -65.001 -16s-40.667 -15.167 -60 -24.5s-38.666 -19.333 -57.999 -30l-53 88
c18.667 15.333 40.667 29.166 66 41.499s52.666 22.666 81.999 30.999s59.5 14.666 90.5 18.999s61.167 6.5 90.5 6.5c62.667 0 118.667 -8.66699 168 -26s91.166 -42.166 125.499 -74.499s60.5 -71.666 78.5 -117.999s27 -98.833 27 -157.5z" />
    <glyph glyph-name="four" unicode="4" horiz-adv-x="1037" 
d="M801 314v-314h-133v314h-605v76l574 970h164v-936h181v-110h-181zM668 424v763l-446 -763h446z" />
    <glyph glyph-name="five" unicode="5" horiz-adv-x="1042" 
d="M924 420c0 -65.333 -9.16016 -125.002 -27.4932 -179.002s-45.833 -100.333 -82.5 -139s-82.334 -68.667 -137.001 -90s-118.334 -32 -191.001 -32c-35.333 0 -69.833 2.33301 -103.5 7s-65.5 11 -95.5 19s-57.667 17.167 -83 27.5s-47 21.166 -65 32.499l39 100
c18.667 -11.333 38.167 -21.5 58.5 -30.5s42.166 -17 65.499 -24s48.666 -12.333 75.999 -16s58 -5.5 92 -5.5c104.667 0 184.334 26.833 239.001 80.5s82 136.834 82 249.501c0 51.333 -8 95.833 -24 133.5s-37.833 68.834 -65.5 93.501s-60.334 43 -98.001 55
s-78.167 18 -121.5 18c-42 0 -83.833 -4 -125.5 -12s-78.167 -20.667 -109.5 -38l-105 40l90 650h627v-110h-526l-67 -454c33.333 10.667 71.166 19 113.499 25s91.166 9 146.499 9c60.667 0 115.667 -9.83301 165 -29.5s91.166 -47.5 125.499 -83.5
s60.833 -79.167 79.5 -129.5s28 -106.166 28 -167.499z" />
    <glyph glyph-name="six" unicode="6" horiz-adv-x="1040" 
d="M584 852c64 0 119.333 -9.99609 166 -29.9961s85 -48.5 115 -85.5s52.333 -81.333 67 -133s22 -108.834 22 -171.501c0 -55.333 -8.66699 -109.833 -26 -163.5s-43 -102 -77 -145s-76 -77.667 -126 -104s-107.333 -39.5 -172 -39.5c-72.667 0 -136.5 15.5 -191.5 46.5
s-100.833 75 -137.5 132s-64.167 125.5 -82.5 205.5s-27.5 168.667 -27.5 266c0 113.333 11.167 216.166 33.5 308.499s54.666 171.166 96.999 236.499s94.333 115.833 156 151.5s131.834 53.5 210.501 53.5c32.667 0 62.167 -1.66699 88.5 -5s50.333 -8 72 -14
s41.334 -13 59.001 -21s34.5 -16.667 50.5 -26l-36 -96c-32 17.333 -65.833 30.333 -101.5 39s-75.167 13 -118.5 13c-55.333 0 -105.833 -11.833 -151.5 -35.5s-85 -60.167 -118 -109.5s-58.833 -112.333 -77.5 -189s-29 -168.334 -31 -275.001
c40.667 62.667 90.667 110.167 150 142.5s121.666 48.5 186.999 48.5zM583 742.004c-28 0 -56.835 -2.99902 -86.502 -8.99902s-59 -16.5 -88 -31.5s-57 -35.167 -84 -60.5s-52.167 -57 -75.5 -95c8 -157.333 39.333 -272.666 94 -345.999s131.334 -110 230.001 -110
c40.667 0 76.334 9.5 107.001 28.5s56.5 44.333 77.5 76s36.833 67.667 47.5 108s16 82.166 16 125.499c0 44 -4.5 85.167 -13.5 123.5s-23 71.666 -42 99.999s-43.5 50.5 -73.5 66.5s-66.333 24 -109 24z" />
    <glyph glyph-name="seven" unicode="7" horiz-adv-x="1040" 
d="M933 1360v-112l-482 -1248h-138l481 1240h-687v120h826z" />
    <glyph glyph-name="eight" unicode="8" horiz-adv-x="1040" 
d="M97 366c0 77.333 21.0029 145.001 63.0029 203.001s100.333 100.667 175 128c-62.667 25.333 -111.334 64 -146.001 116s-52 116.333 -52 193c0 58.667 8.83301 111.167 26.5 157.5s43 85.5 76 117.5s73 56.5 120 73.5s99.833 25.5 158.5 25.5s112 -8.5 160 -25.5
s89.333 -41.5 124 -73.5s61.5 -71.167 80.5 -117.5s28.5 -98.833 28.5 -157.5c0 -76.667 -18.5 -141 -55.5 -193s-87.833 -90.667 -152.5 -116c38 -13.333 72 -30.833 102 -52.5s55.667 -46.834 77 -75.501s37.666 -60 48.999 -94s17 -70.333 17 -109
c0 -62 -10.333 -117 -31 -165s-50 -88.333 -88 -121s-83.333 -57.5 -136 -74.5s-111 -25.5 -175 -25.5s-121.833 8.5 -173.5 25.5s-95.834 41.833 -132.501 74.5s-65 73 -85 121s-30 103 -30 165zM230.003 366.001c0 -44.667 7 -84.166 21 -118.499
s33.833 -63.166 59.5 -86.499s56.167 -41 91.5 -53s74 -18 116 -18c42.667 0 82 6 118 18s67.333 29.667 94 53s47.5 52.166 62.5 86.499s22.5 73.833 22.5 118.5c0 39.333 -7.5 75.833 -22.5 109.5s-35.833 62.834 -62.5 87.501s-58 44 -94 58s-75.333 21 -118 21
c-42 0 -80.667 -6.83301 -116 -20.5s-65.833 -32.834 -91.5 -57.501s-45.5 -53.834 -59.5 -87.501s-21 -70.5 -21 -110.5zM270.003 1006c0 -40.667 6 -76.667 18 -108s29 -57.833 51 -79.5s48.167 -38.167 78.5 -49.5s63.833 -17 100.5 -17s70.834 5.66699 102.501 17
s59.167 27.833 82.5 49.5s41.666 48.167 54.999 79.5s20 67.333 20 108c0 42 -6.66699 79.333 -20 112s-31.666 60.334 -54.999 83.001s-50.833 39.834 -82.5 51.501s-65.834 17.5 -102.501 17.5s-70.167 -5.83301 -100.5 -17.5s-56.5 -28.834 -78.5 -51.501
s-39 -50.334 -51 -83.001s-18 -70 -18 -112z" />
    <glyph glyph-name="nine" unicode="9" horiz-adv-x="1041" 
d="M466 518c-54 0 -103.168 10.665 -147.501 31.998s-82.166 50.833 -113.499 88.5s-55.666 82.167 -72.999 133.5s-26 106.666 -26 165.999c0 54.667 9 108.334 27 161.001s44 99.834 78 141.501s76 75.334 126 101.001s107 38.5 171 38.5c68 0 128 -13.167 180 -39.5
s95.5 -67.5 130.5 -123.5s61.5 -127.667 79.5 -215s27 -192 27 -314c0 -106.667 -10.5 -203.5 -31.5 -290.5s-51 -161.5 -90 -223.5s-86.5 -109.833 -142.5 -143.5s-118.667 -50.5 -188 -50.5c-36 0 -67.833 1.66699 -95.5 5s-52.834 8 -75.501 14s-43.167 13 -61.5 21
s-35.833 16.667 -52.5 26l29 102c34.667 -18 71.834 -32.167 111.501 -42.5s83.5 -15.5 131.5 -15.5s92 11.333 132 34s74.5 57.5 103.5 104.5s51.667 106.833 68 179.5s25.166 159.334 26.499 260.001c-39.333 -48.667 -87 -85.834 -143 -111.501
s-116.333 -38.5 -181 -38.5zM463.999 627.998c28.667 0 57.499 2.66504 86.499 7.99805s57.333 14.666 85 27.999s54.5 31.333 80.5 54s50 51.334 72 86.001c-4.66699 94.667 -15 172.167 -31 232.5s-37 107.833 -63 142.5s-56.833 58.5 -92.5 71.5s-75.5 19.5 -119.5 19.5
c-39.333 0 -74.166 -9.16699 -104.499 -27.5s-55.833 -43 -76.5 -74s-36.167 -66.667 -46.5 -107s-15.5 -82.166 -15.5 -125.499s4.16699 -83.666 12.5 -120.999s21.5 -69.833 39.5 -97.5s41.167 -49.5 69.5 -65.5s62.833 -24 103.5 -24z" />
    <glyph glyph-name="colon" unicode=":" horiz-adv-x="528" 
d="M193 838h151v-132h-151v132zM193 132h151v-132h-151v132z" />
    <glyph glyph-name="semicolon" unicode=";" horiz-adv-x="499" 
d="M179 158h147l-114 -404l-94 14zM179 848h151v-132h-151v132z" />
    <glyph glyph-name="less" unicode="&#x3c;" horiz-adv-x="935" 
d="M835 224v-132l-731 348v118l731 348v-134l-613 -274z" />
    <glyph glyph-name="equal" unicode="=" horiz-adv-x="1070" 
d="M128 704v110h818v-110h-818zM128 362v110h818v-110h-818z" />
    <glyph glyph-name="greater" unicode="&#x3e;" horiz-adv-x="935" 
d="M104 774v132l731 -348v-118l-731 -348v134l613 274z" />
    <glyph glyph-name="question" unicode="?" horiz-adv-x="898" 
d="M337 356c0 51.333 2.6709 96.8369 8.00391 136.504s13.666 75.5 24.999 107.5s26.166 61 44.499 87s40.5 51.667 66.5 77l73 69c22 21.333 40.833 42.666 56.5 63.999s27.667 43.666 36 66.999s12.5 49.333 12.5 78c0 32 -4.66699 61.5 -14 88.5s-23.5 50.5 -42.5 70.5
s-43.333 35.5 -73 46.5s-64.5 16.5 -104.5 16.5c-30.667 0 -59.167 -3.33301 -85.5 -10s-51.166 -15.5 -74.499 -26.5s-45.833 -23.667 -67.5 -38s-43.167 -29.5 -64.5 -45.5l-46 94c17.333 14.667 38.166 30 62.499 46s51.5 30.667 81.5 44s62.333 24.333 97 33
s71 13 109 13c55.333 0 105 -7.66699 149 -23s81.167 -37 111.5 -65s53.666 -62.167 69.999 -102.5s24.5 -85.5 24.5 -135.5c0 -46.667 -8.33301 -89.167 -25 -127.5s-37.834 -73.5 -63.501 -105.5s-53.5 -61.667 -83.5 -89l-84 -78
c-14.667 -14.667 -26.667 -30.834 -36 -48.501s-16.5 -38.167 -21.5 -61.5s-8.5 -49.833 -10.5 -79.5s-3 -63.834 -3 -102.501h-128zM324.004 158.004h148v-158h-148v158z" />
    <glyph glyph-name="at" unicode="@" horiz-adv-x="1607" 
d="M1492 522c-1.33301 -42 -5.49316 -84.667 -12.4932 -128s-17 -85.166 -30 -125.499s-29.333 -78 -49 -113s-43.334 -65.5 -71.001 -91.5s-59.334 -46.5 -95.001 -61.5s-75.834 -22.5 -120.501 -22.5c-40 0 -74 14.333 -102 43s-47.667 69 -59 121
c-28 -54 -62.667 -94.833 -104 -122.5s-91 -41.5 -149 -41.5c-34.667 0 -65.834 8 -93.501 24s-51.334 39 -71.001 69s-34.834 66 -45.501 108s-16 89 -16 141c0 12.667 0.333008 25.5 1 38.5s1.66699 26.167 3 39.5c6.66699 80.667 20.334 153.834 41.001 219.501
s46.167 121.667 76.5 168s64.5 82 102.5 107s77.667 37.5 119 37.5c38.667 0 72.167 -2.83301 100.5 -8.5s53.833 -13.5 76.5 -23.5s43.667 -21.333 63 -34l59 -40h1l-42 -544c-0.666992 -7.33301 -1 -14.5 -1 -21.5v-20.5c0 -31.333 2.33301 -56.666 7 -75.999
s10.834 -34.5 18.501 -45.5s16.5 -18.5 26.5 -22.5s20 -6 30 -6c34 0 64.167 11.167 90.5 33.5s48.5 53 66.5 92s32 84.667 42 137s16 108.833 18 169.5c0.666992 11.333 1 22.666 1 33.999v34c0 106.667 -10.667 202.167 -32 286.5s-54 155.666 -98 213.999
s-99.833 102.833 -167.5 133.5s-147.834 46 -240.501 46c-89.333 0 -169.5 -18.5 -240.5 -55.5s-131.833 -90.333 -182.5 -160s-90.5 -154.5 -119.5 -254.5s-45.5 -213.333 -49.5 -340c-0.666992 -12 -1.16699 -23.833 -1.5 -35.5s-0.5 -23.167 -0.5 -34.5
c0 -113.333 12 -214.333 36 -303s58.833 -163.5 104.5 -224.5s101.667 -107.667 168 -140s141.5 -48.5 225.5 -48.5c29.333 0 59.166 2.16699 89.499 6.5s59.833 10.5 88.5 18.5s56 17.333 82 28s49.667 22.334 71 35.001l12 -112c-22 -14.667 -47 -27.334 -75 -38.001
s-57.333 -19.5 -88 -26.5s-61.834 -12.333 -93.501 -16s-62.167 -5.5 -91.5 -5.5c-102 0 -193.333 18.833 -274 56.5s-149 91.667 -205 162s-98.833 156 -128.5 257s-44.5 214.5 -44.5 340.5c0 13.333 0.166992 26.666 0.5 39.999s0.833008 26.666 1.5 39.999
c3.33301 140.667 22.833 267.834 58.5 381.501s85 210.334 148 290.001s137.833 141 224.5 184s182.667 64.5 288 64.5c104 0 196.5 -18.333 277.5 -55s149.333 -89.334 205 -158.001s98 -152.167 127 -250.5s43.5 -208.833 43.5 -331.5v-31.5
c0 -10.333 -0.333008 -20.833 -1 -31.5zM610.007 400c-2 -26 -3.00391 -50.666 -3.00391 -73.999c0 -72 10.333 -129.333 31 -172s51.667 -64 93 -64c40.667 0 79.834 16 117.501 48s70.834 87 99.501 165v2l36 484c-17.333 9.33301 -37.166 17.166 -59.499 23.499
s-46.833 9.5 -73.5 9.5c-74.667 0 -130.667 -35.833 -168 -107.5s-61.666 -176.5 -72.999 -314.5z" />
    <glyph glyph-name="A" unicode="A" horiz-adv-x="1177" 
d="M830 422h-477l-132 -422h-136l434 1360h141l439 -1360h-137zM387 532h408l-204 652z" />
    <glyph glyph-name="B" unicode="B" horiz-adv-x="1125" 
d="M184 1360l321.001 -0.000976562c66 0 124.5 -8.66699 175.5 -26s94 -42 129 -74s61.667 -70.333 80 -115s27.5 -94.334 27.5 -149.001c0 -37.333 -4 -70.833 -12 -100.5s-18.5 -56.167 -31.5 -79.5s-27.333 -43.666 -43 -60.999s-30.834 -32 -45.501 -44
c32.667 -10.667 62.5 -25.834 89.5 -45.501s49.833 -43.5 68.5 -71.5s33.167 -59.667 43.5 -95s15.5 -73.666 15.5 -114.999c0 -57.333 -9.83301 -109.666 -29.5 -156.999s-48.334 -87.833 -86.001 -121.5s-83.667 -59.667 -138 -78s-116.166 -27.5 -185.499 -27.5h-379
v1360zM318.001 647.999v-537.997h226c48 0 92 5.16699 132 15.5s74.167 26.166 102.5 47.499s50.333 48.666 66 81.999s23.5 73 23.5 119c0 45.333 -6.33301 85.166 -19 119.499s-30.5 63 -53.5 86s-50.167 40.167 -81.5 51.5s-66 17 -104 17h-292zM318.001 1250v-491.998
h369c8 10.667 17.667 22.667 29 36s22 29.5 32 48.5s18.5 42 25.5 69s10.5 59.833 10.5 98.5c0 42 -7 78.167 -21 108.5s-34 55.166 -60 74.499s-57.5 33.666 -94.5 42.999s-78.5 14 -124.5 14h-166z" />
    <glyph glyph-name="C" unicode="C" horiz-adv-x="1023" 
d="M119 682c0 105.333 12.3359 201.003 37.0029 287.003s60 159.5 106 220.5s101.833 108 167.5 141s139.5 49.5 221.5 49.5c59.333 0 109.833 -7.33301 151.5 -22s77.167 -31 106.5 -49l-42 -95c-30 17.333 -63.667 31 -101 41s-77 15 -119 15
c-58 0 -111.333 -11.333 -160 -34s-90.334 -57.834 -125.001 -105.501s-61.667 -108.667 -81 -183s-29 -162.833 -29 -265.5c0 -103.333 10.333 -192.166 31 -266.499s49.667 -135.666 87 -183.999s81.666 -84 132.999 -107s108 -34.5 170 -34.5
c26 0 50.167 2.16699 72.5 6.5s43.166 9.66602 62.499 15.999s37 13.166 53 20.499s30.333 14.333 43 21l34 -92c-30 -23.333 -68 -42.833 -114 -58.5s-101.333 -23.5 -166 -23.5c-82.667 0 -157.167 16.833 -223.5 50.5s-122.833 81.167 -169.5 142.5
s-82.667 135.166 -108 221.499s-38 182.166 -38 287.499z" />
    <glyph glyph-name="D" unicode="D" horiz-adv-x="1216" 
d="M184 1360l348 0.00292969c86 0 163.667 -16.167 233 -48.5s128.5 -78 177.5 -137s86.833 -130.167 113.5 -213.5s40 -176.333 40 -279s-13.333 -195.834 -40 -279.501s-64.5 -155.334 -113.5 -215.001s-108.167 -105.834 -177.5 -138.501s-147 -49 -233 -49h-348v1360z
M318 1250v-1140h196c65.333 0 125.5 11.167 180.5 33.5s102.333 56.833 142 103.5s70.667 106 93 178s33.5 157.667 33.5 257s-11.167 184.833 -33.5 256.5s-53.333 130.5 -93 176.5s-87 80 -142 102s-115.167 33 -180.5 33h-196z" />
    <glyph glyph-name="E" unicode="E" horiz-adv-x="949" 
d="M184 0v1360h670v-110h-536v-492h479v-110h-479v-538h536v-110h-670z" />
    <glyph glyph-name="F" unicode="F" horiz-adv-x="874" 
d="M318 648v-648h-134v1360h634v-110h-500v-492h441v-110h-441z" />
    <glyph glyph-name="G" unicode="G" horiz-adv-x="1219" 
d="M640 664l425.001 -0.00390625v-596c-56 -27.333 -114 -48.833 -174 -64.5s-125.333 -23.5 -196 -23.5c-88 0 -167.333 18.667 -238 56s-130.834 88 -180.501 152s-88 138.333 -115 223s-40.5 174.334 -40.5 269.001c0 111.333 14.333 210.5 43 297.5
s69.667 160.333 123 220s117.833 105 193.5 136s160.834 46.5 255.501 46.5c61.333 0 113.666 -6.66699 156.999 -20s77.333 -26 102 -38l-31 -106c-28 12 -60.667 24 -98 36s-80 18 -128 18c-72.667 0 -138.667 -11.667 -198 -35s-110.166 -59.166 -152.499 -107.499
s-75 -109.666 -98 -183.999s-34.5 -162.166 -34.5 -263.499c0 -76 10.5 -149.5 31.5 -220.5s50.667 -133.833 89 -188.5s84.666 -98.5 138.999 -131.5s114.5 -49.5 180.5 -49.5c42 0 83.667 2.83301 125 8.5s79 16.167 113 31.5v424h-293v110z" />
    <glyph glyph-name="H" unicode="H" horiz-adv-x="1236" 
d="M184 1360h134v-626h614v626h133v-1360h-133v624h-614v-624h-134v1360z" />
    <glyph glyph-name="I" unicode="I" horiz-adv-x="742" 
d="M136 0v110h173v1140h-173v110h474v-110h-168v-1140h168v-110h-474z" />
    <glyph glyph-name="J" unicode="J" horiz-adv-x="850" 
d="M126 156c12.667 -8 27.666 -16.001 44.999 -24.001s35.5 -15 54.5 -21s37.833 -11 56.5 -15s35.334 -6 50.001 -6c36 0 67.333 5.33301 94 16s49 27.667 67 51s31.333 53.5 40 90.5s13 81.833 13 134.5v978h133v-972c0 -78.667 -8.16699 -144.167 -24.5 -196.5
s-39.333 -94.166 -69 -125.499s-65.5 -53.5 -107.5 -66.5s-88.333 -19.5 -139 -19.5c-54.667 0 -104.167 8 -148.5 24s-81.5 34 -111.5 54z" />
    <glyph glyph-name="K" unicode="K" horiz-adv-x="1119" 
d="M487 628h-171v-628h-133v1360h133v-622h172l366 622h160l-403 -674h-1l468 -686h-166z" />
    <glyph glyph-name="L" unicode="L" horiz-adv-x="925" 
d="M184 1360h134v-1250h560v-110h-694v1360z" />
    <glyph glyph-name="M" unicode="M" horiz-adv-x="1495" 
d="M755 654l399 706h170v-1360h-133v778l4 415l-387 -689h-106l-389 692l5 -406v-790h-134v1360h171z" />
    <glyph glyph-name="N" unicode="N" horiz-adv-x="1278" 
d="M184 1360h134l656 -1123v1123h134v-1360h-134l-656 1111v-1111h-134v1360z" />
    <glyph glyph-name="O" unicode="O" horiz-adv-x="1235" 
d="M115 680c0 107.333 12.167 204.166 36.5 290.499s58.333 159.833 102 220.5s96 107.334 157 140.001s128.167 49 201.5 49s141.166 -16.333 203.499 -49s116.333 -79.334 162 -140.001s81.334 -134.167 107.001 -220.5s38.5 -183.166 38.5 -290.499
c0 -108 -12.833 -205.167 -38.5 -291.5s-61.334 -159.833 -107.001 -220.5s-99.667 -107.167 -162 -139.5s-130.166 -48.5 -203.499 -48.5s-140.5 16.167 -201.5 48.5s-113.333 78.833 -157 139.5s-77.667 134.167 -102 220.5s-36.5 183.5 -36.5 291.5zM249 680
c0 -100 9 -187 27 -261s43.167 -135.333 75.5 -184s70.666 -85 114.999 -109s92.833 -36 145.5 -36c54 0 104 12 150 36s85.833 60.333 119.5 109s60.167 110 79.5 184s29 161 29 261s-9.66699 187 -29 261s-45.833 135.333 -79.5 184s-73.5 85 -119.5 109s-96 36 -150 36
c-52.667 0 -101.167 -12 -145.5 -36s-82.666 -60.333 -114.999 -109s-57.5 -110 -75.5 -184s-27 -161 -27 -261z" />
    <glyph glyph-name="P" unicode="P" horiz-adv-x="1060" 
d="M184 1360l347 0.000976562c70 0 132.167 -9.66699 186.5 -29s100.166 -47 137.499 -83s65.666 -79.333 84.999 -130s29 -107.334 29 -170.001s-9.66699 -119.5 -29 -170.5s-47.666 -94.667 -84.999 -131s-83.166 -64.5 -137.499 -84.5s-116.5 -30 -186.5 -30h-213v-532
h-134v1360zM318 1250v-607.999h193c50 0 95 6.16699 135 18.5s74.167 31 102.5 56s50 56.667 65 95s22.5 83.833 22.5 136.5s-7.5 98.167 -22.5 136.5s-36.667 69.666 -65 93.999s-62.5 42.333 -102.5 54s-85 17.5 -135 17.5h-193z" />
    <glyph glyph-name="Q" unicode="Q" horiz-adv-x="1200" 
d="M101 680c0 107.333 12.167 204.165 36.5 290.498s58.333 159.833 102 220.5s96 107.334 157 140.001s128.167 49 201.5 49s141.166 -16.333 203.499 -49s116.333 -79.334 162 -140.001s81.334 -134.167 107.001 -220.5s38.5 -183.166 38.5 -290.499
c0 -124 -16.5 -233 -49.5 -327s-78.5 -171.333 -136.5 -232l244 -291h-153l-183 216c-34.667 -21.333 -71.5 -37.666 -110.5 -48.999s-79.833 -17 -122.5 -17c-73.333 0 -140.5 16.167 -201.5 48.5s-113.333 78.833 -157 139.5s-77.667 134.167 -102 220.5
s-36.5 183.5 -36.5 291.5zM235 679.999c0 -100 9 -187 27 -261s43.167 -135.333 75.5 -184s70.666 -85 114.999 -109s92.833 -36 145.5 -36c54 0 104 12 150 36s85.833 60.333 119.5 109s60.167 110 79.5 184s29 161 29 261s-9.66699 187 -29 261s-45.833 135.333 -79.5 184
s-73.5 85 -119.5 109s-96 36 -150 36c-52.667 0 -101.167 -12 -145.5 -36s-82.666 -60.333 -114.999 -109s-57.5 -110 -75.5 -184s-27 -161 -27 -261z" />
    <glyph glyph-name="R" unicode="R" horiz-adv-x="1092" 
d="M184 1360h368.001c64 0 120.667 -8.16699 170 -24.5s90.833 -40.166 124.5 -71.499s59.334 -69.833 77.001 -115.5s26.5 -97.834 26.5 -156.501c0 -36 -5.16699 -70.667 -15.5 -104s-24.333 -64.5 -42 -93.5s-38.334 -55.167 -62.001 -78.5s-48.834 -43.333 -75.501 -60
l250 -656h-138l-235 626h-314v-626h-134v1360zM318.001 1250l-0.000976562 -514h377c14 12.667 28.167 26.167 42.5 40.5s27.333 31 39 50s21.334 41.833 29.001 68.5s11.5 59 11.5 97c0 48 -6.66699 88.5 -20 121.5s-32.5 59.5 -57.5 79.5s-55.167 34.5 -90.5 43.5
s-75.333 13.5 -120 13.5h-211z" />
    <glyph glyph-name="S" unicode="S" horiz-adv-x="964" 
d="M865 348c0 -55.333 -9.33105 -105.665 -27.998 -150.998s-45.167 -84 -79.5 -116s-75.833 -56.833 -124.5 -74.5s-103 -26.5 -163 -26.5c-34.667 0 -69.5 1.83301 -104.5 5.5s-68.333 8.5 -100 14.5s-60.834 13.167 -87.501 21.5s-49 17.166 -67 26.499l32 108
c24 -9.33301 48 -18 72 -26s49.167 -15 75.5 -21s54.333 -10.667 84 -14s62.167 -5 97.5 -5c38.667 0 74 5.5 106 16.5s59.333 27.167 82 48.5s40.334 47.666 53.001 78.999s19 67.333 19 108c0 36.667 -7 69.667 -21 99s-33.833 55.666 -59.5 78.999s-56.5 44.333 -92.5 63
s-75.667 35.667 -119 51c-46 16 -89.167 35.333 -129.5 58s-75.333 49.5 -105 80.5s-53 66.167 -70 105.5s-25.5 83.333 -25.5 132c0 56 8.83301 106.833 26.5 152.5s43 84.5 76 116.5s73.167 56.833 120.5 74.5s100.666 26.5 159.999 26.5c36.667 0 71.5 -2.5 104.5 -7.5
s63.667 -11 92 -18s53.666 -14.5 75.999 -22.5s41.166 -15.333 56.499 -22l-34 -108l-63 25c-20.667 8 -42.5 15.167 -65.5 21.5s-48 11.5 -75 15.5s-57.5 6 -91.5 6c-83.333 0 -145.666 -22.667 -186.999 -68s-62 -106 -62 -182c0 -30.667 4.66699 -59.5 14 -86.5
s24 -52.5 44 -76.5s46.167 -46.167 78.5 -66.5s71.5 -39.166 117.5 -56.499c60 -22 112.833 -45.5 158.5 -70.5s84 -52.833 115 -83.5s54.333 -65 70 -103s23.5 -81 23.5 -129z" />
    <glyph glyph-name="T" unicode="T" horiz-adv-x="1066" 
d="M605 1250v-1250h-133v1250h-391v110h908v-110h-384z" />
    <glyph glyph-name="U" unicode="U" horiz-adv-x="1254" 
d="M948 1360h133.999v-960c0 -67.333 -11 -127 -33 -179s-53 -95.833 -93 -131.5s-87.833 -62.834 -143.5 -81.501s-117.167 -28 -184.5 -28s-128.166 9.16699 -182.499 27.5s-101 45.333 -140 81s-69 79.334 -90 131.001s-31.5 111.167 -31.5 178.5v962h134v-962
c0 -49.333 7.5 -93 22.5 -131s36.167 -70.167 63.5 -96.5s60 -46.333 98 -60s80 -20.5 126 -20.5c46.667 0 89.5 6.83301 128.5 20.5s72.667 33.667 101 60s50.5 58.5 66.5 96.5s24 81.667 24 131v962z" />
    <glyph glyph-name="V" unicode="V" horiz-adv-x="1158" 
d="M465 588l115 -395l115 387l246 780h142l-437 -1360h-131l-438 1360h141z" />
    <glyph glyph-name="W" unicode="W" horiz-adv-x="1617" 
d="M1379 1360h141l-272 -1360h-148l-287 1085l-295 -1085h-144l-273 1360h142l209 -1158l290 1158h139l286 -1153z" />
    <glyph glyph-name="X" unicode="X" horiz-adv-x="1027" 
d="M516 794l286 566h158l-354 -671l354 -689h-160l-286 577l-283 -577h-161l353 689l-353 671h159z" />
    <glyph glyph-name="Y" unicode="Y" horiz-adv-x="1024" 
d="M513 648l294 712h143l-369 -870v-490h-133v486l-371 874h144z" />
    <glyph glyph-name="Z" unicode="Z" horiz-adv-x="1118" 
d="M142 1360h818v-80l-676 -1170h741l-39 -110h-850v102l650 1148h-644v110z" />
    <glyph glyph-name="bracketleft" unicode="[" horiz-adv-x="665" 
d="M251 1524h275v-110h-142v-1598h142v-110h-275v1818z" />
    <glyph glyph-name="backslash" unicode="\" horiz-adv-x="721" 
d="M47 1360h134l491 -1500h-133z" />
    <glyph glyph-name="bracketright" unicode="]" horiz-adv-x="672" 
d="M418 1524v-1818h-275v110h142v1598h-142v110h275z" />
    <glyph glyph-name="asciicircum" unicode="^" horiz-adv-x="805" 
d="M218 708h-137l260 652h128l259 -652h-138l-185 486z" />
    <glyph glyph-name="underscore" unicode="_" horiz-adv-x="810" 
d="M3 -198v110h804v-110h-804z" />
    <glyph glyph-name="grave" unicode="`" horiz-adv-x="525" 
d="M428 1146l-101 -34l-235 248l150 66z" />
    <glyph glyph-name="a" unicode="a" horiz-adv-x="978" 
d="M683 584v37.999c0 54 -4.33301 99.333 -13 136s-21.834 66.334 -39.501 89.001s-39.667 38.834 -66 48.501s-57.5 14.5 -93.5 14.5c-23.333 0 -46.833 -1.83301 -70.5 -5.5s-46.667 -8.83398 -69 -15.501s-43.5 -14.167 -63.5 -22.5s-38 -17.166 -54 -26.499l-33 98
c18.667 12.667 40 24 64 34s49.167 18.5 75.5 25.5s53.333 12.5 81 16.5s54.834 6 81.501 6c50 0 95.5 -6 136.5 -18s76 -33 105 -63s51.5 -70.667 67.5 -122s24 -116.333 24 -195v-622h-99l-20 111c-11.333 -10 -26.833 -22.5 -46.5 -37.5s-43.167 -29.5 -70.5 -43.5
s-58 -25.833 -92 -35.5s-71 -14.5 -111 -14.5c-45.333 0 -84.5 7.83301 -117.5 23.5s-60.5 37 -82.5 64s-38.333 58.5 -49 94.5s-16 74 -16 114c0 40.667 8.66699 79.667 26 117s41.833 70.166 73.5 98.499s69.167 50.833 112.5 67.5s91 25 143 25h216zM409 89.999
c36 0 69.3291 5.33496 99.9961 16.002s57.834 23.167 81.501 37.5s43.334 28.5 59.001 42.5s26.834 24.667 33.501 32v266h-196c-48 0 -87.5 -7.16699 -118.5 -21.5s-55.667 -32.5 -74 -54.5s-31.166 -46.333 -38.499 -73s-11 -52.334 -11 -77.001
c0 -26.667 4.16699 -50.334 12.5 -71.001s19.833 -38.167 34.5 -52.5s32 -25.333 52 -33s41.667 -11.5 65 -11.5z" />
    <glyph glyph-name="b" unicode="b" horiz-adv-x="1063" 
d="M180 1402l133 0.000976562v-476c31.333 28 67.333 50.667 108 68s90.667 26 150 26c55.333 0 105.5 -12.333 150.5 -37s83.333 -59.5 115 -104.5s56.167 -99.333 73.5 -163s26 -134.834 26 -213.501s-8.66699 -150 -26 -214s-41.833 -118.833 -73.5 -164.5
s-70 -81 -115 -106s-95.167 -37.5 -150.5 -37.5c-32.667 0 -62 2.5 -88 7.5s-49.833 12.333 -71.5 22s-42 21.667 -61 36s-37.5 30.833 -55.5 49.5l-21 -95h-94v1402zM804 502.001c0 132.667 -22.666 233.833 -67.999 303.5s-115.333 104.5 -210 104.5
c-40.667 0 -79.167 -7.5 -115.5 -22.5s-68.833 -34.167 -97.5 -57.5v-655c29.333 -22.667 62.166 -42.5 98.499 -59.5s74.5 -25.5 114.5 -25.5c94.667 0 164.667 35.333 210 106s68 172.667 68 306z" />
    <glyph glyph-name="c" unicode="c" horiz-adv-x="858" 
d="M124 502c0 78.667 9.49902 149.831 28.499 213.498s46.333 118 82 163s79.5 79.833 131.5 104.5s111 37 177 37c54 0 100.667 -4.66699 140 -14s72.666 -22.666 99.999 -39.999l-44 -98l-33 14.5c-11.333 5 -24.166 9.5 -38.499 13.5s-30.5 7.33301 -48.5 10s-39 4 -63 4
c-44.667 0 -85.334 -7.83301 -122.001 -23.5s-68.167 -40 -94.5 -73s-46.666 -75.333 -60.999 -127s-21.5 -113.167 -21.5 -184.5s7 -133 21 -185s34 -94.833 60 -128.5s57.167 -58.5 93.5 -74.5s76.833 -24 121.5 -24c50 0 92.667 5.5 128 16.5s66 23.5 92 37.5l44 -98
c-28 -21.333 -63 -37.666 -105 -48.999s-91.333 -17 -148 -17c-69.333 0 -131.166 12.5 -185.499 37.5s-100.333 60.333 -138 106s-66.5 100.5 -86.5 164.5s-30 135.333 -30 214z" />
    <glyph glyph-name="d" unicode="d" horiz-adv-x="1049" 
d="M752 71c-16.667 -14.667 -33.499 -27.668 -50.499 -39.001s-35.5 -20.833 -55.5 -28.5s-42.333 -13.5 -67 -17.5s-52.667 -6 -84 -6c-56 0 -105.833 12.5 -149.5 37.5s-80.834 60.333 -111.501 106s-54 100.5 -70 164.5s-24 135.333 -24 214s8 149.834 24 213.501
s39.333 118 70 163s67.834 79.833 111.501 104.5s93.5 37 149.5 37c30 0 56.833 -1.83301 80.5 -5.5s45.667 -9.16699 66 -16.5s39.166 -16.5 56.499 -27.5s34.333 -23.833 51 -38.5v468h134v-1400h-127zM273.001 501.999c0 -133.333 20.668 -235.332 62.001 -305.999
s109.666 -106 204.999 -106c40 0 77.833 7.16699 113.5 21.5s67.5 32.5 95.5 54.5v667c-28 22 -59.833 40.333 -95.5 55s-73.5 22 -113.5 22c-48 0 -88.833 -8.83301 -122.5 -26.5s-61.167 -43.667 -82.5 -78s-37 -76.833 -47 -127.5s-15 -109.334 -15 -176.001z" />
    <glyph glyph-name="e" unicode="e" horiz-adv-x="984" 
d="M256 516l-0.00292969 -23.9971c0 -63.333 6 -120 18 -170s30 -92.167 54 -126.5s54.167 -60.5 90.5 -78.5s78.5 -27 126.5 -27c31.333 0 59.666 2.16699 84.999 6.5s48.333 9.66602 69 15.999s39 13.166 55 20.499s30.333 14.333 43 21l37 -102
c-35.333 -22 -77.666 -39.5 -126.999 -52.5s-102.333 -19.5 -159 -19.5c-69.333 0 -130.5 11.5 -183.5 34.5s-97.5 56.333 -133.5 100s-63.167 97.167 -81.5 160.5s-27.5 135.666 -27.5 216.999c0 83.333 8.83301 157.833 26.5 223.5s43.334 121 77.001 166
s74.834 79.333 123.501 103s103.667 35.5 165 35.5c50 0 96.333 -8.66699 139 -26s79.334 -42.833 110.001 -76.5s54.667 -75 72 -124s26 -104.833 26 -167.5v-110h-605zM517.997 910.003c-34.667 0 -66.1689 -4.66797 -94.502 -14.001s-53.333 -25 -75 -47
s-39.834 -51.167 -54.501 -87.5s-25 -81.5 -31 -135.5h464c0 50.667 -5.66699 93.834 -17 129.501s-26.666 65 -45.999 88s-41.666 39.833 -66.999 50.5s-51.666 16 -78.999 16z" />
    <glyph glyph-name="f" unicode="f" horiz-adv-x="667" 
d="M86 1000h130.997v74c0 61.333 6.5 113.833 19.5 157.5s31.5 79.5 55.5 107.5s53.5 48.5 88.5 61.5s74.5 19.5 118.5 19.5c30 0 60.333 -3 91 -9s56.667 -13 78 -21l-4 -102c-17.333 5.33301 -40.166 10.333 -68.499 15s-55.833 7 -82.5 7
c-29.333 0 -54.166 -4.16699 -74.499 -12.5s-37.166 -21.833 -50.499 -40.5s-23 -43 -29 -73s-9 -66.667 -9 -110v-74h246v-110h-246v-890h-133v890h-153z" />
    <glyph glyph-name="g" unicode="g" horiz-adv-x="1050" 
d="M147 660c0 59.333 8.83105 111.502 26.498 156.502s42.5 82.5 74.5 112.5s70.833 52.667 116.5 68s96.5 23 152.5 23c50.667 0 98 -6.66699 142 -20h320l-17 -110h-138c22 -29.333 39 -63 51 -101s18 -81 18 -129c0 -56 -9.16699 -106.333 -27.5 -151
s-44.166 -82.5 -77.499 -113.5s-73 -54.667 -119 -71s-96.667 -24.5 -152 -24.5c-57.333 0 -109.333 8.66699 -156 26c-13.333 -16 -23.666 -33.833 -30.999 -53.5s-11 -42.167 -11 -67.5c0 -6 0.833008 -13.5 2.5 -22.5s4 -18 7 -27s6.5 -17.667 10.5 -26
s8.33301 -14.833 13 -19.5h273c50.667 0 96 -6.33301 136 -19s73.667 -31 101 -55s48.166 -53 62.499 -87s21.5 -72.333 21.5 -115c-1.33301 -45.333 -12.5 -86.833 -33.5 -124.5s-50.5 -70.334 -88.5 -98.001s-83.667 -49.167 -137 -64.5s-112.666 -23 -177.999 -23
c-48.667 0 -97.5 4 -146.5 12s-93.333 22.333 -133 43s-72 48.834 -97 84.501s-37.5 81.167 -37.5 136.5c0 53.333 11.333 99.666 34 138.999s61 74 115 104c-12.667 17.333 -24.5 38 -35.5 62s-16.5 52 -16.5 84c0 42 7.66699 77.167 23 105.5s36 53.833 62 76.5
c-42 31.333 -74.167 71.166 -96.5 119.499s-33.5 104.833 -33.5 169.5zM279.998 660.002c0 -37.333 4.83105 -71.333 14.498 -102s24.334 -57 44.001 -79s44.334 -39 74.001 -51s64.5 -18 104.5 -18c38.667 0 73 6 103 18s55.333 29 76 51s36.5 48.333 47.5 79
s16.5 64.667 16.5 102c0 42 -6.33301 78.667 -19 110s-30 57.333 -52 78s-47.833 36.167 -77.5 46.5s-61.167 15.5 -94.5 15.5c-34 0 -65.5 -5.16699 -94.5 -15.5s-54 -25.833 -75 -46.5s-37.5 -46.667 -49.5 -78s-18 -68 -18 -110zM343.996 0.00195312
c-18.667 -14.667 -35.1699 -28.8359 -49.5029 -42.5029s-26.333 -28.167 -36 -43.5s-17 -32.166 -22 -50.499s-7.5 -38.833 -7.5 -61.5c0 -21.333 4.83301 -40.5 14.5 -57.5s22.5 -31.667 38.5 -44s34 -22.833 54 -31.5s40.667 -15.5 62 -20.5s42 -8.66699 62 -11
s37.667 -3.5 53 -3.5c43.333 0 83.333 4.83301 120 14.5s68.334 22.834 95.001 39.501s47.5 36.5 62.5 59.5s22.5 48.167 22.5 75.5c0 24.667 -3.33301 47.834 -10 69.501s-18.167 40.5 -34.5 56.5s-38.666 28.5 -66.999 37.5s-64.166 13.5 -107.499 13.5h-250z" />
    <glyph glyph-name="h" unicode="h" 
d="M180 1400l132.999 -0.000976562v-509c86 86 185.333 129 298 129c96.667 0 167.667 -29 213 -87s68 -148.333 68 -271v-662h-133v662c0 46.667 -3.66699 85.834 -11 117.501s-18.333 57.167 -33 76.5s-33.167 33.166 -55.5 41.499s-48.166 12.5 -77.499 12.5
c-52.667 0 -101.5 -11.167 -146.5 -33.5s-85.833 -51.166 -122.5 -86.499v-790h-133v1400z" />
    <glyph glyph-name="i" unicode="i" horiz-adv-x="517" 
d="M196 1000h134v-1000h-134v1000zM180 1402h161v-158h-161v158z" />
    <glyph glyph-name="j" unicode="j" horiz-adv-x="538" 
d="M-47 -292c8.66699 -2.66699 18.832 -4.99805 30.499 -6.99805s23.834 -3.83301 36.501 -5.5s25.334 -3 38.001 -4s24.667 -1.5 36 -1.5c24 0 45.167 4.33301 63.5 13s33.666 23 45.999 43s21.666 46.5 27.999 79.5s9.5 73.833 9.5 122.5v1052h133v-1052
c0 -73.333 -6.33301 -133.833 -19 -181.5s-31 -85.334 -55 -113.001s-53.333 -46.834 -88 -57.501s-74 -16 -118 -16c-27.333 0 -54.666 2 -81.999 6s-51.333 9.66699 -72 17zM220.998 1402h163v-158h-163v158z" />
    <glyph glyph-name="k" unicode="k" horiz-adv-x="954" 
d="M412 468h-99v-468h-133v1400h133v-822h102l293 422h154l-336 -474h-1l396 -526h-163z" />
    <glyph glyph-name="l" unicode="l" horiz-adv-x="518" 
d="M198 1400h134v-1400h-134v1400z" />
    <glyph glyph-name="m" unicode="m" horiz-adv-x="1610" 
d="M180 1000l119.996 -0.000976562l8 -90c43.333 38 90.333 65.833 141 83.5s105 26.5 163 26.5c57.333 0 107.166 -8.16699 149.499 -24.5s74.833 -46.166 97.5 -89.499c40 35.333 85.667 63.166 137 83.499s106.333 30.5 165 30.5c42.667 0 81.334 -5.66699 116.001 -17
s64.334 -31 89.001 -59s43.667 -66 57 -114s20 -108.667 20 -182v-648h-134v648c0 48.667 -3.66699 89.834 -11 123.501s-18.166 60.667 -32.499 81s-32.5 35 -54.5 44s-47.333 13.5 -76 13.5c-49.333 0 -94.333 -9.5 -135 -28.5s-78 -43.833 -112 -74.5
c1.33301 -11.333 2.5 -23 3.5 -35s1.5 -24.667 1.5 -38v-734h-133v746c0 60 -14.667 102.333 -44 127s-73.666 37 -132.999 37c-52 0 -100.667 -11.5 -146 -34.5s-86.666 -52.5 -123.999 -88.5v-787h-133v1000z" />
    <glyph glyph-name="n" unicode="n" 
d="M180 1000l119.999 -0.000976562l10 -112c86 88 186.333 132 301 132c96.667 0 167.667 -29 213 -87s68 -148.333 68 -271v-662h-133v662c0 46.667 -3.66699 85.834 -11 117.501s-18.333 57.167 -33 76.5s-33.167 33.166 -55.5 41.499s-48.166 12.5 -77.499 12.5
c-52.667 0 -101.5 -11.167 -146.5 -33.5s-85.833 -51.166 -122.5 -86.499v-790h-133v1000z" />
    <glyph glyph-name="o" unicode="o" horiz-adv-x="1045" 
d="M123 500c0 80.667 9.33301 153 28 217s45.167 118.5 79.5 163.5s76.333 79.5 126 103.5s105.5 36 167.5 36c61.333 0 117.5 -12 168.5 -36s94.667 -58.5 131 -103.5s64.666 -99.5 84.999 -163.5s30.5 -136.333 30.5 -217c0 -81.333 -10.167 -154 -30.5 -218
s-48.666 -118.5 -84.999 -163.5s-80 -79.333 -131 -103s-107.167 -35.5 -168.5 -35.5c-62 0 -117.833 11.833 -167.5 35.5s-91.667 58 -126 103s-60.833 99.5 -79.5 163.5s-28 136.667 -28 218zM256 500c0 -70.667 6.33301 -131.667 19 -183s30.834 -93.833 54.501 -127.5
s52 -58.667 85 -75s69.5 -24.5 109.5 -24.5c40.667 0 78.334 8.16699 113.001 24.5s64.5 41.333 89.5 75s44.5 76.167 58.5 127.5s21 112.333 21 183s-7 131.834 -21 183.501s-33.5 94.334 -58.5 128.001s-54.833 58.5 -89.5 74.5s-72.334 24 -113.001 24
c-40 0 -76.5 -8 -109.5 -24s-61.333 -40.833 -85 -74.5s-41.834 -76.334 -54.501 -128.001s-19 -112.834 -19 -183.501z" />
    <glyph glyph-name="p" unicode="p" horiz-adv-x="1059" 
d="M180 1000h115.999l9 -79c17.333 16 34.833 30 52.5 42s36.834 22.333 57.501 31s43.667 15.167 69 19.5s54.333 6.5 87 6.5c55.333 0 105.666 -12.167 150.999 -36.5s84 -59 116 -104s56.833 -99.167 74.5 -162.5s26.5 -134.333 26.5 -213
s-8.83301 -150.167 -26.5 -214.5s-42.5 -119.5 -74.5 -165.5s-70.667 -81.5 -116 -106.5s-95.666 -37.5 -150.999 -37.5c-58 0 -107 7.5 -147 22.5s-77 37.833 -111 68.5v-471h-133v1400zM804.999 504c0 132 -22.833 232.668 -68.5 302.001s-115.834 104 -210.501 104
c-40.667 0 -79.167 -7.5 -115.5 -22.5s-68.833 -34.167 -97.5 -57.5v-661c28.667 -22.667 61.167 -41.5 97.5 -56.5s74.833 -22.5 115.5 -22.5c94.667 0 164.834 35.667 210.501 107s68.5 173.666 68.5 306.999z" />
    <glyph glyph-name="q" unicode="q" horiz-adv-x="1049" 
d="M749 67c-16 -15.333 -32.499 -28.3359 -49.499 -39.0029s-35.5 -19.667 -55.5 -27s-42.167 -12.666 -66.5 -15.999s-51.833 -5 -82.5 -5c-56 0 -105.833 12.5 -149.5 37.5s-80.834 60.5 -111.501 106.5s-54 101.167 -70 165.5s-24 135.833 -24 214.5s8 149.667 24 213
s39.333 117.5 70 162.5s67.834 79.667 111.501 104s93.5 36.5 149.5 36.5c31.333 0 59.666 -2.16699 84.999 -6.5s48.5 -10.666 69.5 -18.999s40.5 -18.666 58.5 -30.999s36 -26.833 54 -43.5l17 80h104v-1400h-134v467zM273.001 503.997c0 -66.667 5 -125.667 15 -177
s25.667 -94.5 47 -129.5s48.833 -61.667 82.5 -80s74.5 -27.5 122.5 -27.5c40 0 77.833 7.16699 113.5 21.5s67.5 32.5 95.5 54.5v667c-28 22 -59.833 40.333 -95.5 55s-73.5 22 -113.5 22c-48 0 -88.833 -8.83301 -122.5 -26.5s-61.167 -43.5 -82.5 -77.5
s-37 -76.333 -47 -127s-15 -109 -15 -175z" />
    <glyph glyph-name="r" unicode="r" horiz-adv-x="671" 
d="M180 1000h119.998l9 -131c35.333 55.333 73.166 94.333 113.499 117s82.5 34 126.5 34c12 0 24.333 -0.333008 37 -1s25.334 -1.66699 38.001 -3l-15 -134c-15.333 3.33301 -30.666 5.5 -45.999 6.5s-32.666 1.5 -51.999 1.5c-37.333 0 -72.833 -12.667 -106.5 -38
s-64.167 -58.333 -91.5 -99v-753h-133v1000z" />
    <glyph glyph-name="s" unicode="s" horiz-adv-x="858" 
d="M753 266c0 -39.333 -7.50293 -76.332 -22.5029 -110.999s-36.333 -65 -64 -91s-61.334 -46.5 -101.001 -61.5s-84.5 -22.5 -134.5 -22.5c-31.333 0 -62.166 1.83301 -92.499 5.5s-59.5 8.83398 -87.5 15.501s-54.167 14.5 -78.5 23.5s-45.5 18.833 -63.5 29.5l32 112
l66.5 -29.5c21 -9 42.667 -17 65 -24s46.833 -12.5 73.5 -16.5s57 -6 91 -6c30 0 56.333 4.16699 79 12.5s41.667 20 57 35s27 32.333 35 52s12 41.167 12 64.5c0 26.667 -4.5 50 -13.5 70s-22.333 37.833 -40 53.5s-39.834 29.667 -66.501 42s-58 24.5 -94 36.5
c-40.667 12.667 -78.167 28.667 -112.5 48s-64 41.166 -89 65.499s-44.667 51 -59 80s-21.5 59.167 -21.5 90.5c0 89.333 28 158.333 84 207s134.667 73 236 73c64 0 119.667 -6.83301 167 -20.5s85 -27.5 113 -41.5l-29 -108
c-19.333 7.33301 -37.666 14.666 -54.999 21.999s-35.666 13.833 -54.999 19.5s-40.666 10.167 -63.999 13.5s-50 5 -80 5c-62.667 0 -109 -13.833 -139 -41.5s-45 -65.167 -45 -112.5c0 -18 2.83301 -36.167 8.5 -54.5s15.5 -36 29.5 -53s32.833 -32.833 56.5 -47.5
s53.5 -27.667 89.5 -39c108.667 -33.333 187.834 -75.5 237.501 -126.5s74.5 -107.5 74.5 -169.5z" />
    <glyph glyph-name="t" unicode="t" horiz-adv-x="714" 
d="M82 1000l134.998 0.000976562v260l133 20v-280h263v-110h-263v-604c0 -37.333 2.5 -68.5 7.5 -93.5s12.833 -45 23.5 -60s24.167 -25.833 40.5 -32.5s36.166 -10 59.499 -10c28.667 0 57.834 2.33301 87.501 7s53.834 9 72.501 13l7 -104
c-21.333 -7.33301 -47.833 -13.5 -79.5 -18.5s-62.5 -7.5 -92.5 -7.5c-41.333 0 -78.166 4.16699 -110.499 12.5s-59.5 23.666 -81.5 45.999s-38.667 53.333 -50 93s-17 91.167 -17 154.5v604h-158z" />
    <glyph glyph-name="u" unicode="u" 
d="M892 0h-127l-4 114c-44 -42.667 -91.833 -75.667 -143.5 -99s-106.167 -35 -163.5 -35c-43.333 0 -82 5.5 -116 16.5s-62.667 30 -86 57s-41.166 63.5 -53.499 109.5s-18.5 104.333 -18.5 175v662h133v-662c0 -46 3.16699 -84.833 9.5 -116.5s16.333 -57.167 30 -76.5
s31.167 -33.333 52.5 -42s46.666 -13 75.999 -13c50.667 0 99.5 11.167 146.5 33.5s90.833 51.5 131.5 87.5v789h133v-1000z" />
    <glyph glyph-name="v" unicode="v" horiz-adv-x="889" 
d="M53 1000h144l179 -594l71 -250l82 252l178 592h134l-337 -1000h-115z" />
    <glyph glyph-name="w" unicode="w" horiz-adv-x="1337" 
d="M630 1000h84l251 -797l164 797h143l-246 -1000h-110l-244 756l-248 -756h-108l-244 1000h142l161 -799z" />
    <glyph glyph-name="x" unicode="x" horiz-adv-x="927" 
d="M235 0h-147l314 504l-314 496h150l228 -380l226 380h148l-312 -498l314 -502h-146l-230 387z" />
    <glyph glyph-name="y" unicode="y" horiz-adv-x="917" 
d="M519 -50c-19.333 -70.667 -38.6631 -129.168 -57.9961 -175.501s-40.333 -83.166 -63 -110.499s-48.334 -46.5 -77.001 -57.5s-62.334 -16.5 -101.001 -16.5c-16.667 0 -33.334 1.33301 -50.001 4s-31.334 6.66699 -44.001 12l14 106
c2.66699 0 7.33398 -0.666992 14.001 -2l21 -4l21.5 -4c7 -1.33301 12.833 -2 17.5 -2c21.333 0 39.666 3.33301 54.999 10s29.5 19 42.5 37s26 43.333 39 76s27.833 75 44.5 127l-322 1050h137l245 -858l256 858h137l-330 -1050h1z" />
    <glyph glyph-name="z" unicode="z" horiz-adv-x="989" 
d="M170 1000h684v-102l-550 -788h587l-27 -110h-700l-1 116l529 774h-522v110z" />
    <glyph glyph-name="braceleft" unicode="{" horiz-adv-x="648" 
d="M88 644c24 0 46.667 3.5 68 10.5s40 19.833 56 38.5s28.5 44 37.5 76s13.5 73 13.5 123v220c0 72.667 4.33301 136 13 190s23 99 43 135s46.5 62.833 79.5 80.5s73.833 26.5 122.5 26.5l14 -76c-50 0 -85.667 -28.833 -107 -86.5s-32 -147.5 -32 -269.5v-220
c0 -46.667 -4 -87 -12 -121s-19.833 -63 -35.5 -87s-35 -43.333 -58 -58s-49.167 -25.667 -78.5 -33c29.333 -7.33301 55.5 -18.333 78.5 -33s42.333 -34 58 -58s27.5 -53 35.5 -87s12 -74.333 12 -121v-272c0 -121.333 10.667 -211 32 -269s57 -87 107 -87l-14 -76
c-48.667 0 -89.5 8.83301 -122.5 26.5s-59.5 44.5 -79.5 80.5s-34.333 81 -43 135s-13 117.333 -13 190v272c0 50 -4.5 91 -13.5 123s-21.5 57.333 -37.5 76s-34.667 31.5 -56 38.5s-44 10.5 -68 10.5v102z" />
    <glyph glyph-name="bar" unicode="|" horiz-adv-x="374" 
d="M125 1524h133v-1824h-133v1824z" />
    <glyph glyph-name="braceright" unicode="}" horiz-adv-x="648" 
d="M563 490c-24.667 0 -47.167 -3.5 -67.5 -10.5s-37.666 -19.833 -51.999 -38.5s-25.5 -44 -33.5 -76s-12 -73 -12 -123v-220c0 -145.333 -20.667 -253.666 -62 -324.999s-110 -107 -206 -107l-15 76c50 0 87.333 29 112 87s37 147.667 37 269v220
c0 46.667 3.66699 87 11 121s18.333 63 33 87s33 43.333 55 58s47.333 25.667 76 33c-28.667 7.33301 -54 18.333 -76 33s-40.333 34 -55 58s-25.667 53 -33 87s-11 74.333 -11 121v272c0 122.667 -12.333 212.667 -37 270s-62 86 -112 86l15 76
c96 0 164.667 -35.833 206 -107.5s62 -179.834 62 -324.501v-272c0 -50 4 -91 12 -123s19.167 -57.333 33.5 -76s31.666 -31.5 51.999 -38.5s42.833 -10.5 67.5 -10.5v-102z" />
    <glyph glyph-name="asciitilde" unicode="~" horiz-adv-x="1239" 
d="M568 488c-32.667 28 -63.9971 49.666 -93.9971 64.999s-61 23 -93 23c-14 0 -28.833 -2.5 -44.5 -7.5s-31 -14.5 -46 -28.5s-29.333 -33.667 -43 -59s-24.834 -58.333 -33.501 -99l-111 28c8.66699 52.667 23.667 96.834 45 132.501s45.333 64 72 85s54.5 36 83.5 45
s56.167 13.5 81.5 13.5c30.667 0 58.167 -3.16699 82.5 -9.5s47 -15 68 -26s41.5 -24.167 61.5 -39.5l64 -51c33.333 -27.333 65.666 -48.5 96.999 -63.5s61 -22.5 89 -22.5c14 0 29 2.33301 45 7s31.667 14 47 28s29.666 33.5 42.999 58.5s24.333 57.833 33 98.5l109 -28
c-9.33301 -52.667 -24.333 -96.5 -45 -131.5s-44.167 -63 -70.5 -84s-53.666 -36 -81.999 -45s-54.833 -13.5 -79.5 -13.5c-31.333 0 -59.333 3 -84 9s-47.834 14.5 -69.501 25.5s-42.5 24 -62.5 39s-41 31.833 -63 50.5z" />
    <glyph glyph-name="exclamdown" unicode="&#xa1;" horiz-adv-x="515" 
d="M327.012 -359.917h-133.992v975.94h133.992v-975.94zM334.012 874.008h-148.991v125.992h148.991v-125.992z" />
    <glyph glyph-name="cent" unicode="&#xa2;" horiz-adv-x="1045" 
d="M128 502c0 72 7.99805 137.669 23.998 197.002s39.167 111.166 69.5 155.499s67.5 80.333 111.5 108s94 45.167 150 52.5v177h119v-174c40 -3.33301 75.167 -9.33301 105.5 -18s56.833 -20 79.5 -34l-44 -98l-33 14.5c-11.333 5 -24.166 9.5 -38.499 13.5
s-30.5 7.33301 -48.5 10s-39 4 -63 4c-44.667 0 -85.334 -7.83301 -122.001 -23.5s-68.167 -40 -94.5 -73s-46.666 -75.333 -60.999 -127s-21.5 -113.167 -21.5 -184.5s7 -133 21 -185s34 -94.833 60 -128.5s57.167 -58.5 93.5 -74.5s76.833 -24 121.5 -24
c50 0 92.667 5.5 128 16.5s66 23.5 92 37.5l44 -98c-25.333 -19.333 -56.166 -34.5 -92.499 -45.5s-78.5 -17.5 -126.5 -19.5v-215h-119v221c-56 10 -106 29.167 -150 57.5s-81.167 64.666 -111.5 108.999s-53.5 96 -69.5 155s-24 123.5 -24 193.5z" />
    <glyph glyph-name="sterling" unicode="&#xa3;" horiz-adv-x="1032" 
d="M86 730l154.005 0.00195312v264c0 70 7.5 129.5 22.5 178.5s37.333 88.833 67 119.5s66.667 53 111 67s96.166 21 155.499 21c18 0 36.667 -0.833008 56 -2.5s38.166 -3.83398 56.499 -6.50098s36 -5.83398 53 -9.50098s32.5 -7.5 46.5 -11.5l-4 -102
c-11.333 2.66699 -24.833 5.33398 -40.5 8.00098s-32.334 5 -50.001 7s-35.834 3.66699 -54.501 5s-36.334 2 -53.001 2c-41.333 0 -76.666 -4.83301 -105.999 -14.5s-53.5 -25.334 -72.5 -47.001s-32.833 -50.167 -41.5 -85.5s-13 -78.333 -13 -129v-264h336v-110h-336
v-242c0 -63.333 -8.83301 -115.833 -26.5 -157.5s-43.5 -78.5 -77.5 -110.5h580v-110h-787v110h5l-3 2c30 0 56.167 8.66699 78.5 26s40.666 39.5 54.999 66.5s25 57.167 32 90.5s10.5 66.333 10.5 99v226h-179z" />
    <glyph glyph-name="currency" unicode="&#xa4;" horiz-adv-x="1270" 
d="M312 983c39.333 32 82.998 56.5 130.998 73.5s99.667 25.5 155 25.5s107 -8.5 155 -25.5s91.667 -41.5 131 -73.5l148 153l86 -80l-152 -158c36 -46.667 63.667 -100 83 -160s29 -125.333 29 -196c0 -71.333 -10.167 -137.5 -30.5 -198.5s-48.5 -115.167 -84.5 -162.5
l155 -161l-86 -80l-152 157c-39.333 -30.667 -82.666 -54.167 -129.999 -70.5s-98 -24.5 -152 -24.5s-104.667 8.33301 -152 25s-90.666 40 -129.999 70l-152 -157l-85 80l155 161c-36 47.333 -64 101.5 -84 162.5s-30 127.167 -30 198.5c0 70.667 9.5 136 28.5 196
s46.5 113.667 82.5 161l-152 157l85 80zM597.998 112c49.333 0 96 9.66699 140 29s82.5 47.333 115.5 84s59.167 81.667 78.5 135s29 114 29 182s-9.66699 128.667 -29 182s-45.5 98.333 -78.5 135s-71.5 64.667 -115.5 84s-90.667 29 -140 29s-96 -9.66699 -140 -29
s-82.333 -47.333 -115 -84s-58.5 -81.667 -77.5 -135s-28.5 -114 -28.5 -182s9.5 -128.667 28.5 -182s44.833 -98.333 77.5 -135s71 -64.667 115 -84s90.667 -29 140 -29z" />
    <glyph glyph-name="yen" unicode="&#xa5;" horiz-adv-x="1040" 
d="M542 648l294 712h143l-322 -760h254v-110h-301v-158h301v-110h-301v-222h-133v222h-291v110h291v154l-2 4h-289v110h243l-323 760h144z" />
    <glyph glyph-name="brokenbar" unicode="&#xa6;" horiz-adv-x="352" 
d="M104 528h125v-828h-125v828zM229 756h-125v768h125v-768z" />
    <glyph glyph-name="section" unicode="&#xa7;" horiz-adv-x="1027" 
d="M890 -110c0 -55.333 -8.66602 -104.663 -25.999 -147.996s-41.666 -79.833 -72.999 -109.5s-69.5 -52.167 -114.5 -67.5s-94.833 -23 -149.5 -23c-35.333 0 -69.833 1.83301 -103.5 5.5s-65.834 8.5 -96.501 14.5s-58.834 13.167 -84.501 21.5s-47.5 17.166 -65.5 26.499
l25 108c24 -9.33301 47.833 -18 71.5 -26s48.5 -15 74.5 -21s53.667 -10.667 83 -14s61.666 -5 96.999 -5c33.333 0 64 4.5 92 13.5s52.167 23 72.5 42s36.166 43 47.499 72s17 63.833 17 104.5c0 36.667 -8.33301 69.667 -25 99s-39.834 55.666 -69.501 78.999
s-65.167 44.333 -106.5 63s-86.666 35.667 -135.999 51c-50 14 -95.167 33.167 -135.5 57.5s-75 52.833 -104 85.5s-51.333 68.667 -67 108s-23.5 81 -23.5 125c0 62 11.5 115.167 34.5 159.5s55.5 81.5 97.5 111.5c-24.667 29.333 -43.667 61.333 -57 96s-20 73 -20 115
c0 56 8.66699 105.667 26 149s42.333 80 75 110s72.834 52.667 120.501 68s101.5 23 161.5 23c36 0 70.333 -2.5 103 -7.5s63 -11 91 -18s53.167 -14.5 75.5 -22.5s40.5 -15.333 54.5 -22l-32 -108c-20 8.66699 -40.333 17 -61 25s-42.5 15.167 -65.5 21.5
s-48.167 11.5 -75.5 15.5s-57.666 6 -90.999 6c-166 0 -249 -76.667 -249 -230c0 -30.667 5.33301 -59.834 16 -87.501s27.667 -53.834 51 -78.501s53.833 -47.667 91.5 -69s83.5 -40.333 137.5 -57c122 -42 214 -96.667 276 -164s93 -149.333 93 -246
c0 -56.667 -10.5 -106.667 -31.5 -150s-49.833 -80.333 -86.5 -111c21.333 -27.333 37.5 -56.5 48.5 -87.5s16.5 -65.5 16.5 -103.5zM508.001 652.003c-37.333 11.333 -72.499 24.499 -105.499 39.499s-63.5 32.167 -91.5 51.5c-28.667 -19.333 -50.834 -43.333 -66.501 -72
s-23.5 -65 -23.5 -109c0 -27.333 4.83301 -54.666 14.5 -81.999s25 -53.666 46 -78.999s48 -48.833 81 -70.5s72.5 -39.834 118.5 -54.501c52 -16.667 99.333 -34.5 142 -53.5s80.667 -39.833 114 -62.5c23.333 20 41.833 44.5 55.5 73.5s20.5 63.167 20.5 102.5
c0 36.667 -7 71 -21 103s-34.167 61.167 -60.5 87.5s-58.333 50 -96 71s-80.167 39.167 -127.5 54.5z" />
    <glyph glyph-name="dieresis" unicode="&#xa8;" horiz-adv-x="828" 
d="M124 1396h174v-170h-174v170zM538 1396h176v-170h-176v170z" />
    <glyph glyph-name="copyright" unicode="&#xa9;" horiz-adv-x="1546" 
d="M451 670c0 60.667 7.16406 115.501 21.4971 164.501s35.166 90.833 62.499 125.5s61 61.334 101 80.001s85.667 28 137 28c50.667 0 93.334 -5.83301 128.001 -17.5s64.334 -26.5 89.001 -44.5l-29 -98c-10 6.66699 -20.333 13 -31 19s-23 11.333 -37 16
s-30.167 8.33398 -48.5 11.001s-40.166 4 -65.499 4c-63.333 0 -113.666 -22.833 -150.999 -68.5s-56 -118.834 -56 -219.501c0 -50.667 5 -94.334 15 -131.001s24 -67 42 -91s39.833 -41.667 65.5 -53s54.167 -17 85.5 -17c26 0 49.333 1.5 70 4.5s39.5 7 56.5 12
s32.5 10.667 46.5 17s27.667 13.166 41 20.499l31 -90c-25.333 -20 -56.5 -37.333 -93.5 -52s-81.5 -22 -133.5 -22c-55.333 0 -104.5 9.66699 -147.5 29s-79.333 46.5 -109 81.5s-52.167 77.167 -67.5 126.5s-23 104.333 -23 165zM773.997 1380
c87.333 0 168.5 -16.333 243.5 -49s140 -79.334 195 -140.001s98.167 -134.167 129.5 -220.5s47 -183.166 47 -290.499s-15.667 -204.166 -47 -290.499s-74.5 -159.833 -129.5 -220.5s-120 -107.334 -195 -140.001s-156.167 -49 -243.5 -49c-88 0 -169.5 16.333 -244.5 49
s-140 79.334 -195 140.001s-98.167 134.167 -129.5 220.5s-47 183.166 -47 290.499s15.667 204.166 47 290.499s74.5 159.833 129.5 220.5s120 107.334 195 140.001s156.5 49 244.5 49zM773.997 76.001c70.667 0 137 12.167 199 36.5s116.167 61.5 162.5 111.5
s82.833 112.833 109.5 188.5s40 164.834 40 267.501s-13.333 191.834 -40 267.501s-63.167 138.5 -109.5 188.5s-100.5 87.167 -162.5 111.5s-128.333 36.5 -199 36.5c-71.333 0 -138 -12.167 -200 -36.5s-116 -61.5 -162 -111.5s-82.333 -112.833 -109 -188.5
s-40 -164.834 -40 -267.501s13.333 -191.834 40 -267.501s63 -138.5 109 -188.5s100 -87.167 162 -111.5s128.667 -36.5 200 -36.5z" />
    <glyph glyph-name="ordfeminine" unicode="&#xaa;" horiz-adv-x="753" 
d="M492 1080l-0.00292969 19.999c0 32.667 -2.83301 60 -8.5 82s-13.834 39.5 -24.501 52.5s-24.167 22.167 -40.5 27.5s-34.833 8 -55.5 8c-36 0 -73.333 -4.33301 -112 -13s-72.334 -19.667 -101.001 -33l-29 94c16 9.33301 34 17.833 54 25.5s41 14.167 63 19.5
s44.5 9.5 67.5 12.5s45.5 4.5 67.5 4.5c36 0 69 -4.33301 99 -13s55.833 -23.5 77.5 -44.5s38.334 -49.667 50.001 -86s17.5 -81.833 17.5 -136.5v-432h-102l-14 80c-11.333 -10.667 -24.166 -21.667 -38.499 -33s-30.166 -21.5 -47.499 -30.5s-35.666 -16.333 -54.999 -22
s-39.666 -8.5 -60.999 -8.5c-38.667 0 -71.834 5.66699 -99.501 17s-50.5 26.833 -68.5 46.5s-31.333 42.334 -40 68.001s-13 53.167 -13 82.5c0 28.667 6.66699 56 20 82s32.333 48.5 57 67.5s54.334 34.167 89.001 45.5s73.667 17 117 17h131zM322.997 763.999
c15.333 0 30.8311 2.33105 46.498 6.99805s30.834 10.667 45.501 18s28.5 15.5 41.5 24.5s24.833 17.833 35.5 26.5v142h-117c-36 0 -65.333 -4.66699 -88 -14s-40.167 -20.666 -52.5 -33.999s-20.666 -27.166 -24.999 -41.499s-6.5 -26.5 -6.5 -36.5
c0 -31.333 11.5 -54.5 34.5 -69.5s51.5 -22.5 85.5 -22.5z" />
    <glyph glyph-name="guillemotleft" unicode="&#xab;" horiz-adv-x="943" 
d="M471 112l-75 -70l-298 392v84l298 400l75 -70l-245 -372zM857 112l-75 -70l-298 392v84l298 400l75 -70l-245 -372z" />
    <glyph glyph-name="logicalnot" unicode="&#xac;" horiz-adv-x="1067" 
d="M101 610v110h857v-350h-128v240h-729z" />
    <glyph glyph-name="uni00AD" unicode="&#xad;" horiz-adv-x="1024" 
d="M85 610v110h859v-110h-859z" />
    <glyph glyph-name="registered" unicode="&#xae;" horiz-adv-x="1548" 
d="M774 1380c86 0 166 -16.333 240 -49s138 -79.334 192 -140.001s96.333 -134.167 127 -220.5s46 -183.166 46 -290.499s-15.333 -204.166 -46 -290.499s-73 -159.833 -127 -220.5s-118 -107.334 -192 -140.001s-154 -49 -240 -49s-165.833 16.333 -239.5 49
s-137.5 79.334 -191.5 140.001s-96.333 134.167 -127 220.5s-46 183.166 -46 290.499s15.333 204.166 46 290.499s73 159.833 127 220.5s117.833 107.334 191.5 140.001s153.5 49 239.5 49zM774 76c68.667 0 133.5 12.167 194.5 36.5s114.167 61.5 159.5 111.5
s81.166 112.833 107.499 188.5s39.5 164.834 39.5 267.501s-13.167 191.834 -39.5 267.501s-62.166 138.5 -107.499 188.5s-98.5 87.167 -159.5 111.5s-125.833 36.5 -194.5 36.5c-69.333 0 -134.333 -12.167 -195 -36.5s-113.5 -61.5 -158.5 -111.5
s-80.5 -112.833 -106.5 -188.5s-39 -164.834 -39 -267.501s13 -191.834 39 -267.501s61.5 -138.5 106.5 -188.5s97.833 -87.167 158.5 -111.5s125.667 -36.5 195 -36.5zM537 1054h254.001c34.667 0 67 -4.5 97 -13.5s56 -22.833 78 -41.5s39.333 -42.5 52 -71.5
s19 -63.5 19 -103.5c0 -22.667 -3.5 -43.5 -10.5 -62.5s-16.667 -36.333 -29 -52s-26.833 -29.5 -43.5 -41.5s-34.334 -22 -53.001 -30l149 -306h-113l-136 284h-154v-284h-110v722zM647.001 956v-242h179c10.667 2 22 5.33301 34 10s23 11.167 33 19.5s18.333 19 25 32
s10 29.167 10 48.5c0 48 -13.167 82 -39.5 102s-63.833 30 -112.5 30h-129z" />
    <glyph glyph-name="macron" unicode="&#xaf;" horiz-adv-x="879" 
d="M111 1402h661v-108h-661v108z" />
    <glyph glyph-name="degree" unicode="&#xb0;" horiz-adv-x="631" 
d="M316 1376c30 0 58.333 -6 85 -18s50 -28.167 70 -48.5s35.667 -44.333 47 -72s17 -56.834 17 -87.501c0 -31.333 -5.66699 -60.666 -17 -87.999s-27 -51.5 -47 -72.5s-43.333 -37.5 -70 -49.5s-55 -18 -85 -18c-29.333 0 -57.166 6 -83.499 18s-49.166 28.5 -68.499 49.5
s-34.666 45.167 -45.999 72.5s-17 56.666 -17 87.999c0 30.667 5.66699 59.834 17 87.501s26.666 51.667 45.999 72s42.166 36.5 68.499 48.5s54.166 18 83.499 18zM316 1032c16 0 31 3.16699 45 9.5s26.167 14.833 36.5 25.5s18.5 23.167 24.5 37.5s9 29.5 9 45.5
c0 16.667 -3 32 -9 46s-14.167 26.167 -24.5 36.5s-22.5 18.5 -36.5 24.5s-29 9 -45 9c-14.667 0 -28.834 -3 -42.501 -9s-25.834 -14.167 -36.501 -24.5s-19.167 -22.5 -25.5 -36.5s-9.5 -29.333 -9.5 -46c0 -16 3.16699 -31.167 9.5 -45.5s14.833 -26.833 25.5 -37.5
s22.834 -19.167 36.501 -25.5s27.834 -9.5 42.501 -9.5z" />
    <glyph glyph-name="plusminus" unicode="&#xb1;" horiz-adv-x="912" 
d="M389 524h-285v110h285v316h124v-316h289v-110h-289v-318h-124v318zM91 0v110h743v-110h-743z" />
    <glyph glyph-name="twosuperior" unicode="&#xb2;" horiz-adv-x="661" 
d="M561 760l0.000976562 -92h-455v34c0 44.667 4 83.667 12 117s20.5 63 37.5 89s39.167 49.333 66.5 70s60.666 40.667 99.999 60c24.667 10.667 44.834 21.5 60.501 32.5s28 22.5 37 34.5s15.167 24.333 18.5 37s5 26 5 40c0 33.333 -10.333 59.333 -31 78s-51 28 -91 28
c-34.667 0 -65.667 -6.5 -93 -19.5s-55.333 -28.5 -84 -46.5l-33 80c11.333 8 24.333 16.5 39 25.5s31 17.5 49 25.5s37.333 14.5 58 19.5s42.667 7.5 66 7.5c70.667 0 125.5 -17.5 164.5 -52.5s58.5 -84.833 58.5 -149.5c0 -27.333 -5.16699 -52 -15.5 -74s-24 -42 -41 -60
s-36.667 -34.333 -59 -49s-45.5 -27.667 -69.5 -39c-21.333 -13.333 -40.833 -26.5 -58.5 -39.5s-32.834 -27.167 -45.501 -42.5s-23 -32.333 -31 -51s-13.333 -39.667 -16 -63h351z" />
    <glyph glyph-name="threesuperior" unicode="&#xb3;" horiz-adv-x="622" 
d="M519 1176c0 -75.333 -33.6641 -126.997 -100.997 -154.997c79.333 -28.667 119 -83.667 119 -165c0 -62 -22.167 -112.167 -66.5 -150.5s-110.166 -57.5 -197.499 -57.5c-37.333 0 -74.5 4.16699 -111.5 12.5s-70.833 22.166 -101.5 41.499l27 74c30 -12 59 -22 87 -30
s59 -12 93 -12c51.333 0 92.166 9.66699 122.499 29s45.5 49.666 45.5 90.999c0 43.333 -14.167 74.833 -42.5 94.5s-67.166 29.5 -116.499 29.5h-129v86h129c44 0 78.333 9.16699 103 27.5s37 47.166 37 86.499c0 41.333 -13.5 70.666 -40.5 87.999s-63.5 26 -109.5 26
c-32.667 0 -62.334 -4 -89.001 -12s-54.334 -18.667 -83.001 -32l-27 74c13.333 10 29.166 18.667 47.499 26s37.166 13.333 56.499 18s38 8.16699 56 10.5s33.667 3.5 47 3.5c81.333 0 142.5 -18.167 183.5 -54.5s61.5 -86.166 61.5 -149.499z" />
    <glyph glyph-name="acute" unicode="&#xb4;" horiz-adv-x="525" 
d="M315 1426l151 -66l-235 -248l-103 40z" />
    <glyph glyph-name="mu" unicode="&#xb5;" horiz-adv-x="1059" 
d="M315 286c0.666992 -36 5 -66.499 13 -91.499s20.333 -45.333 37 -61s37.5 -26.834 62.5 -33.501s54.833 -10 89.5 -10c45.333 0 88 10.833 128 32.5s78.333 49.5 115 83.5v794h134v-1000h-128l-5 116c-38 -41.333 -79.333 -74.333 -124 -99s-92 -37 -142 -37
c-37.333 0 -71 3.83301 -101 11.5s-56.333 20.5 -79 38.5v-430h-133v1400h133v-714z" />
    <glyph glyph-name="mu" unicode="&#x3bc;" horiz-adv-x="1059" 
d="M315 286c0.666992 -36 5 -66.499 13 -91.499s20.333 -45.333 37 -61s37.5 -26.834 62.5 -33.501s54.833 -10 89.5 -10c45.333 0 88 10.833 128 32.5s78.333 49.5 115 83.5v794h134v-1000h-128l-5 116c-38 -41.333 -79.333 -74.333 -124 -99s-92 -37 -142 -37
c-37.333 0 -71 3.83301 -101 11.5s-56.333 20.5 -79 38.5v-430h-133v1400h133v-714z" />
    <glyph glyph-name="paragraph" unicode="&#xb6;" horiz-adv-x="920" 
d="M753 0h-133v520h-60c-72.667 0 -137.167 10 -193.5 30s-104 48.5 -143 85.5s-68.667 81.5 -89 133.5s-30.5 109.667 -30.5 173s10.167 120.833 30.5 172.5s50 95.667 89 132s86.667 64.333 143 84s120.833 29.5 193.5 29.5h193v-1360z" />
    <glyph glyph-name="periodcentered" unicode="&#xb7;" horiz-adv-x="400" 
d="M131 156h167v-156h-167v156z" />
    <glyph glyph-name="cedilla" unicode="&#xb8;" horiz-adv-x="538" 
d="M436 12c19.333 -42.667 29 -85.666 29 -128.999c0 -33.333 -6 -65.333 -18 -96s-30 -57.334 -54 -80.001s-54 -40.167 -90 -52.5s-78 -17.166 -126 -14.499l-22 86c34 0.666992 63 5.16699 87 13.5s43.5 19.5 58.5 33.5s26 30.333 33 49s10.5 38.667 10.5 60
c0 22.667 -3.5 46.167 -10.5 70.5s-16.5 48.166 -28.5 71.499z" />
    <glyph glyph-name="onesuperior" unicode="&#xb9;" horiz-adv-x="442" 
d="M79 668v86h107v510l-113 -36v90l161 62h53v-626h103v-86h-311z" />
    <glyph glyph-name="ordmasculine" unicode="&#xba;" horiz-adv-x="773" 
d="M103 1018c0 56 6.66699 106.333 20 151s32.333 82.667 57 114s54.667 55.333 90 72s74.666 25 117.999 25c44 0 84.167 -8.33301 120.5 -25s67.5 -40.667 93.5 -72s46.167 -69.333 60.5 -114s21.5 -95 21.5 -151s-7.16699 -106.333 -21.5 -151s-34.5 -82.667 -60.5 -114
s-57.167 -55.333 -93.5 -72s-76.5 -25 -120.5 -25c-43.333 0 -82.666 8.33301 -117.999 25s-65.333 40.667 -90 72s-43.667 69.333 -57 114s-20 95 -20 151zM228 1018c0 -44 4 -81.833 12 -113.5s19 -57.834 33 -78.501s30.833 -35.834 50.5 -45.501
s41.167 -14.5 64.5 -14.5c24.667 0 47.667 4.83301 69 14.5s39.5 24.834 54.5 45.501s26.833 46.834 35.5 78.501s13 69.5 13 113.5c0 44.667 -4.33301 82.834 -13 114.501s-20.5 57.667 -35.5 78s-33.167 35.333 -54.5 45s-44.333 14.5 -69 14.5
c-23.333 0 -44.833 -4.83301 -64.5 -14.5s-36.5 -24.667 -50.5 -45s-25 -46.333 -33 -78s-12 -69.834 -12 -114.501z" />
    <glyph glyph-name="guillemotright" unicode="&#xbb;" horiz-adv-x="944" 
d="M92 848l77 70l296 -392v-84l-296 -400l-77 70l245 371zM479 848l77 70l296 -392v-84l-296 -400l-77 70l245 371z" />
    <glyph glyph-name="onequarter" unicode="&#xbc;" horiz-adv-x="1242" 
d="M111 668v86h107v510l-113 -36v90l161 62h53v-626h103v-86h-311zM975 1360h105l-797 -1360h-109zM1097 157v-156h-102v156h-359v66l354 490h107v-468h90v-88h-90zM995 245v333l-239 -333h239z" />
    <glyph glyph-name="onehalf" unicode="&#xbd;" horiz-adv-x="1353" 
d="M1226 91l0.000976562 -92h-455v34c0 44.667 4 83.667 12 117s20.5 63 37.5 89s39.167 49.333 66.5 70s60.666 40.667 99.999 60c24.667 10.667 44.834 21.5 60.501 32.5s28 22.5 37 34.5s15.167 24.333 18.5 37s5 26 5 40c0 33.333 -10.333 59.333 -31 78s-51 28 -91 28
c-34.667 0 -65.667 -6.5 -93 -19.5s-55.333 -28.5 -84 -46.5l-33 80c11.333 8 24.333 16.5 39 25.5s31 17.5 49 25.5s37.333 14.5 58 19.5s42.667 7.5 66 7.5c70.667 0 125.5 -17.5 164.5 -52.5s58.5 -84.833 58.5 -149.5c0 -27.333 -5.16699 -52 -15.5 -74s-24 -42 -41 -60
s-36.667 -34.333 -59 -49s-45.5 -27.667 -69.5 -39c-21.333 -13.333 -40.833 -26.5 -58.5 -39.5s-32.834 -27.167 -45.501 -42.5s-23 -32.333 -31 -51s-13.333 -39.667 -16 -63h351zM111.001 668v86h107v510l-113 -36v90l161 62h53v-626h103v-86h-311zM979.001 1360h105
l-797 -1360h-109z" />
    <glyph glyph-name="threequarters" unicode="&#xbe;" horiz-adv-x="1252" 
d="M519 1176c0 -75.333 -33.6641 -126.997 -100.997 -154.997c79.333 -28.667 119 -83.667 119 -165c0 -62 -22.167 -112.167 -66.5 -150.5s-110.166 -57.5 -197.499 -57.5c-37.333 0 -74.5 4.16699 -111.5 12.5s-70.833 22.166 -101.5 41.499l27 74c30 -12 59 -22 87 -30
s59 -12 93 -12c51.333 0 92.166 9.66699 122.499 29s45.5 49.666 45.5 90.999c0 43.333 -14.167 74.833 -42.5 94.5s-67.166 29.5 -116.499 29.5h-129v86h129c44 0 78.333 9.16699 103 27.5s37 47.166 37 86.499c0 41.333 -13.5 70.666 -40.5 87.999s-63.5 26 -109.5 26
c-32.667 0 -62.334 -4 -89.001 -12s-54.334 -18.667 -83.001 -32l-27 74c13.333 10 29.166 18.667 47.499 26s37.166 13.333 56.499 18s38 8.16699 56 10.5s33.667 3.5 47 3.5c81.333 0 142.5 -18.167 183.5 -54.5s61.5 -86.166 61.5 -149.499zM1015 1360h105l-797 -1360
h-109zM1111 157.003v-156h-102v156h-359v66l354 490h107v-468h90v-88h-90zM1009 245.003v333l-239 -333h239z" />
    <glyph glyph-name="questiondown" unicode="&#xbf;" horiz-adv-x="939" 
d="M627.021 644.021c0 -51.3301 -2.66699 -96.8252 -8 -136.489c-5.33301 -39.665 -13.666 -75.4961 -24.999 -107.493c-11.333 -31.999 -26.165 -60.9971 -44.4971 -86.9951c-18.332 -25.999 -40.4971 -51.6641 -66.4961 -76.9951l-72.9951 -68.9961
c-21.999 -21.332 -40.8311 -42.6641 -56.4971 -63.9961c-15.665 -21.332 -27.6641 -43.6641 -35.9971 -66.9961s-12.499 -49.3301 -12.499 -77.9951c0 -31.998 4.66602 -61.4961 13.999 -88.4941c9.33301 -26.999 23.499 -50.498 42.498 -70.4971
s43.3311 -35.498 72.9961 -46.4971s64.4961 -16.499 104.494 -16.499c30.665 0 59.1631 3.33301 85.4941 9.99902c26.332 6.66699 51.1641 15.5 74.4961 26.499c23.3311 10.999 45.8291 23.665 67.4941 37.9971c21.665 14.333 43.1641 29.499 64.4961 45.498
l45.9971 -93.9951c-17.332 -14.665 -38.1641 -29.9971 -62.4961 -45.9961c-24.3311 -15.999 -51.4961 -30.665 -81.4951 -43.998c-29.998 -13.333 -62.3291 -24.332 -96.9941 -32.998c-34.6641 -8.66602 -70.9951 -12.999 -108.993 -12.999
c-55.3301 0 -104.993 7.66602 -148.99 22.998c-43.9971 15.333 -81.1611 36.998 -111.492 64.9961c-30.332 27.999 -53.6641 62.1641 -69.9961 102.495s-24.498 85.4951 -24.498 135.492c0 46.6631 8.33301 89.1602 24.998 127.491s37.8301 73.4951 63.4951 105.493
s53.4971 61.6631 83.4951 88.9941l83.9951 77.9951c14.665 14.666 26.6641 30.832 35.9971 48.498c9.33301 17.665 16.499 38.1641 21.499 61.4961c4.99902 23.3311 8.49902 49.8291 10.499 79.4941s3 63.8291 3 102.493h127.992zM640.019 842.012h-147.99v157.99h147.99
v-157.99z" />
    <glyph glyph-name="Agrave" unicode="&#xc0;" horiz-adv-x="1177" 
d="M830 422h-477l-132 -422h-136l434 1360h141l439 -1360h-137zM387 532h408l-204 652zM634 1506l-101 -34l-235 248l150 66z" />
    <glyph glyph-name="Aacute" unicode="&#xc1;" horiz-adv-x="1177" 
d="M830 422h-477l-132 -422h-136l434 1360h141l439 -1360h-137zM387 532h408l-204 652zM688 1788l151 -66l-235 -248l-103 40z" />
    <glyph glyph-name="Acircumflex" unicode="&#xc2;" horiz-adv-x="1177" 
d="M830 422h-477l-132 -422h-136l434 1360h141l439 -1360h-137zM387 532h408l-204 652zM452 1472h-167l260 232h94l258 -232h-166l-139 117z" />
    <glyph glyph-name="Atilde" unicode="&#xc3;" horiz-adv-x="1177" 
d="M830 422h-477l-132 -422h-136l434 1360h141l439 -1360h-137zM387 532h408l-204 652zM704 1596c18.667 0 38.168 8.16797 58.501 24.501s35.5 40.166 45.5 71.499l85 -66c-8 -24 -18.5 -45.333 -31.5 -64s-27 -34.667 -42 -48s-30.667 -24 -47 -32
s-31.833 -13.333 -46.5 -16c-6 -1.33301 -12.167 -2.33301 -18.5 -3s-12.166 -1 -17.499 -1c-30.667 0 -58.334 7.66699 -83.001 23s-48.334 32.333 -71.001 51c-18 15.333 -34.667 26.5 -50 33.5s-28.666 10.5 -39.999 10.5c-9.33301 -0.666992 -18 -2.16699 -26 -4.5
s-16 -6.83301 -24 -13.5s-16.167 -16 -24.5 -28s-17.5 -27.333 -27.5 -46l-85 60c7.33301 23.333 17.5 44.333 30.5 63s27.167 34.667 42.5 48s31.166 24.333 47.499 33s32.166 14.667 47.499 18c10 2 19.667 3 29 3c31.333 0 59.833 -7.83301 85.5 -23.5
s50.167 -32.834 73.5 -51.501c16.667 -16 32.834 -26.667 48.501 -32s29.167 -8.66602 40.5 -9.99902z" />
    <glyph glyph-name="Adieresis" unicode="&#xc4;" horiz-adv-x="1177" 
d="M830 422h-477l-132 -422h-136l434 1360h141l439 -1360h-137zM387 532h408l-204 652zM298 1642h174v-170h-174v170zM712 1642h176v-170h-176v170z" />
    <glyph glyph-name="Aring" unicode="&#xc5;" horiz-adv-x="1177" 
d="M830 422h-477l-132 -422h-136l434 1360h141l439 -1360h-137zM387 532h408l-204 652zM576 1860c25.333 0 49.166 -5.16699 71.499 -15.5s42 -24.333 59 -42s30.5 -38.167 40.5 -61.5s15 -48.333 15 -75c0 -27.333 -5 -52.333 -15 -75s-23.5 -42.5 -40.5 -59.5
s-36.667 -30.167 -59 -39.5s-46.166 -14 -71.499 -14s-49.333 4.66699 -72 14s-42.5 22.5 -59.5 39.5s-30.5 36.833 -40.5 59.5s-15 47.667 -15 75c0 26.667 5 51.667 15 75s23.5 43.833 40.5 61.5s36.833 31.667 59.5 42s46.667 15.5 72 15.5zM576 1588
c21.333 0 38.667 7.66797 52 23.001s20 33.666 20 54.999c0 22 -6.66699 41.5 -20 58.5s-30.666 25.5 -51.999 25.5c-9.33301 0 -18.5 -2.33301 -27.5 -7s-17 -10.834 -24 -18.501s-12.667 -16.667 -17 -27s-6.5 -20.833 -6.5 -31.5c0 -21.333 7.66699 -39.666 23 -54.999
s32.666 -23 51.999 -23z" />
    <glyph glyph-name="AE" unicode="&#xc6;" horiz-adv-x="1690" 
d="M917 370h-438l-204 -370l-159 2l262 470v8h4l491 880h714v-110h-536v-492h479v-110h-479v-538h536v-110h-670v370zM917 480v681l-377 -681h377z" />
    <glyph glyph-name="Ccedilla" unicode="&#xc7;" horiz-adv-x="1023" 
d="M119 682c0 105.333 12.3359 201.003 37.0029 287.003s60 159.5 106 220.5s101.833 108 167.5 141s139.5 49.5 221.5 49.5c59.333 0 109.833 -7.33301 151.5 -22s77.167 -31 106.5 -49l-42 -95c-30 17.333 -63.667 31 -101 41s-77 15 -119 15
c-58 0 -111.333 -11.333 -160 -34s-90.334 -57.834 -125.001 -105.501s-61.667 -108.667 -81 -183s-29 -162.833 -29 -265.5c0 -103.333 10.333 -192.166 31 -266.499s49.667 -135.666 87 -183.999s81.666 -84 132.999 -107s108 -34.5 170 -34.5
c26 0 50.167 2.16699 72.5 6.5s43.166 9.66602 62.499 15.999s37 13.166 53 20.499s30.333 14.333 43 21l34 -92c-30 -23.333 -68 -42.833 -114 -58.5s-101.333 -23.5 -166 -23.5c-82.667 0 -157.167 16.833 -223.5 50.5s-122.833 81.167 -169.5 142.5
s-82.667 135.166 -108 221.499s-38 182.166 -38 287.499zM727.003 12.0029c19.333 -42.667 29 -85.666 29 -128.999c0 -33.333 -6 -65.333 -18 -96s-30 -57.334 -54 -80.001s-54 -40.167 -90 -52.5s-78 -17.166 -126 -14.499l-22 86c34 0.666992 63 5.16699 87 13.5
s43.5 19.5 58.5 33.5s26 30.333 33 49s10.5 38.667 10.5 60c0 22.667 -3.5 46.167 -10.5 70.5s-16.5 48.166 -28.5 71.499z" />
    <glyph glyph-name="Egrave" unicode="&#xc8;" horiz-adv-x="949" 
d="M184 0v1360h670v-110h-536v-492h479v-110h-479v-538h536v-110h-670zM562 1504l-101 -34l-235 248l150 66z" />
    <glyph glyph-name="Eacute" unicode="&#xc9;" horiz-adv-x="949" 
d="M184 0v1360h670v-110h-536v-492h479v-110h-479v-538h536v-110h-670zM616 1786l151 -66l-235 -248l-103 40z" />
    <glyph glyph-name="Ecircumflex" unicode="&#xca;" horiz-adv-x="949" 
d="M184 0v1360h670v-110h-536v-492h479v-110h-479v-538h536v-110h-670zM380 1470h-167l260 232h94l258 -232h-166l-139 117z" />
    <glyph glyph-name="Edieresis" unicode="&#xcb;" horiz-adv-x="949" 
d="M184 0v1360h670v-110h-536v-492h479v-110h-479v-538h536v-110h-670zM226 1640h174v-170h-174v170zM640 1640h176v-170h-176v170z" />
    <glyph glyph-name="Igrave" unicode="&#xcc;" horiz-adv-x="742" 
d="M136 0v110h173v1140h-173v110h474v-110h-168v-1140h168v-110h-474zM428 1504l-101 -34l-235 248l150 66z" />
    <glyph glyph-name="Iacute" unicode="&#xcd;" horiz-adv-x="742" 
d="M136 0v110h173v1140h-173v110h474v-110h-168v-1140h168v-110h-474zM482 1786l151 -66l-235 -248l-103 40z" />
    <glyph glyph-name="Icircumflex" unicode="&#xce;" horiz-adv-x="742" 
d="M136 0v110h173v1140h-173v110h474v-110h-168v-1140h168v-110h-474zM247 1470h-167l260 232h94l258 -232h-166l-139 117z" />
    <glyph glyph-name="Idieresis" unicode="&#xcf;" horiz-adv-x="742" 
d="M136 0v110h173v1140h-173v110h474v-110h-168v-1140h168v-110h-474zM93 1640h174v-170h-174v170zM507 1640h176v-170h-176v170z" />
    <glyph glyph-name="Eth" unicode="&#xd0;" horiz-adv-x="1245" 
d="M233 666l-129 0.00292969v110h129v584h348c86 0 163.667 -16.167 233 -48.5s128.5 -78 177.5 -137s86.833 -130.167 113.5 -213.5s40 -176.333 40 -279s-13.333 -195.834 -40 -279.501s-64.5 -155.334 -113.5 -215.001s-108.167 -105.834 -177.5 -138.501
s-147 -49 -233 -49h-348v666zM367 666.003v-556h196c65.333 0 125.5 11.167 180.5 33.5s102.333 56.833 142 103.5s70.667 106 93 178s33.5 157.667 33.5 257s-11.167 184.833 -33.5 256.5s-53.333 130.5 -93 176.5s-87 80 -142 102s-115.167 33 -180.5 33h-196v-474h256
v-110h-256z" />
    <glyph glyph-name="Ntilde" unicode="&#xd1;" horiz-adv-x="1278" 
d="M184 1360h134l656 -1123v1123h134v-1360h-134l-656 1111v-1111h-134v1360zM743 1594c18.667 0 38.168 8.16797 58.501 24.501s35.5 40.166 45.5 71.499l85 -66c-8 -24 -18.5 -45.333 -31.5 -64s-27 -34.667 -42 -48s-30.667 -24 -47 -32s-31.833 -13.333 -46.5 -16
c-6 -1.33301 -12.167 -2.33301 -18.5 -3s-12.166 -1 -17.499 -1c-30.667 0 -58.334 7.66699 -83.001 23s-48.334 32.333 -71.001 51c-18 15.333 -34.667 26.5 -50 33.5s-28.666 10.5 -39.999 10.5c-9.33301 -0.666992 -18 -2.16699 -26 -4.5s-16 -6.83301 -24 -13.5
s-16.167 -16 -24.5 -28s-17.5 -27.333 -27.5 -46l-85 60c7.33301 23.333 17.5 44.333 30.5 63s27.167 34.667 42.5 48s31.166 24.333 47.499 33s32.166 14.667 47.499 18c10 2 19.667 3 29 3c31.333 0 59.833 -7.83301 85.5 -23.5s50.167 -32.834 73.5 -51.501
c16.667 -16 32.834 -26.667 48.501 -32s29.167 -8.66602 40.5 -9.99902z" />
    <glyph glyph-name="Ograve" unicode="&#xd2;" horiz-adv-x="1235" 
d="M115 680c0 107.333 12.167 204.166 36.5 290.499s58.333 159.833 102 220.5s96 107.334 157 140.001s128.167 49 201.5 49s141.166 -16.333 203.499 -49s116.333 -79.334 162 -140.001s81.334 -134.167 107.001 -220.5s38.5 -183.166 38.5 -290.499
c0 -108 -12.833 -205.167 -38.5 -291.5s-61.334 -159.833 -107.001 -220.5s-99.667 -107.167 -162 -139.5s-130.166 -48.5 -203.499 -48.5s-140.5 16.167 -201.5 48.5s-113.333 78.833 -157 139.5s-77.667 134.167 -102 220.5s-36.5 183.5 -36.5 291.5zM249 680
c0 -100 9 -187 27 -261s43.167 -135.333 75.5 -184s70.666 -85 114.999 -109s92.833 -36 145.5 -36c54 0 104 12 150 36s85.833 60.333 119.5 109s60.167 110 79.5 184s29 161 29 261s-9.66699 187 -29 261s-45.833 135.333 -79.5 184s-73.5 85 -119.5 109s-96 36 -150 36
c-52.667 0 -101.167 -12 -145.5 -36s-82.666 -60.333 -114.999 -109s-57.5 -110 -75.5 -184s-27 -161 -27 -261zM661 1522l-101 -34l-235 248l150 66z" />
    <glyph glyph-name="Oacute" unicode="&#xd3;" horiz-adv-x="1235" 
d="M115 680c0 107.333 12.167 204.166 36.5 290.499s58.333 159.833 102 220.5s96 107.334 157 140.001s128.167 49 201.5 49s141.166 -16.333 203.499 -49s116.333 -79.334 162 -140.001s81.334 -134.167 107.001 -220.5s38.5 -183.166 38.5 -290.499
c0 -108 -12.833 -205.167 -38.5 -291.5s-61.334 -159.833 -107.001 -220.5s-99.667 -107.167 -162 -139.5s-130.166 -48.5 -203.499 -48.5s-140.5 16.167 -201.5 48.5s-113.333 78.833 -157 139.5s-77.667 134.167 -102 220.5s-36.5 183.5 -36.5 291.5zM249 680
c0 -100 9 -187 27 -261s43.167 -135.333 75.5 -184s70.666 -85 114.999 -109s92.833 -36 145.5 -36c54 0 104 12 150 36s85.833 60.333 119.5 109s60.167 110 79.5 184s29 161 29 261s-9.66699 187 -29 261s-45.833 135.333 -79.5 184s-73.5 85 -119.5 109s-96 36 -150 36
c-52.667 0 -101.167 -12 -145.5 -36s-82.666 -60.333 -114.999 -109s-57.5 -110 -75.5 -184s-27 -161 -27 -261zM715 1804l151 -66l-235 -248l-103 40z" />
    <glyph glyph-name="Ocircumflex" unicode="&#xd4;" horiz-adv-x="1235" 
d="M115 680c0 107.333 12.167 204.166 36.5 290.499s58.333 159.833 102 220.5s96 107.334 157 140.001s128.167 49 201.5 49s141.166 -16.333 203.499 -49s116.333 -79.334 162 -140.001s81.334 -134.167 107.001 -220.5s38.5 -183.166 38.5 -290.499
c0 -108 -12.833 -205.167 -38.5 -291.5s-61.334 -159.833 -107.001 -220.5s-99.667 -107.167 -162 -139.5s-130.166 -48.5 -203.499 -48.5s-140.5 16.167 -201.5 48.5s-113.333 78.833 -157 139.5s-77.667 134.167 -102 220.5s-36.5 183.5 -36.5 291.5zM249 680
c0 -100 9 -187 27 -261s43.167 -135.333 75.5 -184s70.666 -85 114.999 -109s92.833 -36 145.5 -36c54 0 104 12 150 36s85.833 60.333 119.5 109s60.167 110 79.5 184s29 161 29 261s-9.66699 187 -29 261s-45.833 135.333 -79.5 184s-73.5 85 -119.5 109s-96 36 -150 36
c-52.667 0 -101.167 -12 -145.5 -36s-82.666 -60.333 -114.999 -109s-57.5 -110 -75.5 -184s-27 -161 -27 -261zM479 1488h-167l260 232h94l258 -232h-166l-139 117z" />
    <glyph glyph-name="Otilde" unicode="&#xd5;" horiz-adv-x="1235" 
d="M115 680c0 107.333 12.167 204.166 36.5 290.499s58.333 159.833 102 220.5s96 107.334 157 140.001s128.167 49 201.5 49s141.166 -16.333 203.499 -49s116.333 -79.334 162 -140.001s81.334 -134.167 107.001 -220.5s38.5 -183.166 38.5 -290.499
c0 -108 -12.833 -205.167 -38.5 -291.5s-61.334 -159.833 -107.001 -220.5s-99.667 -107.167 -162 -139.5s-130.166 -48.5 -203.499 -48.5s-140.5 16.167 -201.5 48.5s-113.333 78.833 -157 139.5s-77.667 134.167 -102 220.5s-36.5 183.5 -36.5 291.5zM249 680
c0 -100 9 -187 27 -261s43.167 -135.333 75.5 -184s70.666 -85 114.999 -109s92.833 -36 145.5 -36c54 0 104 12 150 36s85.833 60.333 119.5 109s60.167 110 79.5 184s29 161 29 261s-9.66699 187 -29 261s-45.833 135.333 -79.5 184s-73.5 85 -119.5 109s-96 36 -150 36
c-52.667 0 -101.167 -12 -145.5 -36s-82.666 -60.333 -114.999 -109s-57.5 -110 -75.5 -184s-27 -161 -27 -261zM731 1612c18.667 0 38.168 8.16797 58.501 24.501s35.5 40.166 45.5 71.499l85 -66c-8 -24 -18.5 -45.333 -31.5 -64s-27 -34.667 -42 -48s-30.667 -24 -47 -32
s-31.833 -13.333 -46.5 -16c-6 -1.33301 -12.167 -2.33301 -18.5 -3s-12.166 -1 -17.499 -1c-30.667 0 -58.334 7.66699 -83.001 23s-48.334 32.333 -71.001 51c-18 15.333 -34.667 26.5 -50 33.5s-28.666 10.5 -39.999 10.5c-9.33301 -0.666992 -18 -2.16699 -26 -4.5
s-16 -6.83301 -24 -13.5s-16.167 -16 -24.5 -28s-17.5 -27.333 -27.5 -46l-85 60c7.33301 23.333 17.5 44.333 30.5 63s27.167 34.667 42.5 48s31.166 24.333 47.499 33s32.166 14.667 47.499 18c10 2 19.667 3 29 3c31.333 0 59.833 -7.83301 85.5 -23.5
s50.167 -32.834 73.5 -51.501c16.667 -16 32.834 -26.667 48.501 -32s29.167 -8.66602 40.5 -9.99902z" />
    <glyph glyph-name="Odieresis" unicode="&#xd6;" horiz-adv-x="1235" 
d="M115 680c0 107.333 12.167 204.166 36.5 290.499s58.333 159.833 102 220.5s96 107.334 157 140.001s128.167 49 201.5 49s141.166 -16.333 203.499 -49s116.333 -79.334 162 -140.001s81.334 -134.167 107.001 -220.5s38.5 -183.166 38.5 -290.499
c0 -108 -12.833 -205.167 -38.5 -291.5s-61.334 -159.833 -107.001 -220.5s-99.667 -107.167 -162 -139.5s-130.166 -48.5 -203.499 -48.5s-140.5 16.167 -201.5 48.5s-113.333 78.833 -157 139.5s-77.667 134.167 -102 220.5s-36.5 183.5 -36.5 291.5zM249 680
c0 -100 9 -187 27 -261s43.167 -135.333 75.5 -184s70.666 -85 114.999 -109s92.833 -36 145.5 -36c54 0 104 12 150 36s85.833 60.333 119.5 109s60.167 110 79.5 184s29 161 29 261s-9.66699 187 -29 261s-45.833 135.333 -79.5 184s-73.5 85 -119.5 109s-96 36 -150 36
c-52.667 0 -101.167 -12 -145.5 -36s-82.666 -60.333 -114.999 -109s-57.5 -110 -75.5 -184s-27 -161 -27 -261zM325 1658h174v-170h-174v170zM739 1658h176v-170h-176v170z" />
    <glyph glyph-name="multiply" unicode="&#xd7;" horiz-adv-x="922" 
d="M189 964l274 -288l276 288l83 -84l-277 -290l277 -290l-83 -84l-275 289l-275 -289l-86 82l279 293l-278 293z" />
    <glyph glyph-name="Oslash" unicode="&#xd8;" horiz-adv-x="1134" 
d="M69 680c0 107.333 12.166 204.164 36.499 290.497s58.333 159.833 102 220.5s96 107.334 157 140.001s128.167 49 201.5 49c62.667 0 120.834 -11.833 174.501 -35.5s102.167 -57.5 145.5 -101.5l78 117h123l-134 -201c39.333 -60 69.833 -130 91.5 -210
s32.5 -169.667 32.5 -269c0 -108 -12.833 -205.167 -38.5 -291.5s-61.334 -159.833 -107.001 -220.5s-99.667 -107.167 -162 -139.5s-130.166 -48.5 -203.499 -48.5c-62 0 -119 11.167 -171 33.5s-99 54.833 -141 97.5l-75 -113h-123l132 198
c-38 60.667 -67.333 131.334 -88 212.001s-31 171.334 -31 272.001zM943.999 679.998c0 76.667 -5.66797 145.5 -17.001 206.5s-27.666 114.5 -48.999 160.5l-556 -835c32 -41.333 68.5 -72 109.5 -92s85.833 -30 134.5 -30c54 0 104 12 150 36s85.833 60.333 119.5 109
s60.167 110 79.5 184s29 161 29 261zM202.998 679.998c0 -76.667 5.33203 -145.667 15.999 -207s26 -115 46 -161l556 833c-34 42 -72.5 73.333 -115.5 94s-89.5 31 -139.5 31c-52.667 0 -101.167 -12 -145.5 -36s-82.666 -60.333 -114.999 -109s-57.5 -110 -75.5 -184
s-27 -161 -27 -261z" />
    <glyph glyph-name="Ugrave" unicode="&#xd9;" horiz-adv-x="1254" 
d="M948 1360h133.999v-960c0 -67.333 -11 -127 -33 -179s-53 -95.833 -93 -131.5s-87.833 -62.834 -143.5 -81.501s-117.167 -28 -184.5 -28s-128.166 9.16699 -182.499 27.5s-101 45.333 -140 81s-69 79.334 -90 131.001s-31.5 111.167 -31.5 178.5v962h134v-962
c0 -49.333 7.5 -93 22.5 -131s36.167 -70.167 63.5 -96.5s60 -46.333 98 -60s80 -20.5 126 -20.5c46.667 0 89.5 6.83301 128.5 20.5s72.667 33.667 101 60s50.5 58.5 66.5 96.5s24 81.667 24 131v962zM667.999 1504l-101 -34l-235 248l150 66z" />
    <glyph glyph-name="Uacute" unicode="&#xda;" horiz-adv-x="1254" 
d="M948 1360h133.999v-960c0 -67.333 -11 -127 -33 -179s-53 -95.833 -93 -131.5s-87.833 -62.834 -143.5 -81.501s-117.167 -28 -184.5 -28s-128.166 9.16699 -182.499 27.5s-101 45.333 -140 81s-69 79.334 -90 131.001s-31.5 111.167 -31.5 178.5v962h134v-962
c0 -49.333 7.5 -93 22.5 -131s36.167 -70.167 63.5 -96.5s60 -46.333 98 -60s80 -20.5 126 -20.5c46.667 0 89.5 6.83301 128.5 20.5s72.667 33.667 101 60s50.5 58.5 66.5 96.5s24 81.667 24 131v962zM721.999 1786l151 -66l-235 -248l-103 40z" />
    <glyph glyph-name="Ucircumflex" unicode="&#xdb;" horiz-adv-x="1254" 
d="M948 1360h133.999v-960c0 -67.333 -11 -127 -33 -179s-53 -95.833 -93 -131.5s-87.833 -62.834 -143.5 -81.501s-117.167 -28 -184.5 -28s-128.166 9.16699 -182.499 27.5s-101 45.333 -140 81s-69 79.334 -90 131.001s-31.5 111.167 -31.5 178.5v962h134v-962
c0 -49.333 7.5 -93 22.5 -131s36.167 -70.167 63.5 -96.5s60 -46.333 98 -60s80 -20.5 126 -20.5c46.667 0 89.5 6.83301 128.5 20.5s72.667 33.667 101 60s50.5 58.5 66.5 96.5s24 81.667 24 131v962zM485.999 1470h-167l260 232h94l258 -232h-166l-139 117z" />
    <glyph glyph-name="Udieresis" unicode="&#xdc;" horiz-adv-x="1254" 
d="M948 1360h133.999v-960c0 -67.333 -11 -127 -33 -179s-53 -95.833 -93 -131.5s-87.833 -62.834 -143.5 -81.501s-117.167 -28 -184.5 -28s-128.166 9.16699 -182.499 27.5s-101 45.333 -140 81s-69 79.334 -90 131.001s-31.5 111.167 -31.5 178.5v962h134v-962
c0 -49.333 7.5 -93 22.5 -131s36.167 -70.167 63.5 -96.5s60 -46.333 98 -60s80 -20.5 126 -20.5c46.667 0 89.5 6.83301 128.5 20.5s72.667 33.667 101 60s50.5 58.5 66.5 96.5s24 81.667 24 131v962zM331.999 1640h174v-170h-174v170zM745.999 1640h176v-170h-176v170z
" />
    <glyph glyph-name="Yacute" unicode="&#xdd;" horiz-adv-x="1024" 
d="M513 648l294 712h143l-369 -870v-490h-133v486l-371 874h144zM625 1786l151 -66l-235 -248l-103 40z" />
    <glyph glyph-name="Thorn" unicode="&#xde;" horiz-adv-x="1002" 
d="M132 1360l132 0.00195312v-324h254c64 0 120.667 -8.5 170 -25.5s90.833 -41 124.5 -72s59.334 -68.833 77.001 -113.5s26.5 -94.334 26.5 -149.001c0 -55.333 -8.83301 -105.333 -26.5 -150s-43.334 -82.834 -77.001 -114.501s-75.167 -56.167 -124.5 -73.5
s-106 -26 -170 -26h-254v-312h-132v1360zM264 926.002v-504h234c42.667 0 81.5 5 116.5 15s64.833 25.5 89.5 46.5s43.667 47.5 57 79.5s20 69.667 20 113s-6.66699 80.833 -20 112.5s-32.333 57.667 -57 78s-54.5 35.333 -89.5 45s-73.833 14.5 -116.5 14.5h-234z" />
    <glyph glyph-name="germandbls" unicode="&#xdf;" horiz-adv-x="1087" 
d="M134 -192l0.000976562 1169.99c0 60.667 8.5 116.834 25.5 168.501s41.833 96.5 74.5 134.5s72.667 67.667 120 89s101 32 161 32c112 0 194.833 -22.833 248.5 -68.5s80.5 -112.167 80.5 -199.5c0 -22.667 -1.83301 -42.834 -5.5 -60.501s-8.5 -33.834 -14.5 -48.501
s-12.833 -28.167 -20.5 -40.5s-15.834 -23.833 -24.501 -34.5c-17.333 -28 -31.166 -56.5 -41.499 -85.5s-15.5 -60.5 -15.5 -94.5c0 -35.333 10.167 -66.166 30.5 -92.499s47.166 -52.833 80.499 -79.5c18.667 -16 37.334 -33 56.001 -51s35.334 -38 50.001 -60
s26.5 -46.833 35.5 -74.5s13.5 -59.167 13.5 -94.5c0 -61.333 -10.667 -114.166 -32 -158.499s-49.833 -80.666 -85.5 -108.999s-76.334 -49.166 -122.001 -62.499s-92.5 -20 -140.5 -20c-47.333 0 -91 3.83301 -131 11.5s-70.667 14.5 -92 20.5l24 112
c20.667 -7.33301 47.167 -14.833 79.5 -22.5s72.5 -11.5 120.5 -11.5c32 0 62.833 4.5 92.5 13.5s55.834 22.833 78.501 41.5s40.834 42.5 54.501 71.5s20.5 63.5 20.5 103.5c0 20.667 -4 39.834 -12 57.501s-18 34.334 -30 50.001s-25 30.334 -39 44.001l-38 38.5
c-20.667 18 -39.834 36.167 -57.501 54.5s-33.167 38.166 -46.5 59.499s-23.833 44.833 -31.5 70.5s-11.5 54.834 -11.5 87.501c0 47.333 5.66699 90.333 17 129s29.666 78 54.999 118l15 24.5c6 9.66699 11.5 19.834 16.5 30.501s9.33301 21.5 13 32.5s5.5 21.5 5.5 31.5
c0 22.667 -4.16699 43.5 -12.5 62.5s-21 35.5 -38 49.5s-38.167 24.833 -63.5 32.5s-55 11.5 -89 11.5c-37.333 0 -70.833 -8 -100.5 -24s-54.834 -38 -75.501 -66s-36.667 -61.167 -48 -99.5s-17 -79.833 -17 -124.5v-1170h-133z" />
    <glyph glyph-name="agrave" unicode="&#xe0;" horiz-adv-x="978" 
d="M683 584v37.999c0 54 -4.33301 99.333 -13 136s-21.834 66.334 -39.501 89.001s-39.667 38.834 -66 48.501s-57.5 14.5 -93.5 14.5c-23.333 0 -46.833 -1.83301 -70.5 -5.5s-46.667 -8.83398 -69 -15.501s-43.5 -14.167 -63.5 -22.5s-38 -17.166 -54 -26.499l-33 98
c18.667 12.667 40 24 64 34s49.167 18.5 75.5 25.5s53.333 12.5 81 16.5s54.834 6 81.501 6c50 0 95.5 -6 136.5 -18s76 -33 105 -63s51.5 -70.667 67.5 -122s24 -116.333 24 -195v-622h-99l-20 111c-11.333 -10 -26.833 -22.5 -46.5 -37.5s-43.167 -29.5 -70.5 -43.5
s-58 -25.833 -92 -35.5s-71 -14.5 -111 -14.5c-45.333 0 -84.5 7.83301 -117.5 23.5s-60.5 37 -82.5 64s-38.333 58.5 -49 94.5s-16 74 -16 114c0 40.667 8.66699 79.667 26 117s41.833 70.166 73.5 98.499s69.167 50.833 112.5 67.5s91 25 143 25h216zM409 89.999
c36 0 69.3291 5.33496 99.9961 16.002s57.834 23.167 81.501 37.5s43.334 28.5 59.001 42.5s26.834 24.667 33.501 32v266h-196c-48 0 -87.5 -7.16699 -118.5 -21.5s-55.667 -32.5 -74 -54.5s-31.166 -46.333 -38.499 -73s-11 -52.334 -11 -77.001
c0 -26.667 4.16699 -50.334 12.5 -71.001s19.833 -38.167 34.5 -52.5s32 -25.333 52 -33s41.667 -11.5 65 -11.5zM548.996 1184l-101 -34l-235 248l150 66z" />
    <glyph glyph-name="aacute" unicode="&#xe1;" horiz-adv-x="978" 
d="M683 584v37.999c0 54 -4.33301 99.333 -13 136s-21.834 66.334 -39.501 89.001s-39.667 38.834 -66 48.501s-57.5 14.5 -93.5 14.5c-23.333 0 -46.833 -1.83301 -70.5 -5.5s-46.667 -8.83398 -69 -15.501s-43.5 -14.167 -63.5 -22.5s-38 -17.166 -54 -26.499l-33 98
c18.667 12.667 40 24 64 34s49.167 18.5 75.5 25.5s53.333 12.5 81 16.5s54.834 6 81.501 6c50 0 95.5 -6 136.5 -18s76 -33 105 -63s51.5 -70.667 67.5 -122s24 -116.333 24 -195v-622h-99l-20 111c-11.333 -10 -26.833 -22.5 -46.5 -37.5s-43.167 -29.5 -70.5 -43.5
s-58 -25.833 -92 -35.5s-71 -14.5 -111 -14.5c-45.333 0 -84.5 7.83301 -117.5 23.5s-60.5 37 -82.5 64s-38.333 58.5 -49 94.5s-16 74 -16 114c0 40.667 8.66699 79.667 26 117s41.833 70.166 73.5 98.499s69.167 50.833 112.5 67.5s91 25 143 25h216zM409 89.999
c36 0 69.3291 5.33496 99.9961 16.002s57.834 23.167 81.501 37.5s43.334 28.5 59.001 42.5s26.834 24.667 33.501 32v266h-196c-48 0 -87.5 -7.16699 -118.5 -21.5s-55.667 -32.5 -74 -54.5s-31.166 -46.333 -38.499 -73s-11 -52.334 -11 -77.001
c0 -26.667 4.16699 -50.334 12.5 -71.001s19.833 -38.167 34.5 -52.5s32 -25.333 52 -33s41.667 -11.5 65 -11.5zM602.996 1466l151 -66l-235 -248l-103 40z" />
    <glyph glyph-name="acircumflex" unicode="&#xe2;" horiz-adv-x="978" 
d="M683 584v37.999c0 54 -4.33301 99.333 -13 136s-21.834 66.334 -39.501 89.001s-39.667 38.834 -66 48.501s-57.5 14.5 -93.5 14.5c-23.333 0 -46.833 -1.83301 -70.5 -5.5s-46.667 -8.83398 -69 -15.501s-43.5 -14.167 -63.5 -22.5s-38 -17.166 -54 -26.499l-33 98
c18.667 12.667 40 24 64 34s49.167 18.5 75.5 25.5s53.333 12.5 81 16.5s54.834 6 81.501 6c50 0 95.5 -6 136.5 -18s76 -33 105 -63s51.5 -70.667 67.5 -122s24 -116.333 24 -195v-622h-99l-20 111c-11.333 -10 -26.833 -22.5 -46.5 -37.5s-43.167 -29.5 -70.5 -43.5
s-58 -25.833 -92 -35.5s-71 -14.5 -111 -14.5c-45.333 0 -84.5 7.83301 -117.5 23.5s-60.5 37 -82.5 64s-38.333 58.5 -49 94.5s-16 74 -16 114c0 40.667 8.66699 79.667 26 117s41.833 70.166 73.5 98.499s69.167 50.833 112.5 67.5s91 25 143 25h216zM409 89.999
c36 0 69.3291 5.33496 99.9961 16.002s57.834 23.167 81.501 37.5s43.334 28.5 59.001 42.5s26.834 24.667 33.501 32v266h-196c-48 0 -87.5 -7.16699 -118.5 -21.5s-55.667 -32.5 -74 -54.5s-31.166 -46.333 -38.499 -73s-11 -52.334 -11 -77.001
c0 -26.667 4.16699 -50.334 12.5 -71.001s19.833 -38.167 34.5 -52.5s32 -25.333 52 -33s41.667 -11.5 65 -11.5zM366.996 1150h-167l260 232h94l258 -232h-166l-139 117z" />
    <glyph glyph-name="atilde" unicode="&#xe3;" horiz-adv-x="978" 
d="M683 584v37.999c0 54 -4.33301 99.333 -13 136s-21.834 66.334 -39.501 89.001s-39.667 38.834 -66 48.501s-57.5 14.5 -93.5 14.5c-23.333 0 -46.833 -1.83301 -70.5 -5.5s-46.667 -8.83398 -69 -15.501s-43.5 -14.167 -63.5 -22.5s-38 -17.166 -54 -26.499l-33 98
c18.667 12.667 40 24 64 34s49.167 18.5 75.5 25.5s53.333 12.5 81 16.5s54.834 6 81.501 6c50 0 95.5 -6 136.5 -18s76 -33 105 -63s51.5 -70.667 67.5 -122s24 -116.333 24 -195v-622h-99l-20 111c-11.333 -10 -26.833 -22.5 -46.5 -37.5s-43.167 -29.5 -70.5 -43.5
s-58 -25.833 -92 -35.5s-71 -14.5 -111 -14.5c-45.333 0 -84.5 7.83301 -117.5 23.5s-60.5 37 -82.5 64s-38.333 58.5 -49 94.5s-16 74 -16 114c0 40.667 8.66699 79.667 26 117s41.833 70.166 73.5 98.499s69.167 50.833 112.5 67.5s91 25 143 25h216zM409 89.999
c36 0 69.3291 5.33496 99.9961 16.002s57.834 23.167 81.501 37.5s43.334 28.5 59.001 42.5s26.834 24.667 33.501 32v266h-196c-48 0 -87.5 -7.16699 -118.5 -21.5s-55.667 -32.5 -74 -54.5s-31.166 -46.333 -38.499 -73s-11 -52.334 -11 -77.001
c0 -26.667 4.16699 -50.334 12.5 -71.001s19.833 -38.167 34.5 -52.5s32 -25.333 52 -33s41.667 -11.5 65 -11.5zM618.996 1274c18.667 0 38.168 8.16797 58.501 24.501s35.5 40.166 45.5 71.499l85 -66c-8 -24 -18.5 -45.333 -31.5 -64s-27 -34.667 -42 -48
s-30.667 -24 -47 -32s-31.833 -13.333 -46.5 -16c-6 -1.33301 -12.167 -2.33301 -18.5 -3s-12.166 -1 -17.499 -1c-30.667 0 -58.334 7.66699 -83.001 23s-48.334 32.333 -71.001 51c-18 15.333 -34.667 26.5 -50 33.5s-28.666 10.5 -39.999 10.5
c-9.33301 -0.666992 -18 -2.16699 -26 -4.5s-16 -6.83301 -24 -13.5s-16.167 -16 -24.5 -28s-17.5 -27.333 -27.5 -46l-85 60c7.33301 23.333 17.5 44.333 30.5 63s27.167 34.667 42.5 48s31.166 24.333 47.499 33s32.166 14.667 47.499 18c10 2 19.667 3 29 3
c31.333 0 59.833 -7.83301 85.5 -23.5s50.167 -32.834 73.5 -51.501c16.667 -16 32.834 -26.667 48.501 -32s29.167 -8.66602 40.5 -9.99902z" />
    <glyph glyph-name="adieresis" unicode="&#xe4;" horiz-adv-x="978" 
d="M683 584v37.999c0 54 -4.33301 99.333 -13 136s-21.834 66.334 -39.501 89.001s-39.667 38.834 -66 48.501s-57.5 14.5 -93.5 14.5c-23.333 0 -46.833 -1.83301 -70.5 -5.5s-46.667 -8.83398 -69 -15.501s-43.5 -14.167 -63.5 -22.5s-38 -17.166 -54 -26.499l-33 98
c18.667 12.667 40 24 64 34s49.167 18.5 75.5 25.5s53.333 12.5 81 16.5s54.834 6 81.501 6c50 0 95.5 -6 136.5 -18s76 -33 105 -63s51.5 -70.667 67.5 -122s24 -116.333 24 -195v-622h-99l-20 111c-11.333 -10 -26.833 -22.5 -46.5 -37.5s-43.167 -29.5 -70.5 -43.5
s-58 -25.833 -92 -35.5s-71 -14.5 -111 -14.5c-45.333 0 -84.5 7.83301 -117.5 23.5s-60.5 37 -82.5 64s-38.333 58.5 -49 94.5s-16 74 -16 114c0 40.667 8.66699 79.667 26 117s41.833 70.166 73.5 98.499s69.167 50.833 112.5 67.5s91 25 143 25h216zM409 89.999
c36 0 69.3291 5.33496 99.9961 16.002s57.834 23.167 81.501 37.5s43.334 28.5 59.001 42.5s26.834 24.667 33.501 32v266h-196c-48 0 -87.5 -7.16699 -118.5 -21.5s-55.667 -32.5 -74 -54.5s-31.166 -46.333 -38.499 -73s-11 -52.334 -11 -77.001
c0 -26.667 4.16699 -50.334 12.5 -71.001s19.833 -38.167 34.5 -52.5s32 -25.333 52 -33s41.667 -11.5 65 -11.5zM212.996 1321h174v-170h-174v170zM626.996 1321h176v-170h-176v170z" />
    <glyph glyph-name="aring" unicode="&#xe5;" horiz-adv-x="978" 
d="M683 584v37.999c0 54 -4.33301 99.333 -13 136s-21.834 66.334 -39.501 89.001s-39.667 38.834 -66 48.501s-57.5 14.5 -93.5 14.5c-23.333 0 -46.833 -1.83301 -70.5 -5.5s-46.667 -8.83398 -69 -15.501s-43.5 -14.167 -63.5 -22.5s-38 -17.166 -54 -26.499l-33 98
c18.667 12.667 40 24 64 34s49.167 18.5 75.5 25.5s53.333 12.5 81 16.5s54.834 6 81.501 6c50 0 95.5 -6 136.5 -18s76 -33 105 -63s51.5 -70.667 67.5 -122s24 -116.333 24 -195v-622h-99l-20 111c-11.333 -10 -26.833 -22.5 -46.5 -37.5s-43.167 -29.5 -70.5 -43.5
s-58 -25.833 -92 -35.5s-71 -14.5 -111 -14.5c-45.333 0 -84.5 7.83301 -117.5 23.5s-60.5 37 -82.5 64s-38.333 58.5 -49 94.5s-16 74 -16 114c0 40.667 8.66699 79.667 26 117s41.833 70.166 73.5 98.499s69.167 50.833 112.5 67.5s91 25 143 25h216zM409 89.999
c36 0 69.3291 5.33496 99.9961 16.002s57.834 23.167 81.501 37.5s43.334 28.5 59.001 42.5s26.834 24.667 33.501 32v266h-196c-48 0 -87.5 -7.16699 -118.5 -21.5s-55.667 -32.5 -74 -54.5s-31.166 -46.333 -38.499 -73s-11 -52.334 -11 -77.001
c0 -26.667 4.16699 -50.334 12.5 -71.001s19.833 -38.167 34.5 -52.5s32 -25.333 52 -33s41.667 -11.5 65 -11.5zM490.996 1539c25.333 0 49.166 -5.16699 71.499 -15.5s42 -24.333 59 -42s30.5 -38.167 40.5 -61.5s15 -48.333 15 -75c0 -27.333 -5 -52.333 -15 -75
s-23.5 -42.5 -40.5 -59.5s-36.667 -30.167 -59 -39.5s-46.166 -14 -71.499 -14s-49.333 4.66699 -72 14s-42.5 22.5 -59.5 39.5s-30.5 36.833 -40.5 59.5s-15 47.667 -15 75c0 26.667 5 51.667 15 75s23.5 43.833 40.5 61.5s36.833 31.667 59.5 42s46.667 15.5 72 15.5z
M490.996 1267c21.333 0 38.667 7.66797 52 23.001s20 33.666 20 54.999c0 22 -6.66699 41.5 -20 58.5s-30.666 25.5 -51.999 25.5c-9.33301 0 -18.5 -2.33301 -27.5 -7s-17 -10.834 -24 -18.501s-12.667 -16.667 -17 -27s-6.5 -20.833 -6.5 -31.5
c0 -21.333 7.66699 -39.666 23 -54.999s32.666 -23 51.999 -23z" />
    <glyph glyph-name="ae" unicode="&#xe6;" horiz-adv-x="1544" 
d="M689 552l-0.00390625 69.999c0 54 -4.16699 98.667 -12.5 134s-21.166 63.5 -38.499 84.5s-39.166 35.833 -65.499 44.5s-57.5 13 -93.5 13c-23.333 0 -47.5 -2.16699 -72.5 -6.5s-49.5 -9.83301 -73.5 -16.5s-46.5 -14.167 -67.5 -22.5s-38.833 -16.5 -53.5 -24.5
l-41 102c20.667 12 43.5 23.5 68.5 34.5s51.5 20.5 79.5 28.5s56.5 14.5 85.5 19.5s57.833 7.5 86.5 7.5c34.667 0 67 -2.5 97 -7.5s57.167 -13.5 81.5 -25.5s46 -27.833 65 -47.5s35.167 -44.167 48.5 -73.5c34 50 76 88.167 126 114.5s107.667 39.5 173 39.5
c50 0 96.333 -8.66699 139 -26s79.334 -42.833 110.001 -76.5s54.667 -75 72 -124s26 -104.833 26 -167.5v-110h-605v-24c0 -63.333 6 -120 18 -170s30 -92.167 54 -126.5s54.167 -60.5 90.5 -78.5s78.5 -27 126.5 -27c31.333 0 59.666 2.16699 84.999 6.5
s48.333 9.66602 69 15.999s39 13.166 55 20.499s30.333 14.333 43 21l37 -102c-35.333 -22 -77.666 -39.5 -126.999 -52.5s-102.333 -19.5 -159 -19.5c-71.333 0 -133.666 11.833 -186.999 35.5s-98 58.167 -134 103.5l-64 -43c-24.667 -16 -53.667 -31.167 -87 -45.5
s-71.333 -26.333 -114 -36s-91 -14.5 -145 -14.5c-45.333 0 -84.666 7.33301 -117.999 22s-61 35 -83 61s-38.5 56.333 -49.5 91s-16.5 72 -16.5 112c0 40.667 8.33301 78.334 25 113.001s39.667 64.834 69 90.501s64.166 45.834 104.499 60.501s84.5 22 132.5 22h240z
M417.996 89.999c32.667 0 63 3 91 9s53.333 13.5 76 22.5s42.834 18.5 60.501 28.5s32.167 19.333 43.5 28v276h-220c-42 0 -77 -5.16699 -105 -15.5s-50.333 -24.666 -67 -42.999s-28.5 -40 -35.5 -65s-10.5 -52.5 -10.5 -82.5c0 -26.667 4.33301 -49.834 13 -69.501
s20.5 -36 35.5 -49s32.667 -22.833 53 -29.5s42.166 -10 65.499 -10zM1086 909.999c-34.667 0 -66.1689 -4.66797 -94.502 -14.001s-53.333 -25 -75 -47s-39.834 -51.167 -54.501 -87.5s-25 -81.5 -31 -135.5h464c0 50.667 -5.66699 93.834 -17 129.501
s-26.666 65 -45.999 88s-41.666 39.833 -66.999 50.5s-51.666 16 -78.999 16z" />
    <glyph glyph-name="ccedilla" unicode="&#xe7;" horiz-adv-x="858" 
d="M124 502c0 78.667 9.49902 149.831 28.499 213.498s46.333 118 82 163s79.5 79.833 131.5 104.5s111 37 177 37c54 0 100.667 -4.66699 140 -14s72.666 -22.666 99.999 -39.999l-44 -98l-33 14.5c-11.333 5 -24.166 9.5 -38.499 13.5s-30.5 7.33301 -48.5 10s-39 4 -63 4
c-44.667 0 -85.334 -7.83301 -122.001 -23.5s-68.167 -40 -94.5 -73s-46.666 -75.333 -60.999 -127s-21.5 -113.167 -21.5 -184.5s7 -133 21 -185s34 -94.833 60 -128.5s57.167 -58.5 93.5 -74.5s76.833 -24 121.5 -24c50 0 92.667 5.5 128 16.5s66 23.5 92 37.5l44 -98
c-28 -21.333 -63 -37.666 -105 -48.999s-91.333 -17 -148 -17c-69.333 0 -131.166 12.5 -185.499 37.5s-100.333 60.333 -138 106s-66.5 100.5 -86.5 164.5s-30 135.333 -30 214zM622.999 11.9971c19.333 -42.667 29 -85.666 29 -128.999c0 -33.333 -6 -65.333 -18 -96
s-30 -57.334 -54 -80.001s-54 -40.167 -90 -52.5s-78 -17.166 -126 -14.499l-22 86c34 0.666992 63 5.16699 87 13.5s43.5 19.5 58.5 33.5s26 30.333 33 49s10.5 38.667 10.5 60c0 22.667 -3.5 46.167 -10.5 70.5s-16.5 48.166 -28.5 71.499z" />
    <glyph glyph-name="egrave" unicode="&#xe8;" horiz-adv-x="984" 
d="M256 516l-0.00292969 -23.9971c0 -63.333 6 -120 18 -170s30 -92.167 54 -126.5s54.167 -60.5 90.5 -78.5s78.5 -27 126.5 -27c31.333 0 59.666 2.16699 84.999 6.5s48.333 9.66602 69 15.999s39 13.166 55 20.499s30.333 14.333 43 21l37 -102
c-35.333 -22 -77.666 -39.5 -126.999 -52.5s-102.333 -19.5 -159 -19.5c-69.333 0 -130.5 11.5 -183.5 34.5s-97.5 56.333 -133.5 100s-63.167 97.167 -81.5 160.5s-27.5 135.666 -27.5 216.999c0 83.333 8.83301 157.833 26.5 223.5s43.334 121 77.001 166
s74.834 79.333 123.501 103s103.667 35.5 165 35.5c50 0 96.333 -8.66699 139 -26s79.334 -42.833 110.001 -76.5s54.667 -75 72 -124s26 -104.833 26 -167.5v-110h-605zM517.997 910.003c-34.667 0 -66.1689 -4.66797 -94.502 -14.001s-53.333 -25 -75 -47
s-39.834 -51.167 -54.501 -87.5s-25 -81.5 -31 -135.5h464c0 50.667 -5.66699 93.834 -17 129.501s-26.666 65 -45.999 88s-41.666 39.833 -66.999 50.5s-51.666 16 -78.999 16zM567.995 1184l-101 -34l-235 248l150 66z" />
    <glyph glyph-name="eacute" unicode="&#xe9;" horiz-adv-x="984" 
d="M256 516l-0.00292969 -23.9971c0 -63.333 6 -120 18 -170s30 -92.167 54 -126.5s54.167 -60.5 90.5 -78.5s78.5 -27 126.5 -27c31.333 0 59.666 2.16699 84.999 6.5s48.333 9.66602 69 15.999s39 13.166 55 20.499s30.333 14.333 43 21l37 -102
c-35.333 -22 -77.666 -39.5 -126.999 -52.5s-102.333 -19.5 -159 -19.5c-69.333 0 -130.5 11.5 -183.5 34.5s-97.5 56.333 -133.5 100s-63.167 97.167 -81.5 160.5s-27.5 135.666 -27.5 216.999c0 83.333 8.83301 157.833 26.5 223.5s43.334 121 77.001 166
s74.834 79.333 123.501 103s103.667 35.5 165 35.5c50 0 96.333 -8.66699 139 -26s79.334 -42.833 110.001 -76.5s54.667 -75 72 -124s26 -104.833 26 -167.5v-110h-605zM517.997 910.003c-34.667 0 -66.1689 -4.66797 -94.502 -14.001s-53.333 -25 -75 -47
s-39.834 -51.167 -54.501 -87.5s-25 -81.5 -31 -135.5h464c0 50.667 -5.66699 93.834 -17 129.501s-26.666 65 -45.999 88s-41.666 39.833 -66.999 50.5s-51.666 16 -78.999 16zM621.995 1466l151 -66l-235 -248l-103 40z" />
    <glyph glyph-name="ecircumflex" unicode="&#xea;" horiz-adv-x="984" 
d="M256 516l-0.00292969 -23.9971c0 -63.333 6 -120 18 -170s30 -92.167 54 -126.5s54.167 -60.5 90.5 -78.5s78.5 -27 126.5 -27c31.333 0 59.666 2.16699 84.999 6.5s48.333 9.66602 69 15.999s39 13.166 55 20.499s30.333 14.333 43 21l37 -102
c-35.333 -22 -77.666 -39.5 -126.999 -52.5s-102.333 -19.5 -159 -19.5c-69.333 0 -130.5 11.5 -183.5 34.5s-97.5 56.333 -133.5 100s-63.167 97.167 -81.5 160.5s-27.5 135.666 -27.5 216.999c0 83.333 8.83301 157.833 26.5 223.5s43.334 121 77.001 166
s74.834 79.333 123.501 103s103.667 35.5 165 35.5c50 0 96.333 -8.66699 139 -26s79.334 -42.833 110.001 -76.5s54.667 -75 72 -124s26 -104.833 26 -167.5v-110h-605zM517.997 910.003c-34.667 0 -66.1689 -4.66797 -94.502 -14.001s-53.333 -25 -75 -47
s-39.834 -51.167 -54.501 -87.5s-25 -81.5 -31 -135.5h464c0 50.667 -5.66699 93.834 -17 129.501s-26.666 65 -45.999 88s-41.666 39.833 -66.999 50.5s-51.666 16 -78.999 16zM385.995 1150h-167l260 232h94l258 -232h-166l-139 117z" />
    <glyph glyph-name="edieresis" unicode="&#xeb;" horiz-adv-x="984" 
d="M256 516l-0.00292969 -23.9971c0 -63.333 6 -120 18 -170s30 -92.167 54 -126.5s54.167 -60.5 90.5 -78.5s78.5 -27 126.5 -27c31.333 0 59.666 2.16699 84.999 6.5s48.333 9.66602 69 15.999s39 13.166 55 20.499s30.333 14.333 43 21l37 -102
c-35.333 -22 -77.666 -39.5 -126.999 -52.5s-102.333 -19.5 -159 -19.5c-69.333 0 -130.5 11.5 -183.5 34.5s-97.5 56.333 -133.5 100s-63.167 97.167 -81.5 160.5s-27.5 135.666 -27.5 216.999c0 83.333 8.83301 157.833 26.5 223.5s43.334 121 77.001 166
s74.834 79.333 123.501 103s103.667 35.5 165 35.5c50 0 96.333 -8.66699 139 -26s79.334 -42.833 110.001 -76.5s54.667 -75 72 -124s26 -104.833 26 -167.5v-110h-605zM517.997 910.003c-34.667 0 -66.1689 -4.66797 -94.502 -14.001s-53.333 -25 -75 -47
s-39.834 -51.167 -54.501 -87.5s-25 -81.5 -31 -135.5h464c0 50.667 -5.66699 93.834 -17 129.501s-26.666 65 -45.999 88s-41.666 39.833 -66.999 50.5s-51.666 16 -78.999 16zM231.995 1321h174v-170h-174v170zM645.995 1321h176v-170h-176v170z" />
    <glyph glyph-name="igrave" unicode="&#xec;" horiz-adv-x="344" 
d="M113 1000h133v-1000h-133v1000zM247 1171l-101 -34l-235 248l150 66z" />
    <glyph glyph-name="iacute" unicode="&#xed;" horiz-adv-x="344" 
d="M113 1000h133v-1000h-133v1000zM301 1453l151 -66l-235 -248l-103 40z" />
    <glyph glyph-name="icircumflex" unicode="&#xee;" horiz-adv-x="344" 
d="M113 1000h133v-1000h-133v1000zM65 1138h-167l260 232h94l258 -232h-166l-139 117z" />
    <glyph glyph-name="idieresis" unicode="&#xef;" horiz-adv-x="344" 
d="M113 1000h133v-1000h-133v1000zM-89 1308h174v-170h-174v170zM325 1308h176v-170h-176v170z" />
    <glyph glyph-name="eth" unicode="&#xf0;" horiz-adv-x="1070" 
d="M454 1088l183.998 95.002c-33.333 30 -70.333 52 -111 66s-84.334 21 -131.001 21l13 110c67.333 0 129.333 -12 186 -36s107.334 -59 152.001 -105l193 99l47 -88l-175 -91c46 -68.667 81.333 -150.334 106 -245.001s37 -200.667 37 -318
c0 -92.667 -9 -176.667 -27 -252s-44.833 -139.666 -80.5 -192.999s-79.667 -94.5 -132 -123.5s-112.5 -43.5 -180.5 -43.5c-64.667 0 -121.834 12.833 -171.501 38.5s-91.667 59.167 -126 100.5s-60.666 88.166 -78.999 140.499s-28.166 105.166 -29.499 158.499
c-1.33301 70.667 5.5 134.5 20.5 191.5s38.333 105.333 70 145s71.167 70.167 118.5 91.5s102.333 32 165 32c30 0 59.833 -3.66699 89.5 -11s58.334 -18 86.001 -32s53.167 -31 76.5 -51s43.333 -42.333 60 -67c-6 84 -18.333 157.667 -37 221s-42.667 117.333 -72 162
l-204 -106zM516.998 94.002c47.333 0 89.6689 9.33691 127.002 28.0039s68.833 47.667 94.5 87s45.5 89.666 59.5 150.999s21.333 134.666 22 219.999c-21.333 38 -44.666 69.333 -69.999 94s-52 44.167 -80 58.5s-56.333 24.5 -85 30.5s-57 9 -85 9
c-42.667 0 -78.834 -9.66699 -108.501 -29s-53.834 -45.333 -72.501 -78s-32.167 -70.667 -40.5 -114s-12.5 -89 -12.5 -137c0 -41.333 5.33301 -81.333 16 -120s26.5 -72.834 47.5 -102.501s47.167 -53.334 78.5 -71.001s67.666 -26.5 108.999 -26.5z" />
    <glyph glyph-name="ntilde" unicode="&#xf1;" 
d="M180 1000l119.999 -0.000976562l10 -112c86 88 186.333 132 301 132c96.667 0 167.667 -29 213 -87s68 -148.333 68 -271v-662h-133v662c0 46.667 -3.66699 85.834 -11 117.501s-18.333 57.167 -33 76.5s-33.167 33.166 -55.5 41.499s-48.166 12.5 -77.499 12.5
c-52.667 0 -101.5 -11.167 -146.5 -33.5s-85.833 -51.166 -122.5 -86.499v-790h-133v1000zM648.999 1274c18.667 0 38.168 8.16797 58.501 24.501s35.5 40.166 45.5 71.499l85 -66c-8 -24 -18.5 -45.333 -31.5 -64s-27 -34.667 -42 -48s-30.667 -24 -47 -32
s-31.833 -13.333 -46.5 -16c-6 -1.33301 -12.167 -2.33301 -18.5 -3s-12.166 -1 -17.499 -1c-30.667 0 -58.334 7.66699 -83.001 23s-48.334 32.333 -71.001 51c-18 15.333 -34.667 26.5 -50 33.5s-28.666 10.5 -39.999 10.5c-9.33301 -0.666992 -18 -2.16699 -26 -4.5
s-16 -6.83301 -24 -13.5s-16.167 -16 -24.5 -28s-17.5 -27.333 -27.5 -46l-85 60c7.33301 23.333 17.5 44.333 30.5 63s27.167 34.667 42.5 48s31.166 24.333 47.499 33s32.166 14.667 47.499 18c10 2 19.667 3 29 3c31.333 0 59.833 -7.83301 85.5 -23.5
s50.167 -32.834 73.5 -51.501c16.667 -16 32.834 -26.667 48.501 -32s29.167 -8.66602 40.5 -9.99902z" />
    <glyph glyph-name="ograve" unicode="&#xf2;" horiz-adv-x="1045" 
d="M123 500c0 80.667 9.33301 153 28 217s45.167 118.5 79.5 163.5s76.333 79.5 126 103.5s105.5 36 167.5 36c61.333 0 117.5 -12 168.5 -36s94.667 -58.5 131 -103.5s64.666 -99.5 84.999 -163.5s30.5 -136.333 30.5 -217c0 -81.333 -10.167 -154 -30.5 -218
s-48.666 -118.5 -84.999 -163.5s-80 -79.333 -131 -103s-107.167 -35.5 -168.5 -35.5c-62 0 -117.833 11.833 -167.5 35.5s-91.667 58 -126 103s-60.833 99.5 -79.5 163.5s-28 136.667 -28 218zM256 500c0 -70.667 6.33301 -131.667 19 -183s30.834 -93.833 54.501 -127.5
s52 -58.667 85 -75s69.5 -24.5 109.5 -24.5c40.667 0 78.334 8.16699 113.001 24.5s64.5 41.333 89.5 75s44.5 76.167 58.5 127.5s21 112.333 21 183s-7 131.834 -21 183.501s-33.5 94.334 -58.5 128.001s-54.833 58.5 -89.5 74.5s-72.334 24 -113.001 24
c-40 0 -76.5 -8 -109.5 -24s-61.333 -40.833 -85 -74.5s-41.834 -76.334 -54.501 -128.001s-19 -112.834 -19 -183.501zM573 1182l-101 -34l-235 248l150 66z" />
    <glyph glyph-name="oacute" unicode="&#xf3;" horiz-adv-x="1045" 
d="M123 500c0 80.667 9.33301 153 28 217s45.167 118.5 79.5 163.5s76.333 79.5 126 103.5s105.5 36 167.5 36c61.333 0 117.5 -12 168.5 -36s94.667 -58.5 131 -103.5s64.666 -99.5 84.999 -163.5s30.5 -136.333 30.5 -217c0 -81.333 -10.167 -154 -30.5 -218
s-48.666 -118.5 -84.999 -163.5s-80 -79.333 -131 -103s-107.167 -35.5 -168.5 -35.5c-62 0 -117.833 11.833 -167.5 35.5s-91.667 58 -126 103s-60.833 99.5 -79.5 163.5s-28 136.667 -28 218zM256 500c0 -70.667 6.33301 -131.667 19 -183s30.834 -93.833 54.501 -127.5
s52 -58.667 85 -75s69.5 -24.5 109.5 -24.5c40.667 0 78.334 8.16699 113.001 24.5s64.5 41.333 89.5 75s44.5 76.167 58.5 127.5s21 112.333 21 183s-7 131.834 -21 183.501s-33.5 94.334 -58.5 128.001s-54.833 58.5 -89.5 74.5s-72.334 24 -113.001 24
c-40 0 -76.5 -8 -109.5 -24s-61.333 -40.833 -85 -74.5s-41.834 -76.334 -54.501 -128.001s-19 -112.834 -19 -183.501zM627 1464l151 -66l-235 -248l-103 40z" />
    <glyph glyph-name="ocircumflex" unicode="&#xf4;" horiz-adv-x="1045" 
d="M123 500c0 80.667 9.33301 153 28 217s45.167 118.5 79.5 163.5s76.333 79.5 126 103.5s105.5 36 167.5 36c61.333 0 117.5 -12 168.5 -36s94.667 -58.5 131 -103.5s64.666 -99.5 84.999 -163.5s30.5 -136.333 30.5 -217c0 -81.333 -10.167 -154 -30.5 -218
s-48.666 -118.5 -84.999 -163.5s-80 -79.333 -131 -103s-107.167 -35.5 -168.5 -35.5c-62 0 -117.833 11.833 -167.5 35.5s-91.667 58 -126 103s-60.833 99.5 -79.5 163.5s-28 136.667 -28 218zM256 500c0 -70.667 6.33301 -131.667 19 -183s30.834 -93.833 54.501 -127.5
s52 -58.667 85 -75s69.5 -24.5 109.5 -24.5c40.667 0 78.334 8.16699 113.001 24.5s64.5 41.333 89.5 75s44.5 76.167 58.5 127.5s21 112.333 21 183s-7 131.834 -21 183.501s-33.5 94.334 -58.5 128.001s-54.833 58.5 -89.5 74.5s-72.334 24 -113.001 24
c-40 0 -76.5 -8 -109.5 -24s-61.333 -40.833 -85 -74.5s-41.834 -76.334 -54.501 -128.001s-19 -112.834 -19 -183.501zM391 1148h-167l260 232h94l258 -232h-166l-139 117z" />
    <glyph glyph-name="otilde" unicode="&#xf5;" horiz-adv-x="1045" 
d="M123 500c0 80.667 9.33301 153 28 217s45.167 118.5 79.5 163.5s76.333 79.5 126 103.5s105.5 36 167.5 36c61.333 0 117.5 -12 168.5 -36s94.667 -58.5 131 -103.5s64.666 -99.5 84.999 -163.5s30.5 -136.333 30.5 -217c0 -81.333 -10.167 -154 -30.5 -218
s-48.666 -118.5 -84.999 -163.5s-80 -79.333 -131 -103s-107.167 -35.5 -168.5 -35.5c-62 0 -117.833 11.833 -167.5 35.5s-91.667 58 -126 103s-60.833 99.5 -79.5 163.5s-28 136.667 -28 218zM256 500c0 -70.667 6.33301 -131.667 19 -183s30.834 -93.833 54.501 -127.5
s52 -58.667 85 -75s69.5 -24.5 109.5 -24.5c40.667 0 78.334 8.16699 113.001 24.5s64.5 41.333 89.5 75s44.5 76.167 58.5 127.5s21 112.333 21 183s-7 131.834 -21 183.501s-33.5 94.334 -58.5 128.001s-54.833 58.5 -89.5 74.5s-72.334 24 -113.001 24
c-40 0 -76.5 -8 -109.5 -24s-61.333 -40.833 -85 -74.5s-41.834 -76.334 -54.501 -128.001s-19 -112.834 -19 -183.501zM643 1272c18.667 0 38.168 8.16797 58.501 24.501s35.5 40.166 45.5 71.499l85 -66c-8 -24 -18.5 -45.333 -31.5 -64s-27 -34.667 -42 -48
s-30.667 -24 -47 -32s-31.833 -13.333 -46.5 -16c-6 -1.33301 -12.167 -2.33301 -18.5 -3s-12.166 -1 -17.499 -1c-30.667 0 -58.334 7.66699 -83.001 23s-48.334 32.333 -71.001 51c-18 15.333 -34.667 26.5 -50 33.5s-28.666 10.5 -39.999 10.5
c-9.33301 -0.666992 -18 -2.16699 -26 -4.5s-16 -6.83301 -24 -13.5s-16.167 -16 -24.5 -28s-17.5 -27.333 -27.5 -46l-85 60c7.33301 23.333 17.5 44.333 30.5 63s27.167 34.667 42.5 48s31.166 24.333 47.499 33s32.166 14.667 47.499 18c10 2 19.667 3 29 3
c31.333 0 59.833 -7.83301 85.5 -23.5s50.167 -32.834 73.5 -51.501c16.667 -16 32.834 -26.667 48.501 -32s29.167 -8.66602 40.5 -9.99902z" />
    <glyph glyph-name="odieresis" unicode="&#xf6;" horiz-adv-x="1045" 
d="M123 500c0 80.667 9.33301 153 28 217s45.167 118.5 79.5 163.5s76.333 79.5 126 103.5s105.5 36 167.5 36c61.333 0 117.5 -12 168.5 -36s94.667 -58.5 131 -103.5s64.666 -99.5 84.999 -163.5s30.5 -136.333 30.5 -217c0 -81.333 -10.167 -154 -30.5 -218
s-48.666 -118.5 -84.999 -163.5s-80 -79.333 -131 -103s-107.167 -35.5 -168.5 -35.5c-62 0 -117.833 11.833 -167.5 35.5s-91.667 58 -126 103s-60.833 99.5 -79.5 163.5s-28 136.667 -28 218zM256 500c0 -70.667 6.33301 -131.667 19 -183s30.834 -93.833 54.501 -127.5
s52 -58.667 85 -75s69.5 -24.5 109.5 -24.5c40.667 0 78.334 8.16699 113.001 24.5s64.5 41.333 89.5 75s44.5 76.167 58.5 127.5s21 112.333 21 183s-7 131.834 -21 183.501s-33.5 94.334 -58.5 128.001s-54.833 58.5 -89.5 74.5s-72.334 24 -113.001 24
c-40 0 -76.5 -8 -109.5 -24s-61.333 -40.833 -85 -74.5s-41.834 -76.334 -54.501 -128.001s-19 -112.834 -19 -183.501zM237 1319h174v-170h-174v170zM651 1319h176v-170h-176v170z" />
    <glyph glyph-name="divide" unicode="&#xf7;" horiz-adv-x="923" 
d="M101 552v110h724v-110h-724zM384 966h150v-166h-150v166zM384 378h150v-166h-150v166z" />
    <glyph glyph-name="oslash" unicode="&#xf8;" horiz-adv-x="1044" 
d="M106 500c0 80.667 9.33008 152.999 27.9971 216.999s45.167 118.5 79.5 163.5s76.333 79.5 126 103.5s105.5 36 167.5 36c50.667 0 97.834 -8.16699 141.501 -24.5s82.834 -40.166 117.501 -71.499l56 76h132l-119 -160c28 -43.333 49.5 -93.5 64.5 -150.5
s22.5 -120.167 22.5 -189.5c0 -81.333 -10.167 -154 -30.5 -218s-48.666 -118.5 -84.999 -163.5s-80 -79.333 -131 -103s-107.167 -35.5 -168.5 -35.5c-98 0 -179.667 28.667 -245 86l-49 -66h-130l109 148c-28 44 -49.333 95.5 -64 154.5s-22 124.833 -22 197.5z
M238.997 499.999c0 -49.333 3.16992 -93.8311 9.50293 -133.498s15.166 -75.167 26.499 -106.5l420 568c-24.667 28 -52.834 48.667 -84.501 62s-66.167 20 -103.5 20c-40 0 -76.5 -8 -109.5 -24s-61.333 -40.833 -85 -74.5s-41.834 -76.334 -54.501 -128.001
s-19 -112.834 -19 -183.501zM789 500.001c0 46.667 -3.16895 89 -9.50195 127s-15.166 72 -26.499 102l-420 -566c22.667 -25.333 48.667 -43.833 78 -55.5s61.333 -17.5 96 -17.5c40.667 0 78.334 8.16699 113.001 24.5s64.5 41.333 89.5 75s44.5 76.167 58.5 127.5
s21 112.333 21 183z" />
    <glyph glyph-name="ugrave" unicode="&#xf9;" 
d="M892 0h-127l-4 114c-44 -42.667 -91.833 -75.667 -143.5 -99s-106.167 -35 -163.5 -35c-43.333 0 -82 5.5 -116 16.5s-62.667 30 -86 57s-41.166 63.5 -53.499 109.5s-18.5 104.333 -18.5 175v662h133v-662c0 -46 3.16699 -84.833 9.5 -116.5s16.333 -57.167 30 -76.5
s31.167 -33.333 52.5 -42s46.666 -13 75.999 -13c50.667 0 99.5 11.167 146.5 33.5s90.833 51.5 131.5 87.5v789h133v-1000zM579 1164l-101 -34l-235 248l150 66z" />
    <glyph glyph-name="uacute" unicode="&#xfa;" 
d="M892 0h-127l-4 114c-44 -42.667 -91.833 -75.667 -143.5 -99s-106.167 -35 -163.5 -35c-43.333 0 -82 5.5 -116 16.5s-62.667 30 -86 57s-41.166 63.5 -53.499 109.5s-18.5 104.333 -18.5 175v662h133v-662c0 -46 3.16699 -84.833 9.5 -116.5s16.333 -57.167 30 -76.5
s31.167 -33.333 52.5 -42s46.666 -13 75.999 -13c50.667 0 99.5 11.167 146.5 33.5s90.833 51.5 131.5 87.5v789h133v-1000zM633 1446l151 -66l-235 -248l-103 40z" />
    <glyph glyph-name="ucircumflex" unicode="&#xfb;" 
d="M892 0h-127l-4 114c-44 -42.667 -91.833 -75.667 -143.5 -99s-106.167 -35 -163.5 -35c-43.333 0 -82 5.5 -116 16.5s-62.667 30 -86 57s-41.166 63.5 -53.499 109.5s-18.5 104.333 -18.5 175v662h133v-662c0 -46 3.16699 -84.833 9.5 -116.5s16.333 -57.167 30 -76.5
s31.167 -33.333 52.5 -42s46.666 -13 75.999 -13c50.667 0 99.5 11.167 146.5 33.5s90.833 51.5 131.5 87.5v789h133v-1000zM397 1131h-167l260 232h94l258 -232h-166l-139 117z" />
    <glyph glyph-name="udieresis" unicode="&#xfc;" 
d="M892 0h-127l-4 114c-44 -42.667 -91.833 -75.667 -143.5 -99s-106.167 -35 -163.5 -35c-43.333 0 -82 5.5 -116 16.5s-62.667 30 -86 57s-41.166 63.5 -53.499 109.5s-18.5 104.333 -18.5 175v662h133v-662c0 -46 3.16699 -84.833 9.5 -116.5s16.333 -57.167 30 -76.5
s31.167 -33.333 52.5 -42s46.666 -13 75.999 -13c50.667 0 99.5 11.167 146.5 33.5s90.833 51.5 131.5 87.5v789h133v-1000zM243 1301h174v-170h-174v170zM657 1301h176v-170h-176v170z" />
    <glyph glyph-name="yacute" unicode="&#xfd;" horiz-adv-x="917" 
d="M519 -50c-19.333 -70.667 -38.6631 -129.168 -57.9961 -175.501s-40.333 -83.166 -63 -110.499s-48.334 -46.5 -77.001 -57.5s-62.334 -16.5 -101.001 -16.5c-16.667 0 -33.334 1.33301 -50.001 4s-31.334 6.66699 -44.001 12l14 106
c2.66699 0 7.33398 -0.666992 14.001 -2l21 -4l21.5 -4c7 -1.33301 12.833 -2 17.5 -2c21.333 0 39.666 3.33301 54.999 10s29.5 19 42.5 37s26 43.333 39 76s27.833 75 44.5 127l-322 1050h137l245 -858l256 858h137l-330 -1050h1zM570.003 1446l151 -66l-235 -248l-103 40
z" />
    <glyph glyph-name="thorn" unicode="&#xfe;" horiz-adv-x="967" 
d="M113 1400l133.003 0.000976562v-475c16 15.333 32.667 28.833 50 40.5s36.166 21.5 56.499 29.5s42.833 14.167 67.5 18.5s52.667 6.5 84 6.5c55.333 0 105.5 -12.167 150.5 -36.5s83.333 -59 115 -104s56.167 -99.167 73.5 -162.5s26 -134.333 26 -213
s-8.66699 -150.167 -26 -214.5s-41.833 -119.5 -73.5 -165.5s-70 -81.5 -115 -106.5s-95.167 -37.5 -150.5 -37.5c-30 0 -57.167 2 -81.5 6s-46.833 9.83301 -67.5 17.5s-39.834 17.167 -57.501 28.5s-34.834 24.666 -51.501 39.999v-472h-133v1800zM735.003 504.001
c0 132.667 -22.333 233.501 -67 302.501s-115 103.5 -211 103.5c-40 0 -78.167 -7.16699 -114.5 -21.5s-68.5 -32.5 -96.5 -54.5v-668c28 -22 60.167 -40.167 96.5 -54.5s74.5 -21.5 114.5 -21.5c95.333 0 165.5 35.667 210.5 107s67.5 173.666 67.5 306.999z" />
    <glyph glyph-name="ydieresis" unicode="&#xff;" horiz-adv-x="917" 
d="M519 -50c-19.333 -70.667 -38.6631 -129.168 -57.9961 -175.501s-40.333 -83.166 -63 -110.499s-48.334 -46.5 -77.001 -57.5s-62.334 -16.5 -101.001 -16.5c-16.667 0 -33.334 1.33301 -50.001 4s-31.334 6.66699 -44.001 12l14 106
c2.66699 0 7.33398 -0.666992 14.001 -2l21 -4l21.5 -4c7 -1.33301 12.833 -2 17.5 -2c21.333 0 39.666 3.33301 54.999 10s29.5 19 42.5 37s26 43.333 39 76s27.833 75 44.5 127l-322 1050h137l245 -858l256 858h137l-330 -1050h1zM180.003 1301h174v-170h-174v170z
M594.003 1301h176v-170h-176v170z" />
    <glyph glyph-name="Amacron" unicode="&#x100;" horiz-adv-x="1177" 
d="M830 422h-477l-132 -422h-136l434 1360h141l439 -1360h-137zM387 532h408l-204 652zM252 1618h661v-108h-661v108z" />
    <glyph glyph-name="amacron" unicode="&#x101;" horiz-adv-x="978" 
d="M683 584v37.999c0 54 -4.33301 99.333 -13 136s-21.834 66.334 -39.501 89.001s-39.667 38.834 -66 48.501s-57.5 14.5 -93.5 14.5c-23.333 0 -46.833 -1.83301 -70.5 -5.5s-46.667 -8.83398 -69 -15.501s-43.5 -14.167 -63.5 -22.5s-38 -17.166 -54 -26.499l-33 98
c18.667 12.667 40 24 64 34s49.167 18.5 75.5 25.5s53.333 12.5 81 16.5s54.834 6 81.501 6c50 0 95.5 -6 136.5 -18s76 -33 105 -63s51.5 -70.667 67.5 -122s24 -116.333 24 -195v-622h-99l-20 111c-11.333 -10 -26.833 -22.5 -46.5 -37.5s-43.167 -29.5 -70.5 -43.5
s-58 -25.833 -92 -35.5s-71 -14.5 -111 -14.5c-45.333 0 -84.5 7.83301 -117.5 23.5s-60.5 37 -82.5 64s-38.333 58.5 -49 94.5s-16 74 -16 114c0 40.667 8.66699 79.667 26 117s41.833 70.166 73.5 98.499s69.167 50.833 112.5 67.5s91 25 143 25h216zM409 89.999
c36 0 69.3291 5.33496 99.9961 16.002s57.834 23.167 81.501 37.5s43.334 28.5 59.001 42.5s26.834 24.667 33.501 32v266h-196c-48 0 -87.5 -7.16699 -118.5 -21.5s-55.667 -32.5 -74 -54.5s-31.166 -46.333 -38.499 -73s-11 -52.334 -11 -77.001
c0 -26.667 4.16699 -50.334 12.5 -71.001s19.833 -38.167 34.5 -52.5s32 -25.333 52 -33s41.667 -11.5 65 -11.5zM166.996 1297h661v-108h-661v108z" />
    <glyph glyph-name="Abreve" unicode="&#x102;" horiz-adv-x="1177" 
d="M830 422h-477l-132 -422h-136l434 1360h141l439 -1360h-137zM387 532h408l-204 652zM580 1478c-44 -0.666992 -84.1699 3.83301 -120.503 13.5s-67.666 24.334 -93.999 44.001s-46.833 44 -61.5 73s-22 62.833 -22 101.5h122c0 -41.333 14.667 -74.333 44 -99
s73.333 -37 132 -37s102.834 12.333 132.501 37s44.5 57.667 44.5 99h119c0 -38.667 -7.33301 -72.5 -22 -101.5s-35 -53.333 -61 -73s-57.167 -34.334 -93.5 -44.001s-76.166 -14.167 -119.499 -13.5z" />
    <glyph glyph-name="abreve" unicode="&#x103;" horiz-adv-x="978" 
d="M683 584v37.999c0 54 -4.33301 99.333 -13 136s-21.834 66.334 -39.501 89.001s-39.667 38.834 -66 48.501s-57.5 14.5 -93.5 14.5c-23.333 0 -46.833 -1.83301 -70.5 -5.5s-46.667 -8.83398 -69 -15.501s-43.5 -14.167 -63.5 -22.5s-38 -17.166 -54 -26.499l-33 98
c18.667 12.667 40 24 64 34s49.167 18.5 75.5 25.5s53.333 12.5 81 16.5s54.834 6 81.501 6c50 0 95.5 -6 136.5 -18s76 -33 105 -63s51.5 -70.667 67.5 -122s24 -116.333 24 -195v-622h-99l-20 111c-11.333 -10 -26.833 -22.5 -46.5 -37.5s-43.167 -29.5 -70.5 -43.5
s-58 -25.833 -92 -35.5s-71 -14.5 -111 -14.5c-45.333 0 -84.5 7.83301 -117.5 23.5s-60.5 37 -82.5 64s-38.333 58.5 -49 94.5s-16 74 -16 114c0 40.667 8.66699 79.667 26 117s41.833 70.166 73.5 98.499s69.167 50.833 112.5 67.5s91 25 143 25h216zM409 89.999
c36 0 69.3291 5.33496 99.9961 16.002s57.834 23.167 81.501 37.5s43.334 28.5 59.001 42.5s26.834 24.667 33.501 32v266h-196c-48 0 -87.5 -7.16699 -118.5 -21.5s-55.667 -32.5 -74 -54.5s-31.166 -46.333 -38.499 -73s-11 -52.334 -11 -77.001
c0 -26.667 4.16699 -50.334 12.5 -71.001s19.833 -38.167 34.5 -52.5s32 -25.333 52 -33s41.667 -11.5 65 -11.5zM494.996 1156c-44 -0.666992 -84.1699 3.83301 -120.503 13.5s-67.666 24.334 -93.999 44.001s-46.833 44 -61.5 73s-22 62.833 -22 101.5h122
c0 -41.333 14.667 -74.333 44 -99s73.333 -37 132 -37s102.834 12.333 132.501 37s44.5 57.667 44.5 99h119c0 -38.667 -7.33301 -72.5 -22 -101.5s-35 -53.333 -61 -73s-57.167 -34.334 -93.5 -44.001s-76.166 -14.167 -119.499 -13.5z" />
    <glyph glyph-name="Aogonek" unicode="&#x104;" horiz-adv-x="1177" 
d="M830 422h-477l-132 -422h-136l434 1360h141l439 -1360h-137zM387 532h408l-204 652zM1056 0c-24 -11.333 -46.5029 -22.8311 -67.5029 -34.498s-39.333 -25 -55 -40s-28 -32.333 -37 -52s-13.5 -42.834 -13.5 -69.501c0 -22 6.33301 -39.833 19 -53.5
s26.667 -20.5 42 -20.5c9.33301 0 16.833 0.333008 22.5 1s10.667 1.5 15 2.5s8.83301 2.33301 13.5 4s10.334 3.83398 17.001 6.50098l19 -90c-7.33301 -5.33301 -21.666 -10.333 -42.999 -15s-43 -7 -65 -7c-25.333 0 -48.166 4 -68.499 12s-37.666 19.5 -51.999 34.5
s-25.333 32.667 -33 53s-11.5 43.166 -11.5 68.499c0 32.667 6 62.334 18 89.001s27.667 50.167 47 70.5s41.166 37.666 65.499 51.999s48.5 25.166 72.5 32.499l95 -40v-4z" />
    <glyph glyph-name="aogonek" unicode="&#x105;" horiz-adv-x="978" 
d="M683 584v37.999c0 54 -4.33301 99.333 -13 136s-21.834 66.334 -39.501 89.001s-39.667 38.834 -66 48.501s-57.5 14.5 -93.5 14.5c-23.333 0 -46.833 -1.83301 -70.5 -5.5s-46.667 -8.83398 -69 -15.501s-43.5 -14.167 -63.5 -22.5s-38 -17.166 -54 -26.499l-33 98
c18.667 12.667 40 24 64 34s49.167 18.5 75.5 25.5s53.333 12.5 81 16.5s54.834 6 81.501 6c50 0 95.5 -6 136.5 -18s76 -33 105 -63s51.5 -70.667 67.5 -122s24 -116.333 24 -195v-622h-99l-20 111c-11.333 -10 -26.833 -22.5 -46.5 -37.5s-43.167 -29.5 -70.5 -43.5
s-58 -25.833 -92 -35.5s-71 -14.5 -111 -14.5c-45.333 0 -84.5 7.83301 -117.5 23.5s-60.5 37 -82.5 64s-38.333 58.5 -49 94.5s-16 74 -16 114c0 40.667 8.66699 79.667 26 117s41.833 70.166 73.5 98.499s69.167 50.833 112.5 67.5s91 25 143 25h216zM409 89.999
c36 0 69.3291 5.33496 99.9961 16.002s57.834 23.167 81.501 37.5s43.334 28.5 59.001 42.5s26.834 24.667 33.501 32v266h-196c-48 0 -87.5 -7.16699 -118.5 -21.5s-55.667 -32.5 -74 -54.5s-31.166 -46.333 -38.499 -73s-11 -52.334 -11 -77.001
c0 -26.667 4.16699 -50.334 12.5 -71.001s19.833 -38.167 34.5 -52.5s32 -25.333 52 -33s41.667 -11.5 65 -11.5zM788.996 0.000976562c-24 -11.333 -46.5029 -22.8311 -67.5029 -34.498s-39.333 -25 -55 -40s-28 -32.333 -37 -52s-13.5 -42.834 -13.5 -69.501
c0 -22 6.33301 -39.833 19 -53.5s26.667 -20.5 42 -20.5c9.33301 0 16.833 0.333008 22.5 1s10.667 1.5 15 2.5s8.83301 2.33301 13.5 4s10.334 3.83398 17.001 6.50098l19 -90c-7.33301 -5.33301 -21.666 -10.333 -42.999 -15s-43 -7 -65 -7
c-25.333 0 -48.166 4 -68.499 12s-37.666 19.5 -51.999 34.5s-25.333 32.667 -33 53s-11.5 43.166 -11.5 68.499c0 32.667 6 62.334 18 89.001s27.667 50.167 47 70.5s41.166 37.666 65.499 51.999s48.5 25.166 72.5 32.499l95 -40v-4z" />
    <glyph glyph-name="Cacute" unicode="&#x106;" horiz-adv-x="1023" 
d="M119 682c0 105.333 12.3359 201.003 37.0029 287.003s60 159.5 106 220.5s101.833 108 167.5 141s139.5 49.5 221.5 49.5c59.333 0 109.833 -7.33301 151.5 -22s77.167 -31 106.5 -49l-42 -95c-30 17.333 -63.667 31 -101 41s-77 15 -119 15
c-58 0 -111.333 -11.333 -160 -34s-90.334 -57.834 -125.001 -105.501s-61.667 -108.667 -81 -183s-29 -162.833 -29 -265.5c0 -103.333 10.333 -192.166 31 -266.499s49.667 -135.666 87 -183.999s81.666 -84 132.999 -107s108 -34.5 170 -34.5
c26 0 50.167 2.16699 72.5 6.5s43.166 9.66602 62.499 15.999s37 13.166 53 20.499s30.333 14.333 43 21l34 -92c-30 -23.333 -68 -42.833 -114 -58.5s-101.333 -23.5 -166 -23.5c-82.667 0 -157.167 16.833 -223.5 50.5s-122.833 81.167 -169.5 142.5
s-82.667 135.166 -108 221.499s-38 182.166 -38 287.499zM735.003 1806l151 -66l-235 -248l-103 40z" />
    <glyph glyph-name="cacute" unicode="&#x107;" horiz-adv-x="858" 
d="M124 502c0 78.667 9.49902 149.831 28.499 213.498s46.333 118 82 163s79.5 79.833 131.5 104.5s111 37 177 37c54 0 100.667 -4.66699 140 -14s72.666 -22.666 99.999 -39.999l-44 -98l-33 14.5c-11.333 5 -24.166 9.5 -38.499 13.5s-30.5 7.33301 -48.5 10s-39 4 -63 4
c-44.667 0 -85.334 -7.83301 -122.001 -23.5s-68.167 -40 -94.5 -73s-46.666 -75.333 -60.999 -127s-21.5 -113.167 -21.5 -184.5s7 -133 21 -185s34 -94.833 60 -128.5s57.167 -58.5 93.5 -74.5s76.833 -24 121.5 -24c50 0 92.667 5.5 128 16.5s66 23.5 92 37.5l44 -98
c-28 -21.333 -63 -37.666 -105 -48.999s-91.333 -17 -148 -17c-69.333 0 -131.166 12.5 -185.499 37.5s-100.333 60.333 -138 106s-66.5 100.5 -86.5 164.5s-30 135.333 -30 214zM630.999 1466l151 -66l-235 -248l-103 40z" />
    <glyph glyph-name="Ccircumflex" unicode="&#x108;" horiz-adv-x="1023" 
d="M119 682c0 105.333 12.3359 201.003 37.0029 287.003s60 159.5 106 220.5s101.833 108 167.5 141s139.5 49.5 221.5 49.5c59.333 0 109.833 -7.33301 151.5 -22s77.167 -31 106.5 -49l-42 -95c-30 17.333 -63.667 31 -101 41s-77 15 -119 15
c-58 0 -111.333 -11.333 -160 -34s-90.334 -57.834 -125.001 -105.501s-61.667 -108.667 -81 -183s-29 -162.833 -29 -265.5c0 -103.333 10.333 -192.166 31 -266.499s49.667 -135.666 87 -183.999s81.666 -84 132.999 -107s108 -34.5 170 -34.5
c26 0 50.167 2.16699 72.5 6.5s43.166 9.66602 62.499 15.999s37 13.166 53 20.499s30.333 14.333 43 21l34 -92c-30 -23.333 -68 -42.833 -114 -58.5s-101.333 -23.5 -166 -23.5c-82.667 0 -157.167 16.833 -223.5 50.5s-122.833 81.167 -169.5 142.5
s-82.667 135.166 -108 221.499s-38 182.166 -38 287.499zM499.003 1490h-167l260 232h94l258 -232h-166l-139 117z" />
    <glyph glyph-name="ccircumflex" unicode="&#x109;" horiz-adv-x="858" 
d="M124 502c0 78.667 9.49902 149.831 28.499 213.498s46.333 118 82 163s79.5 79.833 131.5 104.5s111 37 177 37c54 0 100.667 -4.66699 140 -14s72.666 -22.666 99.999 -39.999l-44 -98l-33 14.5c-11.333 5 -24.166 9.5 -38.499 13.5s-30.5 7.33301 -48.5 10s-39 4 -63 4
c-44.667 0 -85.334 -7.83301 -122.001 -23.5s-68.167 -40 -94.5 -73s-46.666 -75.333 -60.999 -127s-21.5 -113.167 -21.5 -184.5s7 -133 21 -185s34 -94.833 60 -128.5s57.167 -58.5 93.5 -74.5s76.833 -24 121.5 -24c50 0 92.667 5.5 128 16.5s66 23.5 92 37.5l44 -98
c-28 -21.333 -63 -37.666 -105 -48.999s-91.333 -17 -148 -17c-69.333 0 -131.166 12.5 -185.499 37.5s-100.333 60.333 -138 106s-66.5 100.5 -86.5 164.5s-30 135.333 -30 214zM394.999 1150h-167l260 232h94l258 -232h-166l-139 117z" />
    <glyph glyph-name="Cdotaccent" unicode="&#x10a;" horiz-adv-x="1023" 
d="M119 682c0 105.333 12.3359 201.003 37.0029 287.003s60 159.5 106 220.5s101.833 108 167.5 141s139.5 49.5 221.5 49.5c59.333 0 109.833 -7.33301 151.5 -22s77.167 -31 106.5 -49l-42 -95c-30 17.333 -63.667 31 -101 41s-77 15 -119 15
c-58 0 -111.333 -11.333 -160 -34s-90.334 -57.834 -125.001 -105.501s-61.667 -108.667 -81 -183s-29 -162.833 -29 -265.5c0 -103.333 10.333 -192.166 31 -266.499s49.667 -135.666 87 -183.999s81.666 -84 132.999 -107s108 -34.5 170 -34.5
c26 0 50.167 2.16699 72.5 6.5s43.166 9.66602 62.499 15.999s37 13.166 53 20.499s30.333 14.333 43 21l34 -92c-30 -23.333 -68 -42.833 -114 -58.5s-101.333 -23.5 -166 -23.5c-82.667 0 -157.167 16.833 -223.5 50.5s-122.833 81.167 -169.5 142.5
s-82.667 135.166 -108 221.499s-38 182.166 -38 287.499zM524.003 1654h164v-164h-164v164z" />
    <glyph glyph-name="cdotaccent" unicode="&#x10b;" horiz-adv-x="858" 
d="M124 502c0 78.667 9.49902 149.831 28.499 213.498s46.333 118 82 163s79.5 79.833 131.5 104.5s111 37 177 37c54 0 100.667 -4.66699 140 -14s72.666 -22.666 99.999 -39.999l-44 -98l-33 14.5c-11.333 5 -24.166 9.5 -38.499 13.5s-30.5 7.33301 -48.5 10s-39 4 -63 4
c-44.667 0 -85.334 -7.83301 -122.001 -23.5s-68.167 -40 -94.5 -73s-46.666 -75.333 -60.999 -127s-21.5 -113.167 -21.5 -184.5s7 -133 21 -185s34 -94.833 60 -128.5s57.167 -58.5 93.5 -74.5s76.833 -24 121.5 -24c50 0 92.667 5.5 128 16.5s66 23.5 92 37.5l44 -98
c-28 -21.333 -63 -37.666 -105 -48.999s-91.333 -17 -148 -17c-69.333 0 -131.166 12.5 -185.499 37.5s-100.333 60.333 -138 106s-66.5 100.5 -86.5 164.5s-30 135.333 -30 214zM419.999 1315h164v-164h-164v164z" />
    <glyph glyph-name="Ccaron" unicode="&#x10c;" horiz-adv-x="1023" 
d="M119 682c0 105.333 12.3359 201.003 37.0029 287.003s60 159.5 106 220.5s101.833 108 167.5 141s139.5 49.5 221.5 49.5c59.333 0 109.833 -7.33301 151.5 -22s77.167 -31 106.5 -49l-42 -95c-30 17.333 -63.667 31 -101 41s-77 15 -119 15
c-58 0 -111.333 -11.333 -160 -34s-90.334 -57.834 -125.001 -105.501s-61.667 -108.667 -81 -183s-29 -162.833 -29 -265.5c0 -103.333 10.333 -192.166 31 -266.499s49.667 -135.666 87 -183.999s81.666 -84 132.999 -107s108 -34.5 170 -34.5
c26 0 50.167 2.16699 72.5 6.5s43.166 9.66602 62.499 15.999s37 13.166 53 20.499s30.333 14.333 43 21l34 -92c-30 -23.333 -68 -42.833 -114 -58.5s-101.333 -23.5 -166 -23.5c-82.667 0 -157.167 16.833 -223.5 50.5s-122.833 81.167 -169.5 142.5
s-82.667 135.166 -108 221.499s-38 182.166 -38 287.499zM766.003 1724h166l-258 -232h-94l-260 232h167l140 -133z" />
    <glyph glyph-name="ccaron" unicode="&#x10d;" horiz-adv-x="858" 
d="M124 502c0 78.667 9.49902 149.831 28.499 213.498s46.333 118 82 163s79.5 79.833 131.5 104.5s111 37 177 37c54 0 100.667 -4.66699 140 -14s72.666 -22.666 99.999 -39.999l-44 -98l-33 14.5c-11.333 5 -24.166 9.5 -38.499 13.5s-30.5 7.33301 -48.5 10s-39 4 -63 4
c-44.667 0 -85.334 -7.83301 -122.001 -23.5s-68.167 -40 -94.5 -73s-46.666 -75.333 -60.999 -127s-21.5 -113.167 -21.5 -184.5s7 -133 21 -185s34 -94.833 60 -128.5s57.167 -58.5 93.5 -74.5s76.833 -24 121.5 -24c50 0 92.667 5.5 128 16.5s66 23.5 92 37.5l44 -98
c-28 -21.333 -63 -37.666 -105 -48.999s-91.333 -17 -148 -17c-69.333 0 -131.166 12.5 -185.499 37.5s-100.333 60.333 -138 106s-66.5 100.5 -86.5 164.5s-30 135.333 -30 214zM661.999 1384h166l-258 -232h-94l-260 232h167l140 -133z" />
    <glyph glyph-name="Dcaron" unicode="&#x10e;" horiz-adv-x="1216" 
d="M184 1360l348 0.00292969c86 0 163.667 -16.167 233 -48.5s128.5 -78 177.5 -137s86.833 -130.167 113.5 -213.5s40 -176.333 40 -279s-13.333 -195.834 -40 -279.501s-64.5 -155.334 -113.5 -215.001s-108.167 -105.834 -177.5 -138.501s-147 -49 -233 -49h-348v1360z
M318 1250v-1140h196c65.333 0 125.5 11.167 180.5 33.5s102.333 56.833 142 103.5s70.667 106 93 178s33.5 157.667 33.5 257s-11.167 184.833 -33.5 256.5s-53.333 130.5 -93 176.5s-87 80 -142 102s-115.167 33 -180.5 33h-196zM607 1704h166l-258 -232h-94l-260 232h167
l140 -133z" />
    <glyph glyph-name="dcaron" unicode="&#x10f;" horiz-adv-x="1166" 
d="M755 71c-16.667 -14.667 -33.499 -27.668 -50.499 -39.001s-35.5 -20.833 -55.5 -28.5s-42.333 -13.5 -67 -17.5s-52.667 -6 -84 -6c-56 0 -105.833 12.5 -149.5 37.5s-80.834 60.333 -111.501 106s-54 100.5 -70 164.5s-24 135.333 -24 214s8 149.834 24 213.501
s39.333 118 70 163s67.834 79.833 111.501 104.5s93.5 37 149.5 37c30 0 56.833 -1.83301 80.5 -5.5s45.667 -9.16699 66 -16.5s39.166 -16.5 56.499 -27.5s34.333 -23.833 51 -38.5v468h134v-1400h-127zM276.001 501.999c0 -133.333 20.668 -235.332 62.001 -305.999
s109.666 -106 204.999 -106c40 0 77.833 7.16699 113.5 21.5s67.5 32.5 95.5 54.5v667c-28 22 -59.833 40.333 -95.5 55s-73.5 22 -113.5 22c-48 0 -88.833 -8.83301 -122.5 -26.5s-61.167 -43.667 -82.5 -78s-37 -76.833 -47 -127.5s-15 -109.334 -15 -176.001zM1046 1401
h178l-153 -456l-105 20z" />
    <glyph glyph-name="Dcroat" unicode="&#x110;" horiz-adv-x="1245" 
d="M233 666l-129 0.00292969v110h129v584h348c86 0 163.667 -16.167 233 -48.5s128.5 -78 177.5 -137s86.833 -130.167 113.5 -213.5s40 -176.333 40 -279s-13.333 -195.834 -40 -279.501s-64.5 -155.334 -113.5 -215.001s-108.167 -105.834 -177.5 -138.501
s-147 -49 -233 -49h-348v666zM367 666.003v-556h196c65.333 0 125.5 11.167 180.5 33.5s102.333 56.833 142 103.5s70.667 106 93 178s33.5 157.667 33.5 257s-11.167 184.833 -33.5 256.5s-53.333 130.5 -93 176.5s-87 80 -142 102s-115.167 33 -180.5 33h-196v-474h256
v-110h-256z" />
    <glyph glyph-name="dcroat" unicode="&#x111;" horiz-adv-x="1049" 
d="M752 71c-16.667 -14.667 -33.499 -27.668 -50.499 -39.001s-35.5 -20.833 -55.5 -28.5s-42.333 -13.5 -67 -17.5s-52.667 -6 -84 -6c-56 0 -105.833 12.5 -149.5 37.5s-80.834 60.333 -111.501 106s-54 100.5 -70 164.5s-24 135.333 -24 214s8 149.834 24 213.501
s39.333 118 70 163s67.834 79.833 111.501 104.5s93.5 37 149.5 37c30 0 56.833 -1.83301 80.5 -5.5s45.667 -9.16699 66 -16.5s39.166 -16.5 56.499 -27.5s34.333 -23.833 51 -38.5v468h134v-1400h-127zM273.001 501.999c0 -133.333 20.668 -235.332 62.001 -305.999
s109.666 -106 204.999 -106c40 0 77.833 7.16699 113.5 21.5s67.5 32.5 95.5 54.5v667c-28 22 -59.833 40.333 -95.5 55s-73.5 22 -113.5 22c-48 0 -88.833 -8.83301 -122.5 -26.5s-61.167 -43.667 -82.5 -78s-37 -76.833 -47 -127.5s-15 -109.334 -15 -176.001z
M351.002 1269h661v-108h-661v108z" />
    <glyph glyph-name="Emacron" unicode="&#x112;" horiz-adv-x="949" 
d="M184 0v1360h670v-110h-536v-492h479v-110h-479v-538h536v-110h-670zM180 1616h661v-108h-661v108z" />
    <glyph glyph-name="emacron" unicode="&#x113;" horiz-adv-x="984" 
d="M256 516l-0.00292969 -23.9971c0 -63.333 6 -120 18 -170s30 -92.167 54 -126.5s54.167 -60.5 90.5 -78.5s78.5 -27 126.5 -27c31.333 0 59.666 2.16699 84.999 6.5s48.333 9.66602 69 15.999s39 13.166 55 20.499s30.333 14.333 43 21l37 -102
c-35.333 -22 -77.666 -39.5 -126.999 -52.5s-102.333 -19.5 -159 -19.5c-69.333 0 -130.5 11.5 -183.5 34.5s-97.5 56.333 -133.5 100s-63.167 97.167 -81.5 160.5s-27.5 135.666 -27.5 216.999c0 83.333 8.83301 157.833 26.5 223.5s43.334 121 77.001 166
s74.834 79.333 123.501 103s103.667 35.5 165 35.5c50 0 96.333 -8.66699 139 -26s79.334 -42.833 110.001 -76.5s54.667 -75 72 -124s26 -104.833 26 -167.5v-110h-605zM517.997 910.003c-34.667 0 -66.1689 -4.66797 -94.502 -14.001s-53.333 -25 -75 -47
s-39.834 -51.167 -54.501 -87.5s-25 -81.5 -31 -135.5h464c0 50.667 -5.66699 93.834 -17 129.501s-26.666 65 -45.999 88s-41.666 39.833 -66.999 50.5s-51.666 16 -78.999 16zM185.995 1297h661v-108h-661v108z" />
    <glyph glyph-name="Edotaccent" unicode="&#x116;" horiz-adv-x="949" 
d="M184 0v1360h670v-110h-536v-492h479v-110h-479v-538h536v-110h-670zM405 1634h164v-164h-164v164z" />
    <glyph glyph-name="edotaccent" unicode="&#x117;" horiz-adv-x="984" 
d="M256 516l-0.00292969 -23.9971c0 -63.333 6 -120 18 -170s30 -92.167 54 -126.5s54.167 -60.5 90.5 -78.5s78.5 -27 126.5 -27c31.333 0 59.666 2.16699 84.999 6.5s48.333 9.66602 69 15.999s39 13.166 55 20.499s30.333 14.333 43 21l37 -102
c-35.333 -22 -77.666 -39.5 -126.999 -52.5s-102.333 -19.5 -159 -19.5c-69.333 0 -130.5 11.5 -183.5 34.5s-97.5 56.333 -133.5 100s-63.167 97.167 -81.5 160.5s-27.5 135.666 -27.5 216.999c0 83.333 8.83301 157.833 26.5 223.5s43.334 121 77.001 166
s74.834 79.333 123.501 103s103.667 35.5 165 35.5c50 0 96.333 -8.66699 139 -26s79.334 -42.833 110.001 -76.5s54.667 -75 72 -124s26 -104.833 26 -167.5v-110h-605zM517.997 910.003c-34.667 0 -66.1689 -4.66797 -94.502 -14.001s-53.333 -25 -75 -47
s-39.834 -51.167 -54.501 -87.5s-25 -81.5 -31 -135.5h464c0 50.667 -5.66699 93.834 -17 129.501s-26.666 65 -45.999 88s-41.666 39.833 -66.999 50.5s-51.666 16 -78.999 16zM410.995 1315h164v-164h-164v164z" />
    <glyph glyph-name="Eogonek" unicode="&#x118;" horiz-adv-x="949" 
d="M184 0v1360h670v-110h-536v-492h479v-110h-479v-538h536v-110h-670zM826 0c-24 -11.333 -46.5029 -22.8311 -67.5029 -34.498s-39.333 -25 -55 -40s-28 -32.333 -37 -52s-13.5 -42.834 -13.5 -69.501c0 -22 6.33301 -39.833 19 -53.5s26.667 -20.5 42 -20.5
c9.33301 0 16.833 0.333008 22.5 1s10.667 1.5 15 2.5s8.83301 2.33301 13.5 4s10.334 3.83398 17.001 6.50098l19 -90c-7.33301 -5.33301 -21.666 -10.333 -42.999 -15s-43 -7 -65 -7c-25.333 0 -48.166 4 -68.499 12s-37.666 19.5 -51.999 34.5s-25.333 32.667 -33 53
s-11.5 43.166 -11.5 68.499c0 32.667 6 62.334 18 89.001s27.667 50.167 47 70.5s41.166 37.666 65.499 51.999s48.5 25.166 72.5 32.499l95 -40v-4z" />
    <glyph glyph-name="eogonek" unicode="&#x119;" horiz-adv-x="984" 
d="M256 516l-0.00292969 -23.9971c0 -63.333 6 -120 18 -170s30 -92.167 54 -126.5s54.167 -60.5 90.5 -78.5s78.5 -27 126.5 -27c31.333 0 59.666 2.16699 84.999 6.5s48.333 9.66602 69 15.999s39 13.166 55 20.499s30.333 14.333 43 21l37 -102
c-35.333 -22 -77.666 -39.5 -126.999 -52.5s-102.333 -19.5 -159 -19.5c-69.333 0 -130.5 11.5 -183.5 34.5s-97.5 56.333 -133.5 100s-63.167 97.167 -81.5 160.5s-27.5 135.666 -27.5 216.999c0 83.333 8.83301 157.833 26.5 223.5s43.334 121 77.001 166
s74.834 79.333 123.501 103s103.667 35.5 165 35.5c50 0 96.333 -8.66699 139 -26s79.334 -42.833 110.001 -76.5s54.667 -75 72 -124s26 -104.833 26 -167.5v-110h-605zM517.997 910.003c-34.667 0 -66.1689 -4.66797 -94.502 -14.001s-53.333 -25 -75 -47
s-39.834 -51.167 -54.501 -87.5s-25 -81.5 -31 -135.5h464c0 50.667 -5.66699 93.834 -17 129.501s-26.666 65 -45.999 88s-41.666 39.833 -66.999 50.5s-51.666 16 -78.999 16zM680.995 0.00195312c-24 -11.333 -46.5029 -22.8311 -67.5029 -34.498s-39.333 -25 -55 -40
s-28 -32.333 -37 -52s-13.5 -42.834 -13.5 -69.501c0 -22 6.33301 -39.833 19 -53.5s26.667 -20.5 42 -20.5c9.33301 0 16.833 0.333008 22.5 1s10.667 1.5 15 2.5s8.83301 2.33301 13.5 4s10.334 3.83398 17.001 6.50098l19 -90
c-7.33301 -5.33301 -21.666 -10.333 -42.999 -15s-43 -7 -65 -7c-25.333 0 -48.166 4 -68.499 12s-37.666 19.5 -51.999 34.5s-25.333 32.667 -33 53s-11.5 43.166 -11.5 68.499c0 32.667 6 62.334 18 89.001s27.667 50.167 47 70.5s41.166 37.666 65.499 51.999
s48.5 25.166 72.5 32.499l95 -40v-4z" />
    <glyph glyph-name="Ecaron" unicode="&#x11a;" horiz-adv-x="949" 
d="M184 0v1360h670v-110h-536v-492h479v-110h-479v-538h536v-110h-670zM647 1704h166l-258 -232h-94l-260 232h167l140 -133z" />
    <glyph glyph-name="ecaron" unicode="&#x11b;" horiz-adv-x="984" 
d="M256 516l-0.00292969 -23.9971c0 -63.333 6 -120 18 -170s30 -92.167 54 -126.5s54.167 -60.5 90.5 -78.5s78.5 -27 126.5 -27c31.333 0 59.666 2.16699 84.999 6.5s48.333 9.66602 69 15.999s39 13.166 55 20.499s30.333 14.333 43 21l37 -102
c-35.333 -22 -77.666 -39.5 -126.999 -52.5s-102.333 -19.5 -159 -19.5c-69.333 0 -130.5 11.5 -183.5 34.5s-97.5 56.333 -133.5 100s-63.167 97.167 -81.5 160.5s-27.5 135.666 -27.5 216.999c0 83.333 8.83301 157.833 26.5 223.5s43.334 121 77.001 166
s74.834 79.333 123.501 103s103.667 35.5 165 35.5c50 0 96.333 -8.66699 139 -26s79.334 -42.833 110.001 -76.5s54.667 -75 72 -124s26 -104.833 26 -167.5v-110h-605zM517.997 910.003c-34.667 0 -66.1689 -4.66797 -94.502 -14.001s-53.333 -25 -75 -47
s-39.834 -51.167 -54.501 -87.5s-25 -81.5 -31 -135.5h464c0 50.667 -5.66699 93.834 -17 129.501s-26.666 65 -45.999 88s-41.666 39.833 -66.999 50.5s-51.666 16 -78.999 16zM652.995 1384h166l-258 -232h-94l-260 232h167l140 -133z" />
    <glyph glyph-name="Gcircumflex" unicode="&#x11c;" horiz-adv-x="1219" 
d="M640 664l425.001 -0.00390625v-596c-56 -27.333 -114 -48.833 -174 -64.5s-125.333 -23.5 -196 -23.5c-88 0 -167.333 18.667 -238 56s-130.834 88 -180.501 152s-88 138.333 -115 223s-40.5 174.334 -40.5 269.001c0 111.333 14.333 210.5 43 297.5
s69.667 160.333 123 220s117.833 105 193.5 136s160.834 46.5 255.501 46.5c61.333 0 113.666 -6.66699 156.999 -20s77.333 -26 102 -38l-31 -106c-28 12 -60.667 24 -98 36s-80 18 -128 18c-72.667 0 -138.667 -11.667 -198 -35s-110.166 -59.166 -152.499 -107.499
s-75 -109.666 -98 -183.999s-34.5 -162.166 -34.5 -263.499c0 -76 10.5 -149.5 31.5 -220.5s50.667 -133.833 89 -188.5s84.666 -98.5 138.999 -131.5s114.5 -49.5 180.5 -49.5c42 0 83.667 2.83301 125 8.5s79 16.167 113 31.5v424h-293v110zM571.001 1488h-167l260 232h94
l258 -232h-166l-139 117z" />
    <glyph glyph-name="gcircumflex" unicode="&#x11d;" horiz-adv-x="1050" 
d="M147 660c0 59.333 8.83105 111.502 26.498 156.502s42.5 82.5 74.5 112.5s70.833 52.667 116.5 68s96.5 23 152.5 23c50.667 0 98 -6.66699 142 -20h320l-17 -110h-138c22 -29.333 39 -63 51 -101s18 -81 18 -129c0 -56 -9.16699 -106.333 -27.5 -151
s-44.166 -82.5 -77.499 -113.5s-73 -54.667 -119 -71s-96.667 -24.5 -152 -24.5c-57.333 0 -109.333 8.66699 -156 26c-13.333 -16 -23.666 -33.833 -30.999 -53.5s-11 -42.167 -11 -67.5c0 -6 0.833008 -13.5 2.5 -22.5s4 -18 7 -27s6.5 -17.667 10.5 -26
s8.33301 -14.833 13 -19.5h273c50.667 0 96 -6.33301 136 -19s73.667 -31 101 -55s48.166 -53 62.499 -87s21.5 -72.333 21.5 -115c-1.33301 -45.333 -12.5 -86.833 -33.5 -124.5s-50.5 -70.334 -88.5 -98.001s-83.667 -49.167 -137 -64.5s-112.666 -23 -177.999 -23
c-48.667 0 -97.5 4 -146.5 12s-93.333 22.333 -133 43s-72 48.834 -97 84.501s-37.5 81.167 -37.5 136.5c0 53.333 11.333 99.666 34 138.999s61 74 115 104c-12.667 17.333 -24.5 38 -35.5 62s-16.5 52 -16.5 84c0 42 7.66699 77.167 23 105.5s36 53.833 62 76.5
c-42 31.333 -74.167 71.166 -96.5 119.499s-33.5 104.833 -33.5 169.5zM279.998 660.002c0 -37.333 4.83105 -71.333 14.498 -102s24.334 -57 44.001 -79s44.334 -39 74.001 -51s64.5 -18 104.5 -18c38.667 0 73 6 103 18s55.333 29 76 51s36.5 48.333 47.5 79
s16.5 64.667 16.5 102c0 42 -6.33301 78.667 -19 110s-30 57.333 -52 78s-47.833 36.167 -77.5 46.5s-61.167 15.5 -94.5 15.5c-34 0 -65.5 -5.16699 -94.5 -15.5s-54 -25.833 -75 -46.5s-37.5 -46.667 -49.5 -78s-18 -68 -18 -110zM343.996 0.00195312
c-18.667 -14.667 -35.1699 -28.8359 -49.5029 -42.5029s-26.333 -28.167 -36 -43.5s-17 -32.166 -22 -50.499s-7.5 -38.833 -7.5 -61.5c0 -21.333 4.83301 -40.5 14.5 -57.5s22.5 -31.667 38.5 -44s34 -22.833 54 -31.5s40.667 -15.5 62 -20.5s42 -8.66699 62 -11
s37.667 -3.5 53 -3.5c43.333 0 83.333 4.83301 120 14.5s68.334 22.834 95.001 39.501s47.5 36.5 62.5 59.5s22.5 48.167 22.5 75.5c0 24.667 -3.33301 47.834 -10 69.501s-18.167 40.5 -34.5 56.5s-38.666 28.5 -66.999 37.5s-64.166 13.5 -107.499 13.5h-250z
M385.993 1148h-167l260 232h94l258 -232h-166l-139 117z" />
    <glyph glyph-name="Gbreve" unicode="&#x11e;" horiz-adv-x="1219" 
d="M640 664l425.001 -0.00390625v-596c-56 -27.333 -114 -48.833 -174 -64.5s-125.333 -23.5 -196 -23.5c-88 0 -167.333 18.667 -238 56s-130.834 88 -180.501 152s-88 138.333 -115 223s-40.5 174.334 -40.5 269.001c0 111.333 14.333 210.5 43 297.5
s69.667 160.333 123 220s117.833 105 193.5 136s160.834 46.5 255.501 46.5c61.333 0 113.666 -6.66699 156.999 -20s77.333 -26 102 -38l-31 -106c-28 12 -60.667 24 -98 36s-80 18 -128 18c-72.667 0 -138.667 -11.667 -198 -35s-110.166 -59.166 -152.499 -107.499
s-75 -109.666 -98 -183.999s-34.5 -162.166 -34.5 -263.499c0 -76 10.5 -149.5 31.5 -220.5s50.667 -133.833 89 -188.5s84.666 -98.5 138.999 -131.5s114.5 -49.5 180.5 -49.5c42 0 83.667 2.83301 125 8.5s79 16.167 113 31.5v424h-293v110zM699.001 1494
c-44 -0.666992 -84.1699 3.83301 -120.503 13.5s-67.666 24.334 -93.999 44.001s-46.833 44 -61.5 73s-22 62.833 -22 101.5h122c0 -41.333 14.667 -74.333 44 -99s73.333 -37 132 -37s102.834 12.333 132.501 37s44.5 57.667 44.5 99h119
c0 -38.667 -7.33301 -72.5 -22 -101.5s-35 -53.333 -61 -73s-57.167 -34.334 -93.5 -44.001s-76.166 -14.167 -119.499 -13.5z" />
    <glyph glyph-name="gbreve" unicode="&#x11f;" horiz-adv-x="1050" 
d="M147 660c0 59.333 8.83105 111.502 26.498 156.502s42.5 82.5 74.5 112.5s70.833 52.667 116.5 68s96.5 23 152.5 23c50.667 0 98 -6.66699 142 -20h320l-17 -110h-138c22 -29.333 39 -63 51 -101s18 -81 18 -129c0 -56 -9.16699 -106.333 -27.5 -151
s-44.166 -82.5 -77.499 -113.5s-73 -54.667 -119 -71s-96.667 -24.5 -152 -24.5c-57.333 0 -109.333 8.66699 -156 26c-13.333 -16 -23.666 -33.833 -30.999 -53.5s-11 -42.167 -11 -67.5c0 -6 0.833008 -13.5 2.5 -22.5s4 -18 7 -27s6.5 -17.667 10.5 -26
s8.33301 -14.833 13 -19.5h273c50.667 0 96 -6.33301 136 -19s73.667 -31 101 -55s48.166 -53 62.499 -87s21.5 -72.333 21.5 -115c-1.33301 -45.333 -12.5 -86.833 -33.5 -124.5s-50.5 -70.334 -88.5 -98.001s-83.667 -49.167 -137 -64.5s-112.666 -23 -177.999 -23
c-48.667 0 -97.5 4 -146.5 12s-93.333 22.333 -133 43s-72 48.834 -97 84.501s-37.5 81.167 -37.5 136.5c0 53.333 11.333 99.666 34 138.999s61 74 115 104c-12.667 17.333 -24.5 38 -35.5 62s-16.5 52 -16.5 84c0 42 7.66699 77.167 23 105.5s36 53.833 62 76.5
c-42 31.333 -74.167 71.166 -96.5 119.499s-33.5 104.833 -33.5 169.5zM279.998 660.002c0 -37.333 4.83105 -71.333 14.498 -102s24.334 -57 44.001 -79s44.334 -39 74.001 -51s64.5 -18 104.5 -18c38.667 0 73 6 103 18s55.333 29 76 51s36.5 48.333 47.5 79
s16.5 64.667 16.5 102c0 42 -6.33301 78.667 -19 110s-30 57.333 -52 78s-47.833 36.167 -77.5 46.5s-61.167 15.5 -94.5 15.5c-34 0 -65.5 -5.16699 -94.5 -15.5s-54 -25.833 -75 -46.5s-37.5 -46.667 -49.5 -78s-18 -68 -18 -110zM343.996 0.00195312
c-18.667 -14.667 -35.1699 -28.8359 -49.5029 -42.5029s-26.333 -28.167 -36 -43.5s-17 -32.166 -22 -50.499s-7.5 -38.833 -7.5 -61.5c0 -21.333 4.83301 -40.5 14.5 -57.5s22.5 -31.667 38.5 -44s34 -22.833 54 -31.5s40.667 -15.5 62 -20.5s42 -8.66699 62 -11
s37.667 -3.5 53 -3.5c43.333 0 83.333 4.83301 120 14.5s68.334 22.834 95.001 39.501s47.5 36.5 62.5 59.5s22.5 48.167 22.5 75.5c0 24.667 -3.33301 47.834 -10 69.501s-18.167 40.5 -34.5 56.5s-38.666 28.5 -66.999 37.5s-64.166 13.5 -107.499 13.5h-250z
M513.993 1154c-44 -0.666992 -84.1699 3.83301 -120.503 13.5s-67.666 24.334 -93.999 44.001s-46.833 44 -61.5 73s-22 62.833 -22 101.5h122c0 -41.333 14.667 -74.333 44 -99s73.333 -37 132 -37s102.834 12.333 132.501 37s44.5 57.667 44.5 99h119
c0 -38.667 -7.33301 -72.5 -22 -101.5s-35 -53.333 -61 -73s-57.167 -34.334 -93.5 -44.001s-76.166 -14.167 -119.499 -13.5z" />
    <glyph glyph-name="Gdotaccent" unicode="&#x120;" horiz-adv-x="1219" 
d="M640 664l425.001 -0.00390625v-596c-56 -27.333 -114 -48.833 -174 -64.5s-125.333 -23.5 -196 -23.5c-88 0 -167.333 18.667 -238 56s-130.834 88 -180.501 152s-88 138.333 -115 223s-40.5 174.334 -40.5 269.001c0 111.333 14.333 210.5 43 297.5
s69.667 160.333 123 220s117.833 105 193.5 136s160.834 46.5 255.501 46.5c61.333 0 113.666 -6.66699 156.999 -20s77.333 -26 102 -38l-31 -106c-28 12 -60.667 24 -98 36s-80 18 -128 18c-72.667 0 -138.667 -11.667 -198 -35s-110.166 -59.166 -152.499 -107.499
s-75 -109.666 -98 -183.999s-34.5 -162.166 -34.5 -263.499c0 -76 10.5 -149.5 31.5 -220.5s50.667 -133.833 89 -188.5s84.666 -98.5 138.999 -131.5s114.5 -49.5 180.5 -49.5c42 0 83.667 2.83301 125 8.5s79 16.167 113 31.5v424h-293v110zM596.001 1652h164v-164h-164
v164z" />
    <glyph glyph-name="gdotaccent" unicode="&#x121;" horiz-adv-x="1050" 
d="M147 660c0 59.333 8.83105 111.502 26.498 156.502s42.5 82.5 74.5 112.5s70.833 52.667 116.5 68s96.5 23 152.5 23c50.667 0 98 -6.66699 142 -20h320l-17 -110h-138c22 -29.333 39 -63 51 -101s18 -81 18 -129c0 -56 -9.16699 -106.333 -27.5 -151
s-44.166 -82.5 -77.499 -113.5s-73 -54.667 -119 -71s-96.667 -24.5 -152 -24.5c-57.333 0 -109.333 8.66699 -156 26c-13.333 -16 -23.666 -33.833 -30.999 -53.5s-11 -42.167 -11 -67.5c0 -6 0.833008 -13.5 2.5 -22.5s4 -18 7 -27s6.5 -17.667 10.5 -26
s8.33301 -14.833 13 -19.5h273c50.667 0 96 -6.33301 136 -19s73.667 -31 101 -55s48.166 -53 62.499 -87s21.5 -72.333 21.5 -115c-1.33301 -45.333 -12.5 -86.833 -33.5 -124.5s-50.5 -70.334 -88.5 -98.001s-83.667 -49.167 -137 -64.5s-112.666 -23 -177.999 -23
c-48.667 0 -97.5 4 -146.5 12s-93.333 22.333 -133 43s-72 48.834 -97 84.501s-37.5 81.167 -37.5 136.5c0 53.333 11.333 99.666 34 138.999s61 74 115 104c-12.667 17.333 -24.5 38 -35.5 62s-16.5 52 -16.5 84c0 42 7.66699 77.167 23 105.5s36 53.833 62 76.5
c-42 31.333 -74.167 71.166 -96.5 119.499s-33.5 104.833 -33.5 169.5zM279.998 660.002c0 -37.333 4.83105 -71.333 14.498 -102s24.334 -57 44.001 -79s44.334 -39 74.001 -51s64.5 -18 104.5 -18c38.667 0 73 6 103 18s55.333 29 76 51s36.5 48.333 47.5 79
s16.5 64.667 16.5 102c0 42 -6.33301 78.667 -19 110s-30 57.333 -52 78s-47.833 36.167 -77.5 46.5s-61.167 15.5 -94.5 15.5c-34 0 -65.5 -5.16699 -94.5 -15.5s-54 -25.833 -75 -46.5s-37.5 -46.667 -49.5 -78s-18 -68 -18 -110zM343.996 0.00195312
c-18.667 -14.667 -35.1699 -28.8359 -49.5029 -42.5029s-26.333 -28.167 -36 -43.5s-17 -32.166 -22 -50.499s-7.5 -38.833 -7.5 -61.5c0 -21.333 4.83301 -40.5 14.5 -57.5s22.5 -31.667 38.5 -44s34 -22.833 54 -31.5s40.667 -15.5 62 -20.5s42 -8.66699 62 -11
s37.667 -3.5 53 -3.5c43.333 0 83.333 4.83301 120 14.5s68.334 22.834 95.001 39.501s47.5 36.5 62.5 59.5s22.5 48.167 22.5 75.5c0 24.667 -3.33301 47.834 -10 69.501s-18.167 40.5 -34.5 56.5s-38.666 28.5 -66.999 37.5s-64.166 13.5 -107.499 13.5h-250z
M410.993 1313h164v-164h-164v164z" />
    <glyph glyph-name="Gcommaaccent" unicode="&#x122;" horiz-adv-x="1219" 
d="M640 664l425.001 -0.00390625v-596c-56 -27.333 -114 -48.833 -174 -64.5s-125.333 -23.5 -196 -23.5c-88 0 -167.333 18.667 -238 56s-130.834 88 -180.501 152s-88 138.333 -115 223s-40.5 174.334 -40.5 269.001c0 111.333 14.333 210.5 43 297.5
s69.667 160.333 123 220s117.833 105 193.5 136s160.834 46.5 255.501 46.5c61.333 0 113.666 -6.66699 156.999 -20s77.333 -26 102 -38l-31 -106c-28 12 -60.667 24 -98 36s-80 18 -128 18c-72.667 0 -138.667 -11.667 -198 -35s-110.166 -59.166 -152.499 -107.499
s-75 -109.666 -98 -183.999s-34.5 -162.166 -34.5 -263.499c0 -76 10.5 -149.5 31.5 -220.5s50.667 -133.833 89 -188.5s84.666 -98.5 138.999 -131.5s114.5 -49.5 180.5 -49.5c42 0 83.667 2.83301 125 8.5s79 16.167 113 31.5v424h-293v110zM602.001 -102.004h145
l-125 -398l-98 20z" />
    <glyph glyph-name="gcommaaccent" unicode="&#x123;" horiz-adv-x="1050" 
d="M147 660c0 59.333 8.83105 111.502 26.498 156.502s42.5 82.5 74.5 112.5s70.833 52.667 116.5 68s96.5 23 152.5 23c50.667 0 98 -6.66699 142 -20h320l-17 -110h-138c22 -29.333 39 -63 51 -101s18 -81 18 -129c0 -56 -9.16699 -106.333 -27.5 -151
s-44.166 -82.5 -77.499 -113.5s-73 -54.667 -119 -71s-96.667 -24.5 -152 -24.5c-57.333 0 -109.333 8.66699 -156 26c-13.333 -16 -23.666 -33.833 -30.999 -53.5s-11 -42.167 -11 -67.5c0 -6 0.833008 -13.5 2.5 -22.5s4 -18 7 -27s6.5 -17.667 10.5 -26
s8.33301 -14.833 13 -19.5h273c50.667 0 96 -6.33301 136 -19s73.667 -31 101 -55s48.166 -53 62.499 -87s21.5 -72.333 21.5 -115c-1.33301 -45.333 -12.5 -86.833 -33.5 -124.5s-50.5 -70.334 -88.5 -98.001s-83.667 -49.167 -137 -64.5s-112.666 -23 -177.999 -23
c-48.667 0 -97.5 4 -146.5 12s-93.333 22.333 -133 43s-72 48.834 -97 84.501s-37.5 81.167 -37.5 136.5c0 53.333 11.333 99.666 34 138.999s61 74 115 104c-12.667 17.333 -24.5 38 -35.5 62s-16.5 52 -16.5 84c0 42 7.66699 77.167 23 105.5s36 53.833 62 76.5
c-42 31.333 -74.167 71.166 -96.5 119.499s-33.5 104.833 -33.5 169.5zM279.998 660.002c0 -37.333 4.83105 -71.333 14.498 -102s24.334 -57 44.001 -79s44.334 -39 74.001 -51s64.5 -18 104.5 -18c38.667 0 73 6 103 18s55.333 29 76 51s36.5 48.333 47.5 79
s16.5 64.667 16.5 102c0 42 -6.33301 78.667 -19 110s-30 57.333 -52 78s-47.833 36.167 -77.5 46.5s-61.167 15.5 -94.5 15.5c-34 0 -65.5 -5.16699 -94.5 -15.5s-54 -25.833 -75 -46.5s-37.5 -46.667 -49.5 -78s-18 -68 -18 -110zM343.996 0.00195312
c-18.667 -14.667 -35.1699 -28.8359 -49.5029 -42.5029s-26.333 -28.167 -36 -43.5s-17 -32.166 -22 -50.499s-7.5 -38.833 -7.5 -61.5c0 -21.333 4.83301 -40.5 14.5 -57.5s22.5 -31.667 38.5 -44s34 -22.833 54 -31.5s40.667 -15.5 62 -20.5s42 -8.66699 62 -11
s37.667 -3.5 53 -3.5c43.333 0 83.333 4.83301 120 14.5s68.334 22.834 95.001 39.501s47.5 36.5 62.5 59.5s22.5 48.167 22.5 75.5c0 24.667 -3.33301 47.834 -10 69.501s-18.167 40.5 -34.5 56.5s-38.666 28.5 -66.999 37.5s-64.166 13.5 -107.499 13.5h-250z
M596.993 1148h-178l156 456l103 -20z" />
    <glyph glyph-name="Hcircumflex" unicode="&#x124;" horiz-adv-x="1236" 
d="M184 1360h134v-626h614v626h133v-1360h-133v624h-614v-624h-134v1360zM477 1460h-167l260 232h94l258 -232h-166l-139 117z" />
    <glyph glyph-name="hcircumflex" unicode="&#x125;" 
d="M180 1400l132.999 -0.000976562v-509c86 86 185.333 129 298 129c96.667 0 167.667 -29 213 -87s68 -148.333 68 -271v-662h-133v662c0 46.667 -3.66699 85.834 -11 117.501s-18.333 57.167 -33 76.5s-33.167 33.166 -55.5 41.499s-48.166 12.5 -77.499 12.5
c-52.667 0 -101.5 -11.167 -146.5 -33.5s-85.833 -51.166 -122.5 -86.499v-790h-133v1400zM123.999 1500h-167l260 232h94l258 -232h-166l-139 117z" />
    <glyph glyph-name="Hbar" unicode="&#x126;" horiz-adv-x="1265" 
d="M43 1126h141v234h134v-234h614v234h133v-234h168v-108h-168v-1018h-133v624h-614v-624h-134v1018h-141v108zM318 734h614v284h-614v-284z" />
    <glyph glyph-name="hbar" unicode="&#x127;" horiz-adv-x="1094" 
d="M-7 1256l186.999 -0.000976562v144h133v-144h341v-108h-341v-257c86 86 185.333 129 298 129c96.667 0 167.667 -29 213 -87s68 -148.333 68 -271v-662h-133v662c0 46.667 -3.66699 85.834 -11 117.501s-18.333 57.167 -33 76.5s-33.167 33.166 -55.5 41.499
s-48.166 12.5 -77.499 12.5c-52.667 0 -101.5 -11.167 -146.5 -33.5s-85.833 -51.166 -122.5 -86.499v-790h-133v1148h-187v108z" />
    <glyph glyph-name="Itilde" unicode="&#x128;" horiz-adv-x="742" 
d="M136 0v110h173v1140h-173v110h474v-110h-168v-1140h168v-110h-474zM499 1594c18.667 0 38.168 8.16797 58.501 24.501s35.5 40.166 45.5 71.499l85 -66c-8 -24 -18.5 -45.333 -31.5 -64s-27 -34.667 -42 -48s-30.667 -24 -47 -32s-31.833 -13.333 -46.5 -16
c-6 -1.33301 -12.167 -2.33301 -18.5 -3s-12.166 -1 -17.499 -1c-30.667 0 -58.334 7.66699 -83.001 23s-48.334 32.333 -71.001 51c-18 15.333 -34.667 26.5 -50 33.5s-28.666 10.5 -39.999 10.5c-9.33301 -0.666992 -18 -2.16699 -26 -4.5s-16 -6.83301 -24 -13.5
s-16.167 -16 -24.5 -28s-17.5 -27.333 -27.5 -46l-85 60c7.33301 23.333 17.5 44.333 30.5 63s27.167 34.667 42.5 48s31.166 24.333 47.499 33s32.166 14.667 47.499 18c10 2 19.667 3 29 3c31.333 0 59.833 -7.83301 85.5 -23.5s50.167 -32.834 73.5 -51.501
c16.667 -16 32.834 -26.667 48.501 -32s29.167 -8.66602 40.5 -9.99902z" />
    <glyph glyph-name="itilde" unicode="&#x129;" horiz-adv-x="344" 
d="M113 1000h133v-1000h-133v1000zM317 1261c18.667 0 38.168 8.16797 58.501 24.501s35.5 40.166 45.5 71.499l85 -66c-8 -24 -18.5 -45.333 -31.5 -64s-27 -34.667 -42 -48s-30.667 -24 -47 -32s-31.833 -13.333 -46.5 -16c-6 -1.33301 -12.167 -2.33301 -18.5 -3
s-12.166 -1 -17.499 -1c-30.667 0 -58.334 7.66699 -83.001 23s-48.334 32.333 -71.001 51c-18 15.333 -34.667 26.5 -50 33.5s-28.666 10.5 -39.999 10.5c-9.33301 -0.666992 -18 -2.16699 -26 -4.5s-16 -6.83301 -24 -13.5s-16.167 -16 -24.5 -28s-17.5 -27.333 -27.5 -46
l-85 60c7.33301 23.333 17.5 44.333 30.5 63s27.167 34.667 42.5 48s31.166 24.333 47.499 33s32.166 14.667 47.499 18c10 2 19.667 3 29 3c31.333 0 59.833 -7.83301 85.5 -23.5s50.167 -32.834 73.5 -51.501c16.667 -16 32.834 -26.667 48.501 -32
s29.167 -8.66602 40.5 -9.99902z" />
    <glyph glyph-name="Imacron" unicode="&#x12a;" horiz-adv-x="742" 
d="M136 0v110h173v1140h-173v110h474v-110h-168v-1140h168v-110h-474zM47 1616h661v-108h-661v108z" />
    <glyph glyph-name="imacron" unicode="&#x12b;" horiz-adv-x="344" 
d="M113 1000h133v-1000h-133v1000zM-135 1284h661v-108h-661v108z" />
    <glyph glyph-name="Iogonek" unicode="&#x12e;" horiz-adv-x="742" 
d="M136 0v110h173v1140h-173v110h474v-110h-168v-1140h168v-110h-474zM597 0c-24 -11.333 -46.5029 -22.8311 -67.5029 -34.498s-39.333 -25 -55 -40s-28 -32.333 -37 -52s-13.5 -42.834 -13.5 -69.501c0 -22 6.33301 -39.833 19 -53.5s26.667 -20.5 42 -20.5
c9.33301 0 16.833 0.333008 22.5 1s10.667 1.5 15 2.5s8.83301 2.33301 13.5 4s10.334 3.83398 17.001 6.50098l19 -90c-7.33301 -5.33301 -21.666 -10.333 -42.999 -15s-43 -7 -65 -7c-25.333 0 -48.166 4 -68.499 12s-37.666 19.5 -51.999 34.5s-25.333 32.667 -33 53
s-11.5 43.166 -11.5 68.499c0 32.667 6 62.334 18 89.001s27.667 50.167 47 70.5s41.166 37.666 65.499 51.999s48.5 25.166 72.5 32.499l95 -40v-4z" />
    <glyph glyph-name="iogonek" unicode="&#x12f;" horiz-adv-x="517" 
d="M196 1000h134v-1000h-134v1000zM180 1402h161v-158h-161v158zM329 0c-24 -11.333 -46.5029 -22.8311 -67.5029 -34.498s-39.333 -25 -55 -40s-28 -32.333 -37 -52s-13.5 -42.834 -13.5 -69.501c0 -22 6.33301 -39.833 19 -53.5s26.667 -20.5 42 -20.5
c9.33301 0 16.833 0.333008 22.5 1s10.667 1.5 15 2.5s8.83301 2.33301 13.5 4s10.334 3.83398 17.001 6.50098l19 -90c-7.33301 -5.33301 -21.666 -10.333 -42.999 -15s-43 -7 -65 -7c-25.333 0 -48.166 4 -68.499 12s-37.666 19.5 -51.999 34.5s-25.333 32.667 -33 53
s-11.5 43.166 -11.5 68.499c0 32.667 6 62.334 18 89.001s27.667 50.167 47 70.5s41.166 37.666 65.499 51.999s48.5 25.166 72.5 32.499l95 -40v-4z" />
    <glyph glyph-name="Idotaccent" unicode="&#x130;" horiz-adv-x="742" 
d="M136 0v110h173v1140h-173v110h474v-110h-168v-1140h168v-110h-474zM271 1634h164v-164h-164v164z" />
    <glyph glyph-name="dotlessi" unicode="&#x131;" horiz-adv-x="344" 
d="M113 1000h133v-1000h-133v1000z" />
    <glyph glyph-name="Jcircumflex" unicode="&#x134;" horiz-adv-x="850" 
d="M126 156c12.667 -8 27.666 -16.001 44.999 -24.001s35.5 -15 54.5 -21s37.833 -11 56.5 -15s35.334 -6 50.001 -6c36 0 67.333 5.33301 94 16s49 27.667 67 51s31.333 53.5 40 90.5s13 81.833 13 134.5v978h133v-972c0 -78.667 -8.16699 -144.167 -24.5 -196.5
s-39.333 -94.166 -69 -125.499s-65.5 -53.5 -107.5 -66.5s-88.333 -19.5 -139 -19.5c-54.667 0 -104.167 8 -148.5 24s-81.5 34 -111.5 54zM465.999 1422h-167l260 232h94l258 -232h-166l-139 117z" />
    <glyph glyph-name="jcircumflex" unicode="&#x135;" horiz-adv-x="466" 
d="M-120 -292c18 -5.33301 40.5039 -9.66504 67.5039 -12.998s51.833 -5 74.5 -5c24 0 45.167 4.33301 63.5 13s33.666 23 45.999 43s21.666 46.5 27.999 79.5s9.5 73.833 9.5 122.5v1052h132v-1052c0 -73.333 -6.33301 -133.833 -19 -181.5s-31 -85.334 -55 -113.001
s-53.333 -46.834 -88 -57.501s-74 -16 -118 -16c-26.667 0 -53.834 2 -81.501 6s-51.834 9.66699 -72.501 17zM120.004 1159h-167l260 232h94l258 -232h-166l-139 117z" />
    <glyph glyph-name="Kcommaaccent" unicode="&#x136;" horiz-adv-x="1119" 
d="M487 628h-171v-628h-133v1360h133v-622h172l366 622h160l-403 -674h-1l468 -686h-166zM459 -102h145l-125 -398l-98 20z" />
    <glyph glyph-name="kcommaaccent" unicode="&#x137;" horiz-adv-x="954" 
d="M412 468h-99v-468h-133v1400h133v-822h102l293 422h154l-336 -474h-1l396 -526h-163zM433 -102h145l-125 -398l-98 20z" />
    <glyph glyph-name="kgreenlandic" unicode="&#x138;" horiz-adv-x="987" 
d="M488 468h-175v-468h-133v1000h133v-422h179l292 422h154l-336 -474h-1l389 -526h-161z" />
    <glyph glyph-name="Lacute" unicode="&#x139;" horiz-adv-x="925" 
d="M184 1360h134v-1250h560v-110h-694v1360zM363 1786l151 -66l-235 -248l-103 40z" />
    <glyph glyph-name="lacute" unicode="&#x13a;" horiz-adv-x="518" 
d="M198 1400h134v-1400h-134v1400zM378 1846l151 -66l-235 -248l-103 40z" />
    <glyph glyph-name="Lcommaaccent" unicode="&#x13b;" horiz-adv-x="925" 
d="M184 1360h134v-1250h560v-110h-694v1360zM450 -102h145l-125 -398l-98 20z" />
    <glyph glyph-name="lcommaaccent" unicode="&#x13c;" horiz-adv-x="518" 
d="M198 1400h134v-1400h-134v1400zM196 -102h145l-125 -398l-98 20z" />
    <glyph glyph-name="Lcaron" unicode="&#x13d;" horiz-adv-x="925" 
d="M184 1360h134v-1250h560v-110h-694v1360zM510 1367h178l-153 -456l-105 20z" />
    <glyph glyph-name="lcaron" unicode="&#x13e;" horiz-adv-x="518" 
d="M198 1400h134v-1400h-134v1400zM525 1426h178l-153 -456l-105 20z" />
    <glyph glyph-name="Lslash" unicode="&#x141;" horiz-adv-x="1025" 
d="M233 587l-135 -67v118l135 67v655h134v-589l186 93v-118l-186 -93v-543h560v-110h-694v587z" />
    <glyph glyph-name="lslash" unicode="&#x142;" horiz-adv-x="660" 
d="M265 592l-163 -84v130l163 84v678h134v-608l161 84v-130l-161 -84v-662h-134v592z" />
    <glyph glyph-name="Nacute" unicode="&#x143;" horiz-adv-x="1278" 
d="M184 1360h134l656 -1123v1123h134v-1360h-134l-656 1111v-1111h-134v1360zM727 1786l151 -66l-235 -248l-103 40z" />
    <glyph glyph-name="nacute" unicode="&#x144;" 
d="M180 1000l119.999 -0.000976562l10 -112c86 88 186.333 132 301 132c96.667 0 167.667 -29 213 -87s68 -148.333 68 -271v-662h-133v662c0 46.667 -3.66699 85.834 -11 117.501s-18.333 57.167 -33 76.5s-33.167 33.166 -55.5 41.499s-48.166 12.5 -77.499 12.5
c-52.667 0 -101.5 -11.167 -146.5 -33.5s-85.833 -51.166 -122.5 -86.499v-790h-133v1000zM632.999 1466l151 -66l-235 -248l-103 40z" />
    <glyph glyph-name="Ncommaaccent" unicode="&#x145;" horiz-adv-x="1278" 
d="M184 1360h134l656 -1123v1123h134v-1360h-134l-656 1111v-1111h-134v1360zM555 -102h145l-125 -398l-98 20z" />
    <glyph glyph-name="ncommaaccent" unicode="&#x146;" 
d="M180 1000l119.999 -0.000976562l10 -112c86 88 186.333 132 301 132c96.667 0 167.667 -29 213 -87s68 -148.333 68 -271v-662h-133v662c0 46.667 -3.66699 85.834 -11 117.501s-18.333 57.167 -33 76.5s-33.167 33.166 -55.5 41.499s-48.166 12.5 -77.499 12.5
c-52.667 0 -101.5 -11.167 -146.5 -33.5s-85.833 -51.166 -122.5 -86.499v-790h-133v1000zM450.999 -102.001h145l-125 -398l-98 20z" />
    <glyph glyph-name="Ncaron" unicode="&#x147;" horiz-adv-x="1278" 
d="M184 1360h134l656 -1123v1123h134v-1360h-134l-656 1111v-1111h-134v1360zM758 1704h166l-258 -232h-94l-260 232h167l140 -133z" />
    <glyph glyph-name="ncaron" unicode="&#x148;" 
d="M180 1000l119.999 -0.000976562l10 -112c86 88 186.333 132 301 132c96.667 0 167.667 -29 213 -87s68 -148.333 68 -271v-662h-133v662c0 46.667 -3.66699 85.834 -11 117.501s-18.333 57.167 -33 76.5s-33.167 33.166 -55.5 41.499s-48.166 12.5 -77.499 12.5
c-52.667 0 -101.5 -11.167 -146.5 -33.5s-85.833 -51.166 -122.5 -86.499v-790h-133v1000zM663.999 1384h166l-258 -232h-94l-260 232h167l140 -133z" />
    <glyph glyph-name="Eng" unicode="&#x14a;" horiz-adv-x="1298" 
d="M184 1360l133.999 -0.000976562l652 -1116v716h4v400h134v-1360h-5v-12c0 -78.667 -8.16699 -144.167 -24.5 -196.5s-39.333 -94.166 -69 -125.499s-65.5 -53.5 -107.5 -66.5s-88.333 -19.5 -139 -19.5c-54.667 0 -104.167 8 -148.5 24s-81.5 34 -111.5 54l47 98
c12.667 -8 27.667 -16 45 -24s35.5 -15 54.5 -21s37.833 -11 56.5 -15s35.334 -6 50.001 -6c36 0 67.333 5.33301 94 16s49 27.667 67 51s31.333 53.5 40 90.5s13 81.833 13 134.5v25l-652 1104v-1111h-134v1360z" />
    <glyph glyph-name="eng" unicode="&#x14b;" horiz-adv-x="1080" 
d="M180 1000l119.997 -0.00195312l10 -112c86 88 186.333 132 301 132c96.667 0 167.667 -29 213 -87s68 -148.333 68 -271v-222h1v-452c0 -78.667 -8.16699 -144.167 -24.5 -196.5s-39.333 -94.166 -69 -125.499s-65.5 -53.5 -107.5 -66.5s-88.333 -19.5 -139 -19.5
c-55.333 0 -105.166 8 -149.499 24s-82.166 34 -113.499 54l52 98c12 -8 26.833 -16 44.5 -24s36 -15 55 -21s37.833 -11 56.5 -15s35 -6 49 -6c36 0 67.333 5.33301 94 16s48.667 27.667 66 51s30.333 53.5 39 90.5s13 81.833 13 134.5v680
c0 46.667 -3.66699 85.834 -11 117.501s-18.333 57.167 -33 76.5s-33.167 33.166 -55.5 41.499s-48.166 12.5 -77.499 12.5c-52.667 0 -101.5 -11.167 -146.5 -33.5s-85.833 -51.166 -122.5 -86.499v-790h-133v1000z" />
    <glyph glyph-name="Omacron" unicode="&#x14c;" horiz-adv-x="1235" 
d="M115 680c0 107.333 12.167 204.166 36.5 290.499s58.333 159.833 102 220.5s96 107.334 157 140.001s128.167 49 201.5 49s141.166 -16.333 203.499 -49s116.333 -79.334 162 -140.001s81.334 -134.167 107.001 -220.5s38.5 -183.166 38.5 -290.499
c0 -108 -12.833 -205.167 -38.5 -291.5s-61.334 -159.833 -107.001 -220.5s-99.667 -107.167 -162 -139.5s-130.166 -48.5 -203.499 -48.5s-140.5 16.167 -201.5 48.5s-113.333 78.833 -157 139.5s-77.667 134.167 -102 220.5s-36.5 183.5 -36.5 291.5zM249 680
c0 -100 9 -187 27 -261s43.167 -135.333 75.5 -184s70.666 -85 114.999 -109s92.833 -36 145.5 -36c54 0 104 12 150 36s85.833 60.333 119.5 109s60.167 110 79.5 184s29 161 29 261s-9.66699 187 -29 261s-45.833 135.333 -79.5 184s-73.5 85 -119.5 109s-96 36 -150 36
c-52.667 0 -101.167 -12 -145.5 -36s-82.666 -60.333 -114.999 -109s-57.5 -110 -75.5 -184s-27 -161 -27 -261zM279 1634h661v-108h-661v108z" />
    <glyph glyph-name="omacron" unicode="&#x14d;" horiz-adv-x="1045" 
d="M123 500c0 80.667 9.33301 153 28 217s45.167 118.5 79.5 163.5s76.333 79.5 126 103.5s105.5 36 167.5 36c61.333 0 117.5 -12 168.5 -36s94.667 -58.5 131 -103.5s64.666 -99.5 84.999 -163.5s30.5 -136.333 30.5 -217c0 -81.333 -10.167 -154 -30.5 -218
s-48.666 -118.5 -84.999 -163.5s-80 -79.333 -131 -103s-107.167 -35.5 -168.5 -35.5c-62 0 -117.833 11.833 -167.5 35.5s-91.667 58 -126 103s-60.833 99.5 -79.5 163.5s-28 136.667 -28 218zM256 500c0 -70.667 6.33301 -131.667 19 -183s30.834 -93.833 54.501 -127.5
s52 -58.667 85 -75s69.5 -24.5 109.5 -24.5c40.667 0 78.334 8.16699 113.001 24.5s64.5 41.333 89.5 75s44.5 76.167 58.5 127.5s21 112.333 21 183s-7 131.834 -21 183.501s-33.5 94.334 -58.5 128.001s-54.833 58.5 -89.5 74.5s-72.334 24 -113.001 24
c-40 0 -76.5 -8 -109.5 -24s-61.333 -40.833 -85 -74.5s-41.834 -76.334 -54.501 -128.001s-19 -112.834 -19 -183.501zM191 1295h661v-108h-661v108z" />
    <glyph glyph-name="Ohungarumlaut" unicode="&#x150;" horiz-adv-x="1235" 
d="M115 680c0 107.333 12.167 204.166 36.5 290.499s58.333 159.833 102 220.5s96 107.334 157 140.001s128.167 49 201.5 49s141.166 -16.333 203.499 -49s116.333 -79.334 162 -140.001s81.334 -134.167 107.001 -220.5s38.5 -183.166 38.5 -290.499
c0 -108 -12.833 -205.167 -38.5 -291.5s-61.334 -159.833 -107.001 -220.5s-99.667 -107.167 -162 -139.5s-130.166 -48.5 -203.499 -48.5s-140.5 16.167 -201.5 48.5s-113.333 78.833 -157 139.5s-77.667 134.167 -102 220.5s-36.5 183.5 -36.5 291.5zM249 680
c0 -100 9 -187 27 -261s43.167 -135.333 75.5 -184s70.666 -85 114.999 -109s92.833 -36 145.5 -36c54 0 104 12 150 36s85.833 60.333 119.5 109s60.167 110 79.5 184s29 161 29 261s-9.66699 187 -29 261s-45.833 135.333 -79.5 184s-73.5 85 -119.5 109s-96 36 -150 36
c-52.667 0 -101.167 -12 -145.5 -36s-82.666 -60.333 -114.999 -109s-57.5 -110 -75.5 -184s-27 -161 -27 -261zM579 1818l171 -60l-269 -268l-110 40zM944 1818l187 -60l-327 -268l-123 40z" />
    <glyph glyph-name="ohungarumlaut" unicode="&#x151;" horiz-adv-x="1045" 
d="M123 500c0 80.667 9.33301 153 28 217s45.167 118.5 79.5 163.5s76.333 79.5 126 103.5s105.5 36 167.5 36c61.333 0 117.5 -12 168.5 -36s94.667 -58.5 131 -103.5s64.666 -99.5 84.999 -163.5s30.5 -136.333 30.5 -217c0 -81.333 -10.167 -154 -30.5 -218
s-48.666 -118.5 -84.999 -163.5s-80 -79.333 -131 -103s-107.167 -35.5 -168.5 -35.5c-62 0 -117.833 11.833 -167.5 35.5s-91.667 58 -126 103s-60.833 99.5 -79.5 163.5s-28 136.667 -28 218zM256 500c0 -70.667 6.33301 -131.667 19 -183s30.834 -93.833 54.501 -127.5
s52 -58.667 85 -75s69.5 -24.5 109.5 -24.5c40.667 0 78.334 8.16699 113.001 24.5s64.5 41.333 89.5 75s44.5 76.167 58.5 127.5s21 112.333 21 183s-7 131.834 -21 183.501s-33.5 94.334 -58.5 128.001s-54.833 58.5 -89.5 74.5s-72.334 24 -113.001 24
c-40 0 -76.5 -8 -109.5 -24s-61.333 -40.833 -85 -74.5s-41.834 -76.334 -54.501 -128.001s-19 -112.834 -19 -183.501zM491 1478l171 -60l-269 -268l-110 40zM856 1478l187 -60l-327 -268l-123 40z" />
    <glyph glyph-name="OE" unicode="&#x152;" horiz-adv-x="1533" 
d="M788 0c-5.33301 -0.666992 -11.832 -1.33105 -19.499 -1.99805s-16 -1.16699 -25 -1.5s-18.167 -0.5 -27.5 -0.5h-25c-92 0 -173.667 16 -245 48s-131.5 77.5 -180.5 136.5s-86.167 130.667 -111.5 215s-38 179.166 -38 284.499c0 104.667 13.333 199.167 40 283.5
s65.167 156.166 115.5 215.499s111.833 105 184.5 137s154.667 48 246 48c11.333 0 22.666 -0.166992 33.999 -0.5s22.333 -1.5 33 -3.5h663v-110h-536v-492h479v-110h-479v-538h536v-110h-644zM691.001 106.003c7.33301 0 17.8291 0.333008 31.4961 1s26.834 2 39.501 4
v1136c-9.33301 2 -19 3.66699 -29 5s-20.333 2 -31 2c-70 0 -133 -13.5 -189 -40.5s-103.5 -65.5 -142.5 -115.5s-69 -110.333 -90 -181s-31.5 -149.667 -31.5 -237s9.83301 -166.333 29.5 -237s48.334 -131 86.001 -181s83.834 -88.5 138.501 -115.5
s117.334 -40.5 188.001 -40.5z" />
    <glyph glyph-name="oe" unicode="&#x153;" horiz-adv-x="1647" 
d="M113 500c0 80.667 9.33008 153 27.9971 217s45.167 118.5 79.5 163.5s76.333 79.5 126 103.5s105.5 36 167.5 36c76.667 0 144.5 -18.167 203.5 -54.5s106.5 -88.166 142.5 -155.499c32.667 68.667 76.834 120.834 132.501 156.501s121.834 53.5 198.501 53.5
c50 0 96.333 -8.66699 139 -26s79.334 -42.833 110.001 -76.5s54.667 -75 72 -124s26 -104.833 26 -167.5v-110h-605v-24c0 -63.333 6 -120 18 -170s30 -92.167 54 -126.5s54.167 -60.5 90.5 -78.5s78.5 -27 126.5 -27c31.333 0 59.666 2.16699 84.999 6.5
s48.333 9.66602 69 15.999s39 13.166 55 20.499s30.333 14.333 43 21l37 -102c-35.333 -22 -77.666 -39.5 -126.999 -52.5s-102.333 -19.5 -159 -19.5c-87.333 0 -161.5 17.667 -222.5 53s-108.5 87 -142.5 155c-36 -66.667 -83.5 -118 -142.5 -154s-126.833 -54 -203.5 -54
c-62 0 -117.833 11.833 -167.5 35.5s-91.667 58 -126 103s-60.833 99.5 -79.5 163.5s-28 136.667 -28 218zM245.997 500c0 -70.667 6.33301 -131.667 19 -183s30.834 -93.833 54.501 -127.5s52 -58.667 85 -75s69.5 -24.5 109.5 -24.5c40.667 0 78.334 8.16699 113.001 24.5
s64.5 41.333 89.5 75s44.5 76.167 58.5 127.5s21 112.333 21 183s-7 131.834 -21 183.501s-33.5 94.334 -58.5 128.001s-54.833 58.5 -89.5 74.5s-72.334 24 -113.001 24c-40 0 -76.5 -8 -109.5 -24s-61.333 -40.833 -85 -74.5s-41.834 -76.334 -54.501 -128.001
s-19 -112.834 -19 -183.501zM1195 910c-34.667 0 -66.1689 -4.66797 -94.502 -14.001s-53.333 -25 -75 -47s-39.834 -51.167 -54.501 -87.5s-25 -81.5 -31 -135.5h464c0 50.667 -5.66699 93.834 -17 129.501s-26.666 65 -45.999 88s-41.666 39.833 -66.999 50.5
s-51.666 16 -78.999 16z" />
    <glyph glyph-name="Racute" unicode="&#x154;" horiz-adv-x="1092" 
d="M184 1360h368.001c64 0 120.667 -8.16699 170 -24.5s90.833 -40.166 124.5 -71.499s59.334 -69.833 77.001 -115.5s26.5 -97.834 26.5 -156.501c0 -36 -5.16699 -70.667 -15.5 -104s-24.333 -64.5 -42 -93.5s-38.334 -55.167 -62.001 -78.5s-48.834 -43.333 -75.501 -60
l250 -656h-138l-235 626h-314v-626h-134v1360zM318.001 1250l-0.000976562 -514h377c14 12.667 28.167 26.167 42.5 40.5s27.333 31 39 50s21.334 41.833 29.001 68.5s11.5 59 11.5 97c0 48 -6.66699 88.5 -20 121.5s-32.5 59.5 -57.5 79.5s-55.167 34.5 -90.5 43.5
s-75.333 13.5 -120 13.5h-211zM599 1786l151 -66l-235 -248l-103 40z" />
    <glyph glyph-name="racute" unicode="&#x155;" horiz-adv-x="671" 
d="M180 1000h119.998l9 -131c35.333 55.333 73.166 94.333 113.499 117s82.5 34 126.5 34c12 0 24.333 -0.333008 37 -1s25.334 -1.66699 38.001 -3l-15 -134c-15.333 3.33301 -30.666 5.5 -45.999 6.5s-32.666 1.5 -51.999 1.5c-37.333 0 -72.833 -12.667 -106.5 -38
s-64.167 -58.333 -91.5 -99v-753h-133v1000zM379.998 1466l151 -66l-235 -248l-103 40z" />
    <glyph glyph-name="Rcommaaccent" unicode="&#x156;" horiz-adv-x="1092" 
d="M184 1360h368.001c64 0 120.667 -8.16699 170 -24.5s90.833 -40.166 124.5 -71.499s59.334 -69.833 77.001 -115.5s26.5 -97.834 26.5 -156.501c0 -36 -5.16699 -70.667 -15.5 -104s-24.333 -64.5 -42 -93.5s-38.334 -55.167 -62.001 -78.5s-48.834 -43.333 -75.501 -60
l250 -656h-138l-235 626h-314v-626h-134v1360zM318.001 1250l-0.000976562 -514h377c14 12.667 28.167 26.167 42.5 40.5s27.333 31 39 50s21.334 41.833 29.001 68.5s11.5 59 11.5 97c0 48 -6.66699 88.5 -20 121.5s-32.5 59.5 -57.5 79.5s-55.167 34.5 -90.5 43.5
s-75.333 13.5 -120 13.5h-211zM459 -102h145l-125 -398l-98 20z" />
    <glyph glyph-name="rcommaaccent" unicode="&#x157;" horiz-adv-x="671" 
d="M180 1000h119.998l9 -131c35.333 55.333 73.166 94.333 113.499 117s82.5 34 126.5 34c12 0 24.333 -0.333008 37 -1s25.334 -1.66699 38.001 -3l-15 -134c-15.333 3.33301 -30.666 5.5 -45.999 6.5s-32.666 1.5 -51.999 1.5c-37.333 0 -72.833 -12.667 -106.5 -38
s-64.167 -58.333 -91.5 -99v-753h-133v1000zM174.998 -102h145l-125 -398l-98 20z" />
    <glyph glyph-name="Rcaron" unicode="&#x158;" horiz-adv-x="1092" 
d="M184 1360h368.001c64 0 120.667 -8.16699 170 -24.5s90.833 -40.166 124.5 -71.499s59.334 -69.833 77.001 -115.5s26.5 -97.834 26.5 -156.501c0 -36 -5.16699 -70.667 -15.5 -104s-24.333 -64.5 -42 -93.5s-38.334 -55.167 -62.001 -78.5s-48.834 -43.333 -75.501 -60
l250 -656h-138l-235 626h-314v-626h-134v1360zM318.001 1250l-0.000976562 -514h377c14 12.667 28.167 26.167 42.5 40.5s27.333 31 39 50s21.334 41.833 29.001 68.5s11.5 59 11.5 97c0 48 -6.66699 88.5 -20 121.5s-32.5 59.5 -57.5 79.5s-55.167 34.5 -90.5 43.5
s-75.333 13.5 -120 13.5h-211zM630 1704h166l-258 -232h-94l-260 232h167l140 -133z" />
    <glyph glyph-name="rcaron" unicode="&#x159;" horiz-adv-x="671" 
d="M180 1000h119.998l9 -131c35.333 55.333 73.166 94.333 113.499 117s82.5 34 126.5 34c12 0 24.333 -0.333008 37 -1s25.334 -1.66699 38.001 -3l-15 -134c-15.333 3.33301 -30.666 5.5 -45.999 6.5s-32.666 1.5 -51.999 1.5c-37.333 0 -72.833 -12.667 -106.5 -38
s-64.167 -58.333 -91.5 -99v-753h-133v1000zM411.998 1384h166l-258 -232h-94l-260 232h167l140 -133z" />
    <glyph glyph-name="Sacute" unicode="&#x15a;" horiz-adv-x="964" 
d="M865 348c0 -55.333 -9.33105 -105.665 -27.998 -150.998s-45.167 -84 -79.5 -116s-75.833 -56.833 -124.5 -74.5s-103 -26.5 -163 -26.5c-34.667 0 -69.5 1.83301 -104.5 5.5s-68.333 8.5 -100 14.5s-60.834 13.167 -87.501 21.5s-49 17.166 -67 26.499l32 108
c24 -9.33301 48 -18 72 -26s49.167 -15 75.5 -21s54.333 -10.667 84 -14s62.167 -5 97.5 -5c38.667 0 74 5.5 106 16.5s59.333 27.167 82 48.5s40.334 47.666 53.001 78.999s19 67.333 19 108c0 36.667 -7 69.667 -21 99s-33.833 55.666 -59.5 78.999s-56.5 44.333 -92.5 63
s-75.667 35.667 -119 51c-46 16 -89.167 35.333 -129.5 58s-75.333 49.5 -105 80.5s-53 66.167 -70 105.5s-25.5 83.333 -25.5 132c0 56 8.83301 106.833 26.5 152.5s43 84.5 76 116.5s73.167 56.833 120.5 74.5s100.666 26.5 159.999 26.5c36.667 0 71.5 -2.5 104.5 -7.5
s63.667 -11 92 -18s53.666 -14.5 75.999 -22.5s41.166 -15.333 56.499 -22l-34 -108l-63 25c-20.667 8 -42.5 15.167 -65.5 21.5s-48 11.5 -75 15.5s-57.5 6 -91.5 6c-83.333 0 -145.666 -22.667 -186.999 -68s-62 -106 -62 -182c0 -30.667 4.66699 -59.5 14 -86.5
s24 -52.5 44 -76.5s46.167 -46.167 78.5 -66.5s71.5 -39.166 117.5 -56.499c60 -22 112.833 -45.5 158.5 -70.5s84 -52.833 115 -83.5s54.333 -65 70 -103s23.5 -81 23.5 -129zM589.002 1802l151 -66l-235 -248l-103 40z" />
    <glyph glyph-name="sacute" unicode="&#x15b;" horiz-adv-x="858" 
d="M753 266c0 -39.333 -7.50293 -76.332 -22.5029 -110.999s-36.333 -65 -64 -91s-61.334 -46.5 -101.001 -61.5s-84.5 -22.5 -134.5 -22.5c-31.333 0 -62.166 1.83301 -92.499 5.5s-59.5 8.83398 -87.5 15.501s-54.167 14.5 -78.5 23.5s-45.5 18.833 -63.5 29.5l32 112
l66.5 -29.5c21 -9 42.667 -17 65 -24s46.833 -12.5 73.5 -16.5s57 -6 91 -6c30 0 56.333 4.16699 79 12.5s41.667 20 57 35s27 32.333 35 52s12 41.167 12 64.5c0 26.667 -4.5 50 -13.5 70s-22.333 37.833 -40 53.5s-39.834 29.667 -66.501 42s-58 24.5 -94 36.5
c-40.667 12.667 -78.167 28.667 -112.5 48s-64 41.166 -89 65.499s-44.667 51 -59 80s-21.5 59.167 -21.5 90.5c0 89.333 28 158.333 84 207s134.667 73 236 73c64 0 119.667 -6.83301 167 -20.5s85 -27.5 113 -41.5l-29 -108
c-19.333 7.33301 -37.666 14.666 -54.999 21.999s-35.666 13.833 -54.999 19.5s-40.666 10.167 -63.999 13.5s-50 5 -80 5c-62.667 0 -109 -13.833 -139 -41.5s-45 -65.167 -45 -112.5c0 -18 2.83301 -36.167 8.5 -54.5s15.5 -36 29.5 -53s32.833 -32.833 56.5 -47.5
s53.5 -27.667 89.5 -39c108.667 -33.333 187.834 -75.5 237.501 -126.5s74.5 -107.5 74.5 -169.5zM534.997 1466l151 -66l-235 -248l-103 40z" />
    <glyph glyph-name="Scircumflex" unicode="&#x15c;" horiz-adv-x="964" 
d="M865 348c0 -55.333 -9.33105 -105.665 -27.998 -150.998s-45.167 -84 -79.5 -116s-75.833 -56.833 -124.5 -74.5s-103 -26.5 -163 -26.5c-34.667 0 -69.5 1.83301 -104.5 5.5s-68.333 8.5 -100 14.5s-60.834 13.167 -87.501 21.5s-49 17.166 -67 26.499l32 108
c24 -9.33301 48 -18 72 -26s49.167 -15 75.5 -21s54.333 -10.667 84 -14s62.167 -5 97.5 -5c38.667 0 74 5.5 106 16.5s59.333 27.167 82 48.5s40.334 47.666 53.001 78.999s19 67.333 19 108c0 36.667 -7 69.667 -21 99s-33.833 55.666 -59.5 78.999s-56.5 44.333 -92.5 63
s-75.667 35.667 -119 51c-46 16 -89.167 35.333 -129.5 58s-75.333 49.5 -105 80.5s-53 66.167 -70 105.5s-25.5 83.333 -25.5 132c0 56 8.83301 106.833 26.5 152.5s43 84.5 76 116.5s73.167 56.833 120.5 74.5s100.666 26.5 159.999 26.5c36.667 0 71.5 -2.5 104.5 -7.5
s63.667 -11 92 -18s53.666 -14.5 75.999 -22.5s41.166 -15.333 56.499 -22l-34 -108l-63 25c-20.667 8 -42.5 15.167 -65.5 21.5s-48 11.5 -75 15.5s-57.5 6 -91.5 6c-83.333 0 -145.666 -22.667 -186.999 -68s-62 -106 -62 -182c0 -30.667 4.66699 -59.5 14 -86.5
s24 -52.5 44 -76.5s46.167 -46.167 78.5 -66.5s71.5 -39.166 117.5 -56.499c60 -22 112.833 -45.5 158.5 -70.5s84 -52.833 115 -83.5s54.333 -65 70 -103s23.5 -81 23.5 -129zM353.002 1486h-167l260 232h94l258 -232h-166l-139 117z" />
    <glyph glyph-name="scircumflex" unicode="&#x15d;" horiz-adv-x="858" 
d="M753 266c0 -39.333 -7.50293 -76.332 -22.5029 -110.999s-36.333 -65 -64 -91s-61.334 -46.5 -101.001 -61.5s-84.5 -22.5 -134.5 -22.5c-31.333 0 -62.166 1.83301 -92.499 5.5s-59.5 8.83398 -87.5 15.501s-54.167 14.5 -78.5 23.5s-45.5 18.833 -63.5 29.5l32 112
l66.5 -29.5c21 -9 42.667 -17 65 -24s46.833 -12.5 73.5 -16.5s57 -6 91 -6c30 0 56.333 4.16699 79 12.5s41.667 20 57 35s27 32.333 35 52s12 41.167 12 64.5c0 26.667 -4.5 50 -13.5 70s-22.333 37.833 -40 53.5s-39.834 29.667 -66.501 42s-58 24.5 -94 36.5
c-40.667 12.667 -78.167 28.667 -112.5 48s-64 41.166 -89 65.499s-44.667 51 -59 80s-21.5 59.167 -21.5 90.5c0 89.333 28 158.333 84 207s134.667 73 236 73c64 0 119.667 -6.83301 167 -20.5s85 -27.5 113 -41.5l-29 -108
c-19.333 7.33301 -37.666 14.666 -54.999 21.999s-35.666 13.833 -54.999 19.5s-40.666 10.167 -63.999 13.5s-50 5 -80 5c-62.667 0 -109 -13.833 -139 -41.5s-45 -65.167 -45 -112.5c0 -18 2.83301 -36.167 8.5 -54.5s15.5 -36 29.5 -53s32.833 -32.833 56.5 -47.5
s53.5 -27.667 89.5 -39c108.667 -33.333 187.834 -75.5 237.501 -126.5s74.5 -107.5 74.5 -169.5zM298.997 1150h-167l260 232h94l258 -232h-166l-139 117z" />
    <glyph glyph-name="Scedilla" unicode="&#x15e;" horiz-adv-x="964" 
d="M865 348c0 -55.333 -9.33105 -105.665 -27.998 -150.998s-45.167 -84 -79.5 -116s-75.833 -56.833 -124.5 -74.5s-103 -26.5 -163 -26.5c-34.667 0 -69.5 1.83301 -104.5 5.5s-68.333 8.5 -100 14.5s-60.834 13.167 -87.501 21.5s-49 17.166 -67 26.499l32 108
c24 -9.33301 48 -18 72 -26s49.167 -15 75.5 -21s54.333 -10.667 84 -14s62.167 -5 97.5 -5c38.667 0 74 5.5 106 16.5s59.333 27.167 82 48.5s40.334 47.666 53.001 78.999s19 67.333 19 108c0 36.667 -7 69.667 -21 99s-33.833 55.666 -59.5 78.999s-56.5 44.333 -92.5 63
s-75.667 35.667 -119 51c-46 16 -89.167 35.333 -129.5 58s-75.333 49.5 -105 80.5s-53 66.167 -70 105.5s-25.5 83.333 -25.5 132c0 56 8.83301 106.833 26.5 152.5s43 84.5 76 116.5s73.167 56.833 120.5 74.5s100.666 26.5 159.999 26.5c36.667 0 71.5 -2.5 104.5 -7.5
s63.667 -11 92 -18s53.666 -14.5 75.999 -22.5s41.166 -15.333 56.499 -22l-34 -108l-63 25c-20.667 8 -42.5 15.167 -65.5 21.5s-48 11.5 -75 15.5s-57.5 6 -91.5 6c-83.333 0 -145.666 -22.667 -186.999 -68s-62 -106 -62 -182c0 -30.667 4.66699 -59.5 14 -86.5
s24 -52.5 44 -76.5s46.167 -46.167 78.5 -66.5s71.5 -39.166 117.5 -56.499c60 -22 112.833 -45.5 158.5 -70.5s84 -52.833 115 -83.5s54.333 -65 70 -103s23.5 -81 23.5 -129zM558.002 12.001c19.333 -42.667 29 -85.666 29 -128.999c0 -33.333 -6 -65.333 -18 -96
s-30 -57.334 -54 -80.001s-54 -40.167 -90 -52.5s-78 -17.166 -126 -14.499l-22 86c34 0.666992 63 5.16699 87 13.5s43.5 19.5 58.5 33.5s26 30.333 33 49s10.5 38.667 10.5 60c0 22.667 -3.5 46.167 -10.5 70.5s-16.5 48.166 -28.5 71.499z" />
    <glyph glyph-name="scedilla" unicode="&#x15f;" horiz-adv-x="858" 
d="M753 266c0 -39.333 -7.50293 -76.332 -22.5029 -110.999s-36.333 -65 -64 -91s-61.334 -46.5 -101.001 -61.5s-84.5 -22.5 -134.5 -22.5c-31.333 0 -62.166 1.83301 -92.499 5.5s-59.5 8.83398 -87.5 15.501s-54.167 14.5 -78.5 23.5s-45.5 18.833 -63.5 29.5l32 112
l66.5 -29.5c21 -9 42.667 -17 65 -24s46.833 -12.5 73.5 -16.5s57 -6 91 -6c30 0 56.333 4.16699 79 12.5s41.667 20 57 35s27 32.333 35 52s12 41.167 12 64.5c0 26.667 -4.5 50 -13.5 70s-22.333 37.833 -40 53.5s-39.834 29.667 -66.501 42s-58 24.5 -94 36.5
c-40.667 12.667 -78.167 28.667 -112.5 48s-64 41.166 -89 65.499s-44.667 51 -59 80s-21.5 59.167 -21.5 90.5c0 89.333 28 158.333 84 207s134.667 73 236 73c64 0 119.667 -6.83301 167 -20.5s85 -27.5 113 -41.5l-29 -108
c-19.333 7.33301 -37.666 14.666 -54.999 21.999s-35.666 13.833 -54.999 19.5s-40.666 10.167 -63.999 13.5s-50 5 -80 5c-62.667 0 -109 -13.833 -139 -41.5s-45 -65.167 -45 -112.5c0 -18 2.83301 -36.167 8.5 -54.5s15.5 -36 29.5 -53s32.833 -32.833 56.5 -47.5
s53.5 -27.667 89.5 -39c108.667 -33.333 187.834 -75.5 237.501 -126.5s74.5 -107.5 74.5 -169.5zM517.997 12.001c19.333 -42.667 29 -85.666 29 -128.999c0 -33.333 -6 -65.333 -18 -96s-30 -57.334 -54 -80.001s-54 -40.167 -90 -52.5s-78 -17.166 -126 -14.499l-22 86
c34 0.666992 63 5.16699 87 13.5s43.5 19.5 58.5 33.5s26 30.333 33 49s10.5 38.667 10.5 60c0 22.667 -3.5 46.167 -10.5 70.5s-16.5 48.166 -28.5 71.499z" />
    <glyph glyph-name="Scaron" unicode="&#x160;" horiz-adv-x="964" 
d="M865 348c0 -55.333 -9.33105 -105.665 -27.998 -150.998s-45.167 -84 -79.5 -116s-75.833 -56.833 -124.5 -74.5s-103 -26.5 -163 -26.5c-34.667 0 -69.5 1.83301 -104.5 5.5s-68.333 8.5 -100 14.5s-60.834 13.167 -87.501 21.5s-49 17.166 -67 26.499l32 108
c24 -9.33301 48 -18 72 -26s49.167 -15 75.5 -21s54.333 -10.667 84 -14s62.167 -5 97.5 -5c38.667 0 74 5.5 106 16.5s59.333 27.167 82 48.5s40.334 47.666 53.001 78.999s19 67.333 19 108c0 36.667 -7 69.667 -21 99s-33.833 55.666 -59.5 78.999s-56.5 44.333 -92.5 63
s-75.667 35.667 -119 51c-46 16 -89.167 35.333 -129.5 58s-75.333 49.5 -105 80.5s-53 66.167 -70 105.5s-25.5 83.333 -25.5 132c0 56 8.83301 106.833 26.5 152.5s43 84.5 76 116.5s73.167 56.833 120.5 74.5s100.666 26.5 159.999 26.5c36.667 0 71.5 -2.5 104.5 -7.5
s63.667 -11 92 -18s53.666 -14.5 75.999 -22.5s41.166 -15.333 56.499 -22l-34 -108l-63 25c-20.667 8 -42.5 15.167 -65.5 21.5s-48 11.5 -75 15.5s-57.5 6 -91.5 6c-83.333 0 -145.666 -22.667 -186.999 -68s-62 -106 -62 -182c0 -30.667 4.66699 -59.5 14 -86.5
s24 -52.5 44 -76.5s46.167 -46.167 78.5 -66.5s71.5 -39.166 117.5 -56.499c60 -22 112.833 -45.5 158.5 -70.5s84 -52.833 115 -83.5s54.333 -65 70 -103s23.5 -81 23.5 -129zM620.002 1720h166l-258 -232h-94l-260 232h167l140 -133z" />
    <glyph glyph-name="scaron" unicode="&#x161;" horiz-adv-x="858" 
d="M753 266c0 -39.333 -7.50293 -76.332 -22.5029 -110.999s-36.333 -65 -64 -91s-61.334 -46.5 -101.001 -61.5s-84.5 -22.5 -134.5 -22.5c-31.333 0 -62.166 1.83301 -92.499 5.5s-59.5 8.83398 -87.5 15.501s-54.167 14.5 -78.5 23.5s-45.5 18.833 -63.5 29.5l32 112
l66.5 -29.5c21 -9 42.667 -17 65 -24s46.833 -12.5 73.5 -16.5s57 -6 91 -6c30 0 56.333 4.16699 79 12.5s41.667 20 57 35s27 32.333 35 52s12 41.167 12 64.5c0 26.667 -4.5 50 -13.5 70s-22.333 37.833 -40 53.5s-39.834 29.667 -66.501 42s-58 24.5 -94 36.5
c-40.667 12.667 -78.167 28.667 -112.5 48s-64 41.166 -89 65.499s-44.667 51 -59 80s-21.5 59.167 -21.5 90.5c0 89.333 28 158.333 84 207s134.667 73 236 73c64 0 119.667 -6.83301 167 -20.5s85 -27.5 113 -41.5l-29 -108
c-19.333 7.33301 -37.666 14.666 -54.999 21.999s-35.666 13.833 -54.999 19.5s-40.666 10.167 -63.999 13.5s-50 5 -80 5c-62.667 0 -109 -13.833 -139 -41.5s-45 -65.167 -45 -112.5c0 -18 2.83301 -36.167 8.5 -54.5s15.5 -36 29.5 -53s32.833 -32.833 56.5 -47.5
s53.5 -27.667 89.5 -39c108.667 -33.333 187.834 -75.5 237.501 -126.5s74.5 -107.5 74.5 -169.5zM565.997 1384h166l-258 -232h-94l-260 232h167l140 -133z" />
    <glyph glyph-name="Tcommaaccent" unicode="&#x162;" horiz-adv-x="1066" 
d="M605 1250v-1250h-133v1250h-391v110h908v-110h-384zM465 -102h145l-125 -398l-98 20z" />
    <glyph glyph-name="tcommaaccent" unicode="&#x163;" horiz-adv-x="714" 
d="M82 1000l134.998 0.000976562v260l133 20v-280h263v-110h-263v-604c0 -37.333 2.5 -68.5 7.5 -93.5s12.833 -45 23.5 -60s24.167 -25.833 40.5 -32.5s36.166 -10 59.499 -10c28.667 0 57.834 2.33301 87.501 7s53.834 9 72.501 13l7 -104
c-21.333 -7.33301 -47.833 -13.5 -79.5 -18.5s-62.5 -7.5 -92.5 -7.5c-41.333 0 -78.166 4.16699 -110.499 12.5s-59.5 23.666 -81.5 45.999s-38.667 53.333 -50 93s-17 91.167 -17 154.5v604h-158zM397.998 -101.999h145l-125 -398l-98 20z" />
    <glyph glyph-name="Tcaron" unicode="&#x164;" horiz-adv-x="1066" 
d="M605 1250v-1250h-133v1250h-391v110h908v-110h-384zM673 1704h166l-258 -232h-94l-260 232h167l140 -133z" />
    <glyph glyph-name="tcaron" unicode="&#x165;" horiz-adv-x="714" 
d="M82 1000l134.998 0.000976562v260l133 20v-280h263v-110h-263v-604c0 -37.333 2.5 -68.5 7.5 -93.5s12.833 -45 23.5 -60s24.167 -25.833 40.5 -32.5s36.166 -10 59.499 -10c28.667 0 57.834 2.33301 87.501 7s53.834 9 72.501 13l7 -104
c-21.333 -7.33301 -47.833 -13.5 -79.5 -18.5s-62.5 -7.5 -92.5 -7.5c-41.333 0 -78.166 4.16699 -110.499 12.5s-59.5 23.666 -81.5 45.999s-38.667 53.333 -50 93s-17 91.167 -17 154.5v604h-158zM646.998 1257h178l-153 -456l-105 20z" />
    <glyph glyph-name="Tbar" unicode="&#x166;" horiz-adv-x="1039" 
d="M605 1250v-248h389v-108h-389v-894h-133v894h-404v108h404v248h-391v110h908v-110h-384z" />
    <glyph glyph-name="tbar" unicode="&#x167;" horiz-adv-x="741" 
d="M82 1000l134.998 0.000976562v260l133 20v-280h263v-110h-263v-184h276v-108h-276v-312c0 -37.333 2.5 -68.5 7.5 -93.5s12.833 -45 23.5 -60s24.167 -25.833 40.5 -32.5s36.166 -10 59.499 -10c28.667 0 57.834 2.33301 87.501 7s53.834 9 72.501 13l7 -104
c-21.333 -7.33301 -47.833 -13.5 -79.5 -18.5s-62.5 -7.5 -92.5 -7.5c-41.333 0 -78.166 4.16699 -110.499 12.5s-59.5 23.666 -81.5 45.999s-38.667 53.333 -50 93s-17 91.167 -17 154.5v312h-153v108h153v184h-158z" />
    <glyph glyph-name="Utilde" unicode="&#x168;" horiz-adv-x="1254" 
d="M948 1360h133.999v-960c0 -67.333 -11 -127 -33 -179s-53 -95.833 -93 -131.5s-87.833 -62.834 -143.5 -81.501s-117.167 -28 -184.5 -28s-128.166 9.16699 -182.499 27.5s-101 45.333 -140 81s-69 79.334 -90 131.001s-31.5 111.167 -31.5 178.5v962h134v-962
c0 -49.333 7.5 -93 22.5 -131s36.167 -70.167 63.5 -96.5s60 -46.333 98 -60s80 -20.5 126 -20.5c46.667 0 89.5 6.83301 128.5 20.5s72.667 33.667 101 60s50.5 58.5 66.5 96.5s24 81.667 24 131v962zM737.999 1594c18.667 0 38.168 8.16797 58.501 24.501
s35.5 40.166 45.5 71.499l85 -66c-8 -24 -18.5 -45.333 -31.5 -64s-27 -34.667 -42 -48s-30.667 -24 -47 -32s-31.833 -13.333 -46.5 -16c-6 -1.33301 -12.167 -2.33301 -18.5 -3s-12.166 -1 -17.499 -1c-30.667 0 -58.334 7.66699 -83.001 23s-48.334 32.333 -71.001 51
c-18 15.333 -34.667 26.5 -50 33.5s-28.666 10.5 -39.999 10.5c-9.33301 -0.666992 -18 -2.16699 -26 -4.5s-16 -6.83301 -24 -13.5s-16.167 -16 -24.5 -28s-17.5 -27.333 -27.5 -46l-85 60c7.33301 23.333 17.5 44.333 30.5 63s27.167 34.667 42.5 48
s31.166 24.333 47.499 33s32.166 14.667 47.499 18c10 2 19.667 3 29 3c31.333 0 59.833 -7.83301 85.5 -23.5s50.167 -32.834 73.5 -51.501c16.667 -16 32.834 -26.667 48.501 -32s29.167 -8.66602 40.5 -9.99902z" />
    <glyph glyph-name="utilde" unicode="&#x169;" 
d="M892 0h-127l-4 114c-44 -42.667 -91.833 -75.667 -143.5 -99s-106.167 -35 -163.5 -35c-43.333 0 -82 5.5 -116 16.5s-62.667 30 -86 57s-41.166 63.5 -53.499 109.5s-18.5 104.333 -18.5 175v662h133v-662c0 -46 3.16699 -84.833 9.5 -116.5s16.333 -57.167 30 -76.5
s31.167 -33.333 52.5 -42s46.666 -13 75.999 -13c50.667 0 99.5 11.167 146.5 33.5s90.833 51.5 131.5 87.5v789h133v-1000zM649 1254c18.667 0 38.168 8.16797 58.501 24.501s35.5 40.166 45.5 71.499l85 -66c-8 -24 -18.5 -45.333 -31.5 -64s-27 -34.667 -42 -48
s-30.667 -24 -47 -32s-31.833 -13.333 -46.5 -16c-6 -1.33301 -12.167 -2.33301 -18.5 -3s-12.166 -1 -17.499 -1c-30.667 0 -58.334 7.66699 -83.001 23s-48.334 32.333 -71.001 51c-18 15.333 -34.667 26.5 -50 33.5s-28.666 10.5 -39.999 10.5
c-9.33301 -0.666992 -18 -2.16699 -26 -4.5s-16 -6.83301 -24 -13.5s-16.167 -16 -24.5 -28s-17.5 -27.333 -27.5 -46l-85 60c7.33301 23.333 17.5 44.333 30.5 63s27.167 34.667 42.5 48s31.166 24.333 47.499 33s32.166 14.667 47.499 18c10 2 19.667 3 29 3
c31.333 0 59.833 -7.83301 85.5 -23.5s50.167 -32.834 73.5 -51.501c16.667 -16 32.834 -26.667 48.501 -32s29.167 -8.66602 40.5 -9.99902z" />
    <glyph glyph-name="Umacron" unicode="&#x16a;" horiz-adv-x="1254" 
d="M948 1360h133.999v-960c0 -67.333 -11 -127 -33 -179s-53 -95.833 -93 -131.5s-87.833 -62.834 -143.5 -81.501s-117.167 -28 -184.5 -28s-128.166 9.16699 -182.499 27.5s-101 45.333 -140 81s-69 79.334 -90 131.001s-31.5 111.167 -31.5 178.5v962h134v-962
c0 -49.333 7.5 -93 22.5 -131s36.167 -70.167 63.5 -96.5s60 -46.333 98 -60s80 -20.5 126 -20.5c46.667 0 89.5 6.83301 128.5 20.5s72.667 33.667 101 60s50.5 58.5 66.5 96.5s24 81.667 24 131v962zM285.999 1616h661v-108h-661v108z" />
    <glyph glyph-name="umacron" unicode="&#x16b;" 
d="M892 0h-127l-4 114c-44 -42.667 -91.833 -75.667 -143.5 -99s-106.167 -35 -163.5 -35c-43.333 0 -82 5.5 -116 16.5s-62.667 30 -86 57s-41.166 63.5 -53.499 109.5s-18.5 104.333 -18.5 175v662h133v-662c0 -46 3.16699 -84.833 9.5 -116.5s16.333 -57.167 30 -76.5
s31.167 -33.333 52.5 -42s46.666 -13 75.999 -13c50.667 0 99.5 11.167 146.5 33.5s90.833 51.5 131.5 87.5v789h133v-1000zM197 1277h661v-108h-661v108z" />
    <glyph glyph-name="Ubreve" unicode="&#x16c;" horiz-adv-x="1254" 
d="M948 1360h133.999v-960c0 -67.333 -11 -127 -33 -179s-53 -95.833 -93 -131.5s-87.833 -62.834 -143.5 -81.501s-117.167 -28 -184.5 -28s-128.166 9.16699 -182.499 27.5s-101 45.333 -140 81s-69 79.334 -90 131.001s-31.5 111.167 -31.5 178.5v962h134v-962
c0 -49.333 7.5 -93 22.5 -131s36.167 -70.167 63.5 -96.5s60 -46.333 98 -60s80 -20.5 126 -20.5c46.667 0 89.5 6.83301 128.5 20.5s72.667 33.667 101 60s50.5 58.5 66.5 96.5s24 81.667 24 131v962zM613.999 1476c-44 -0.666992 -84.1699 3.83301 -120.503 13.5
s-67.666 24.334 -93.999 44.001s-46.833 44 -61.5 73s-22 62.833 -22 101.5h122c0 -41.333 14.667 -74.333 44 -99s73.333 -37 132 -37s102.834 12.333 132.501 37s44.5 57.667 44.5 99h119c0 -38.667 -7.33301 -72.5 -22 -101.5s-35 -53.333 -61 -73
s-57.167 -34.334 -93.5 -44.001s-76.166 -14.167 -119.499 -13.5z" />
    <glyph glyph-name="ubreve" unicode="&#x16d;" 
d="M892 0h-127l-4 114c-44 -42.667 -91.833 -75.667 -143.5 -99s-106.167 -35 -163.5 -35c-43.333 0 -82 5.5 -116 16.5s-62.667 30 -86 57s-41.166 63.5 -53.499 109.5s-18.5 104.333 -18.5 175v662h133v-662c0 -46 3.16699 -84.833 9.5 -116.5s16.333 -57.167 30 -76.5
s31.167 -33.333 52.5 -42s46.666 -13 75.999 -13c50.667 0 99.5 11.167 146.5 33.5s90.833 51.5 131.5 87.5v789h133v-1000zM525 1137c-44 -0.666992 -84.1699 3.83301 -120.503 13.5s-67.666 24.334 -93.999 44.001s-46.833 44 -61.5 73s-22 62.833 -22 101.5h122
c0 -41.333 14.667 -74.333 44 -99s73.333 -37 132 -37s102.834 12.333 132.501 37s44.5 57.667 44.5 99h119c0 -38.667 -7.33301 -72.5 -22 -101.5s-35 -53.333 -61 -73s-57.167 -34.334 -93.5 -44.001s-76.166 -14.167 -119.499 -13.5z" />
    <glyph glyph-name="Uring" unicode="&#x16e;" horiz-adv-x="1254" 
d="M948 1360h133.999v-960c0 -67.333 -11 -127 -33 -179s-53 -95.833 -93 -131.5s-87.833 -62.834 -143.5 -81.501s-117.167 -28 -184.5 -28s-128.166 9.16699 -182.499 27.5s-101 45.333 -140 81s-69 79.334 -90 131.001s-31.5 111.167 -31.5 178.5v962h134v-962
c0 -49.333 7.5 -93 22.5 -131s36.167 -70.167 63.5 -96.5s60 -46.333 98 -60s80 -20.5 126 -20.5c46.667 0 89.5 6.83301 128.5 20.5s72.667 33.667 101 60s50.5 58.5 66.5 96.5s24 81.667 24 131v962zM609.999 1858c25.333 0 49.166 -5.16699 71.499 -15.5
s42 -24.333 59 -42s30.5 -38.167 40.5 -61.5s15 -48.333 15 -75c0 -27.333 -5 -52.333 -15 -75s-23.5 -42.5 -40.5 -59.5s-36.667 -30.167 -59 -39.5s-46.166 -14 -71.499 -14s-49.333 4.66699 -72 14s-42.5 22.5 -59.5 39.5s-30.5 36.833 -40.5 59.5s-15 47.667 -15 75
c0 26.667 5 51.667 15 75s23.5 43.833 40.5 61.5s36.833 31.667 59.5 42s46.667 15.5 72 15.5zM609.999 1586c21.333 0 38.667 7.66797 52 23.001s20 33.666 20 54.999c0 22 -6.66699 41.5 -20 58.5s-30.666 25.5 -51.999 25.5c-9.33301 0 -18.5 -2.33301 -27.5 -7
s-17 -10.834 -24 -18.501s-12.667 -16.667 -17 -27s-6.5 -20.833 -6.5 -31.5c0 -21.333 7.66699 -39.666 23 -54.999s32.666 -23 51.999 -23z" />
    <glyph glyph-name="uring" unicode="&#x16f;" 
d="M892 0h-127l-4 114c-44 -42.667 -91.833 -75.667 -143.5 -99s-106.167 -35 -163.5 -35c-43.333 0 -82 5.5 -116 16.5s-62.667 30 -86 57s-41.166 63.5 -53.499 109.5s-18.5 104.333 -18.5 175v662h133v-662c0 -46 3.16699 -84.833 9.5 -116.5s16.333 -57.167 30 -76.5
s31.167 -33.333 52.5 -42s46.666 -13 75.999 -13c50.667 0 99.5 11.167 146.5 33.5s90.833 51.5 131.5 87.5v789h133v-1000zM521 1519c25.333 0 49.166 -5.16699 71.499 -15.5s42 -24.333 59 -42s30.5 -38.167 40.5 -61.5s15 -48.333 15 -75c0 -27.333 -5 -52.333 -15 -75
s-23.5 -42.5 -40.5 -59.5s-36.667 -30.167 -59 -39.5s-46.166 -14 -71.499 -14s-49.333 4.66699 -72 14s-42.5 22.5 -59.5 39.5s-30.5 36.833 -40.5 59.5s-15 47.667 -15 75c0 26.667 5 51.667 15 75s23.5 43.833 40.5 61.5s36.833 31.667 59.5 42s46.667 15.5 72 15.5z
M521 1247c21.333 0 38.667 7.66797 52 23.001s20 33.666 20 54.999c0 22 -6.66699 41.5 -20 58.5s-30.666 25.5 -51.999 25.5c-9.33301 0 -18.5 -2.33301 -27.5 -7s-17 -10.834 -24 -18.501s-12.667 -16.667 -17 -27s-6.5 -20.833 -6.5 -31.5
c0 -21.333 7.66699 -39.666 23 -54.999s32.666 -23 51.999 -23z" />
    <glyph glyph-name="Uhungarumlaut" unicode="&#x170;" horiz-adv-x="1254" 
d="M948 1360h133.999v-960c0 -67.333 -11 -127 -33 -179s-53 -95.833 -93 -131.5s-87.833 -62.834 -143.5 -81.501s-117.167 -28 -184.5 -28s-128.166 9.16699 -182.499 27.5s-101 45.333 -140 81s-69 79.334 -90 131.001s-31.5 111.167 -31.5 178.5v962h134v-962
c0 -49.333 7.5 -93 22.5 -131s36.167 -70.167 63.5 -96.5s60 -46.333 98 -60s80 -20.5 126 -20.5c46.667 0 89.5 6.83301 128.5 20.5s72.667 33.667 101 60s50.5 58.5 66.5 96.5s24 81.667 24 131v962zM585.999 1800l171 -60l-269 -268l-110 40zM950.999 1800l187 -60
l-327 -268l-123 40z" />
    <glyph glyph-name="uhungarumlaut" unicode="&#x171;" 
d="M892 0h-127l-4 114c-44 -42.667 -91.833 -75.667 -143.5 -99s-106.167 -35 -163.5 -35c-43.333 0 -82 5.5 -116 16.5s-62.667 30 -86 57s-41.166 63.5 -53.499 109.5s-18.5 104.333 -18.5 175v662h133v-662c0 -46 3.16699 -84.833 9.5 -116.5s16.333 -57.167 30 -76.5
s31.167 -33.333 52.5 -42s46.666 -13 75.999 -13c50.667 0 99.5 11.167 146.5 33.5s90.833 51.5 131.5 87.5v789h133v-1000zM497 1460l171 -60l-269 -268l-110 40zM862 1460l187 -60l-327 -268l-123 40z" />
    <glyph glyph-name="Uogonek" unicode="&#x172;" horiz-adv-x="1254" 
d="M948 1360h133.999v-960c0 -67.333 -11 -127 -33 -179s-53 -95.833 -93 -131.5s-87.833 -62.834 -143.5 -81.501s-117.167 -28 -184.5 -28s-128.166 9.16699 -182.499 27.5s-101 45.333 -140 81s-69 79.334 -90 131.001s-31.5 111.167 -31.5 178.5v962h134v-962
c0 -49.333 7.5 -93 22.5 -131s36.167 -70.167 63.5 -96.5s60 -46.333 98 -60s80 -20.5 126 -20.5c46.667 0 89.5 6.83301 128.5 20.5s72.667 33.667 101 60s50.5 58.5 66.5 96.5s24 81.667 24 131v962zM762.999 0c-24 -11.333 -46.5029 -22.8311 -67.5029 -34.498
s-39.333 -25 -55 -40s-28 -32.333 -37 -52s-13.5 -42.834 -13.5 -69.501c0 -22 6.33301 -39.833 19 -53.5s26.667 -20.5 42 -20.5c9.33301 0 16.833 0.333008 22.5 1s10.667 1.5 15 2.5s8.83301 2.33301 13.5 4s10.334 3.83398 17.001 6.50098l19 -90
c-7.33301 -5.33301 -21.666 -10.333 -42.999 -15s-43 -7 -65 -7c-25.333 0 -48.166 4 -68.499 12s-37.666 19.5 -51.999 34.5s-25.333 32.667 -33 53s-11.5 43.166 -11.5 68.499c0 32.667 6 62.334 18 89.001s27.667 50.167 47 70.5s41.166 37.666 65.499 51.999
s48.5 25.166 72.5 32.499l95 -40v-4z" />
    <glyph glyph-name="uogonek" unicode="&#x173;" 
d="M892 0h-127l-4 114c-44 -42.667 -91.833 -75.667 -143.5 -99s-106.167 -35 -163.5 -35c-43.333 0 -82 5.5 -116 16.5s-62.667 30 -86 57s-41.166 63.5 -53.499 109.5s-18.5 104.333 -18.5 175v662h133v-662c0 -46 3.16699 -84.833 9.5 -116.5s16.333 -57.167 30 -76.5
s31.167 -33.333 52.5 -42s46.666 -13 75.999 -13c50.667 0 99.5 11.167 146.5 33.5s90.833 51.5 131.5 87.5v789h133v-1000zM858 0c-24 -11.333 -46.5029 -22.8311 -67.5029 -34.498s-39.333 -25 -55 -40s-28 -32.333 -37 -52s-13.5 -42.834 -13.5 -69.501
c0 -22 6.33301 -39.833 19 -53.5s26.667 -20.5 42 -20.5c9.33301 0 16.833 0.333008 22.5 1s10.667 1.5 15 2.5s8.83301 2.33301 13.5 4s10.334 3.83398 17.001 6.50098l19 -90c-7.33301 -5.33301 -21.666 -10.333 -42.999 -15s-43 -7 -65 -7
c-25.333 0 -48.166 4 -68.499 12s-37.666 19.5 -51.999 34.5s-25.333 32.667 -33 53s-11.5 43.166 -11.5 68.499c0 32.667 6 62.334 18 89.001s27.667 50.167 47 70.5s41.166 37.666 65.499 51.999s48.5 25.166 72.5 32.499l95 -40v-4z" />
    <glyph glyph-name="Ydieresis" unicode="&#x178;" horiz-adv-x="1024" 
d="M513 648l294 712h143l-369 -870v-490h-133v486l-371 874h144zM235 1640h174v-170h-174v170zM649 1640h176v-170h-176v170z" />
    <glyph glyph-name="Zacute" unicode="&#x179;" horiz-adv-x="1118" 
d="M142 1360h818v-80l-676 -1170h741l-39 -110h-850v102l650 1148h-644v110zM650 1786l151 -66l-235 -248l-103 40z" />
    <glyph glyph-name="zacute" unicode="&#x17a;" horiz-adv-x="989" 
d="M170 1000h684v-102l-550 -788h587l-27 -110h-700l-1 116l529 774h-522v110zM640 1446l151 -66l-235 -248l-103 40z" />
    <glyph glyph-name="Zdotaccent" unicode="&#x17b;" horiz-adv-x="1118" 
d="M142 1360h818v-80l-676 -1170h741l-39 -110h-850v102l650 1148h-644v110zM439 1634h164v-164h-164v164z" />
    <glyph glyph-name="zdotaccent" unicode="&#x17c;" horiz-adv-x="989" 
d="M170 1000h684v-102l-550 -788h587l-27 -110h-700l-1 116l529 774h-522v110zM429 1295h164v-164h-164v164z" />
    <glyph glyph-name="Zcaron" unicode="&#x17d;" horiz-adv-x="1118" 
d="M142 1360h818v-80l-676 -1170h741l-39 -110h-850v102l650 1148h-644v110zM681 1704h166l-258 -232h-94l-260 232h167l140 -133z" />
    <glyph glyph-name="zcaron" unicode="&#x17e;" horiz-adv-x="989" 
d="M170 1000h684v-102l-550 -788h587l-27 -110h-700l-1 116l529 774h-522v110zM671 1365h166l-258 -232h-94l-260 232h167l140 -133z" />
    <glyph glyph-name="florin" unicode="&#x192;" horiz-adv-x="673" 
d="M100 1000l115.003 -0.00390625v74c0 70.667 6.33301 128.334 19 173.001s31.167 79.834 55.5 105.501s54 43.334 89 53.001s74.5 14.5 118.5 14.5c29.333 0 59.666 -3 90.999 -9s57.666 -13 78.999 -21l-4 -102c-8.66699 2.66699 -19 5.33398 -31 8.00098
s-24.833 5 -38.5 7s-27.5 3.66699 -41.5 5s-27.667 2 -41 2c-28.667 0 -53.334 -4.16699 -74.001 -12.5s-37.5 -21.833 -50.5 -40.5s-22.667 -43 -29 -73s-9.5 -66.667 -9.5 -110v-74h267v-110h-267v-1042c0 -50 -6 -92 -18 -126s-29 -61.333 -51 -82
s-48.667 -35.5 -80 -44.5s-66.333 -13.5 -105 -13.5c-28 0 -55.167 2.66699 -81.5 8s-50.5 12.666 -72.5 21.999l15 102c18 -5.33301 38.833 -10.333 62.5 -15s48.167 -7 73.5 -7c22 0 40.833 2.83301 56.5 8.5s28.5 14.667 38.5 27s17.333 28.333 22 48s7 43.834 7 72.501
v1042h-137z" />
    <glyph glyph-name="dotlessj" unicode="&#x237;" horiz-adv-x="466" 
d="M-120 -292c18 -5.33301 40.5039 -9.66504 67.5039 -12.998s51.833 -5 74.5 -5c24 0 45.167 4.33301 63.5 13s33.666 23 45.999 43s21.666 46.5 27.999 79.5s9.5 73.833 9.5 122.5v1052h132v-1052c0 -73.333 -6.33301 -133.833 -19 -181.5s-31 -85.334 -55 -113.001
s-53.333 -46.834 -88 -57.501s-74 -16 -118 -16c-26.667 0 -53.834 2 -81.501 6s-51.834 9.66699 -72.501 17z" />
    <glyph glyph-name="circumflex" unicode="&#x2c6;" horiz-adv-x="720" 
d="M247 1148h-167l260 232h94l258 -232h-166l-139 117z" />
    <glyph glyph-name="caron" unicode="&#x2c7;" horiz-adv-x="720" 
d="M526 1380h166l-258 -232h-94l-260 232h167l140 -133z" />
    <glyph glyph-name="breve" unicode="&#x2d8;" horiz-adv-x="708" 
d="M366 1148c-44 -0.666992 -84.1699 3.83301 -120.503 13.5s-67.666 24.334 -93.999 44.001s-46.833 44 -61.5 73s-22 62.833 -22 101.5h122c0 -41.333 14.667 -74.333 44 -99s73.333 -37 132 -37s102.834 12.333 132.501 37s44.5 57.667 44.5 99h119
c0 -38.667 -7.33301 -72.5 -22 -101.5s-35 -53.333 -61 -73s-57.167 -34.334 -93.5 -44.001s-76.166 -14.167 -119.499 -13.5z" />
    <glyph glyph-name="dotaccent" unicode="&#x2d9;" horiz-adv-x="366" 
d="M104 1390h164v-164h-164v164z" />
    <glyph glyph-name="ring" unicode="&#x2da;" horiz-adv-x="572" 
d="M288 1616c25.333 0 49.166 -5.16699 71.499 -15.5s42 -24.333 59 -42s30.5 -38.167 40.5 -61.5s15 -48.333 15 -75c0 -27.333 -5 -52.333 -15 -75s-23.5 -42.5 -40.5 -59.5s-36.667 -30.167 -59 -39.5s-46.166 -14 -71.499 -14s-49.333 4.66699 -72 14
s-42.5 22.5 -59.5 39.5s-30.5 36.833 -40.5 59.5s-15 47.667 -15 75c0 26.667 5 51.667 15 75s23.5 43.833 40.5 61.5s36.833 31.667 59.5 42s46.667 15.5 72 15.5zM288 1344c21.333 0 38.667 7.66797 52 23.001s20 33.666 20 54.999c0 22 -6.66699 41.5 -20 58.5
s-30.666 25.5 -51.999 25.5c-9.33301 0 -18.5 -2.33301 -27.5 -7s-17 -10.834 -24 -18.501s-12.667 -16.667 -17 -27s-6.5 -20.833 -6.5 -31.5c0 -21.333 7.66699 -39.666 23 -54.999s32.666 -23 51.999 -23z" />
    <glyph glyph-name="ogonek" unicode="&#x2db;" horiz-adv-x="448" 
d="M368 0c-24 -11.333 -46.5029 -22.8311 -67.5029 -34.498s-39.333 -25 -55 -40s-28 -32.333 -37 -52s-13.5 -42.834 -13.5 -69.501c0 -22 6.33301 -39.833 19 -53.5s26.667 -20.5 42 -20.5c9.33301 0 16.833 0.333008 22.5 1s10.667 1.5 15 2.5s8.83301 2.33301 13.5 4
s10.334 3.83398 17.001 6.50098l19 -90c-7.33301 -5.33301 -21.666 -10.333 -42.999 -15s-43 -7 -65 -7c-25.333 0 -48.166 4 -68.499 12s-37.666 19.5 -51.999 34.5s-25.333 32.667 -33 53s-11.5 43.166 -11.5 68.499c0 32.667 6 62.334 18 89.001s27.667 50.167 47 70.5
s41.166 37.666 65.499 51.999s48.5 25.166 72.5 32.499l95 -40v-4z" />
    <glyph glyph-name="tilde" unicode="&#x2dc;" horiz-adv-x="838" 
d="M549 1250c18.667 0 38.168 8.16797 58.501 24.501s35.5 40.166 45.5 71.499l85 -66c-8 -24 -18.5 -45.333 -31.5 -64s-27 -34.667 -42 -48s-30.667 -24 -47 -32s-31.833 -13.333 -46.5 -16c-6 -1.33301 -12.167 -2.33301 -18.5 -3s-12.166 -1 -17.499 -1
c-30.667 0 -58.334 7.66699 -83.001 23s-48.334 32.333 -71.001 51c-18 15.333 -34.667 26.5 -50 33.5s-28.666 10.5 -39.999 10.5c-9.33301 -0.666992 -18 -2.16699 -26 -4.5s-16 -6.83301 -24 -13.5s-16.167 -16 -24.5 -28s-17.5 -27.333 -27.5 -46l-85 60
c7.33301 23.333 17.5 44.333 30.5 63s27.167 34.667 42.5 48s31.166 24.333 47.499 33s32.166 14.667 47.499 18c10 2 19.667 3 29 3c31.333 0 59.833 -7.83301 85.5 -23.5s50.167 -32.834 73.5 -51.501c16.667 -16 32.834 -26.667 48.501 -32
s29.167 -8.66602 40.5 -9.99902z" />
    <glyph glyph-name="hungarumlaut" unicode="&#x2dd;" horiz-adv-x="992" 
d="M344 1440l171 -60l-269 -268l-110 40zM709 1440l187 -60l-327 -268l-123 40z" />
    <glyph glyph-name="pi" unicode="&#x3c0;" horiz-adv-x="1137" 
d="M868 890v-592.002c0 -64 14.333 -115.667 43 -155s71.667 -59 129 -59l-9 -110c-46 0 -87.333 6.33301 -124 19s-67.667 32.334 -93 59.001s-44.833 60.334 -58.5 101.001s-20.5 89 -20.5 145v592h-311v-890h-133v890h-219v110h1001v-110h-205z" />
    <glyph glyph-name="endash" unicode="&#x2013;" horiz-adv-x="1019" 
d="M80 610v110h859v-110h-859z" />
    <glyph glyph-name="emdash" unicode="&#x2014;" horiz-adv-x="1596" 
d="M95 610v110h1394v-110h-1394z" />
    <glyph glyph-name="quoteleft" unicode="&#x2018;" horiz-adv-x="411" 
d="M258 946h-178l156 456l103 -20z" />
    <glyph glyph-name="quoteright" unicode="&#x2019;" horiz-adv-x="411" 
d="M158 1402h178l-153 -456l-105 20z" />
    <glyph glyph-name="quotesinglbase" unicode="&#x201a;" horiz-adv-x="512" 
d="M179 158h147l-114 -404l-94 14z" />
    <glyph glyph-name="quotedblleft" unicode="&#x201c;" horiz-adv-x="660" 
d="M238.01 946.086h-177.989l152.99 455.972l104.994 -19.999zM497.01 946.086h-177.989l152.99 455.972l104.994 -19.999z" />
    <glyph glyph-name="quotedblright" unicode="&#x201d;" horiz-adv-x="660" 
d="M169 1402h178l-153 -456l-105 20zM424 1402h178l-153 -456l-105 20z" />
    <glyph glyph-name="quotedblbase" unicode="&#x201e;" horiz-adv-x="678" 
d="M179 158h147l-114 -404l-94 14zM423 158h147l-114 -404l-94 14z" />
    <glyph glyph-name="dagger" unicode="&#x2020;" horiz-adv-x="984" 
d="M556 890v-890h-133v890h-319v110h319v360h133v-360h330v-110h-330z" />
    <glyph glyph-name="daggerdbl" unicode="&#x2021;" horiz-adv-x="984" 
d="M556 4v-404h-133v404h-319v110h319v776h-319v110h319v360h133v-360h330v-110h-330v-776h330v-110h-330z" />
    <glyph glyph-name="bullet" unicode="&#x2022;" horiz-adv-x="602" 
d="M302 890c26 0 50.5 -5.33301 73.5 -16s43 -25.167 60 -43.5s30.5 -39.833 40.5 -64.5s15 -50.667 15 -78s-5 -53.166 -15 -77.499s-23.5 -45.5 -40.5 -63.5s-37 -32.333 -60 -43s-47.5 -16 -73.5 -16c-27.333 0 -52.333 5.33301 -75 16s-42.5 25 -59.5 43
s-30.167 39.167 -39.5 63.5s-14 50.166 -14 77.499s4.66699 53.333 14 78s22.5 46.167 39.5 64.5s36.833 32.833 59.5 43.5s47.667 16 75 16z" />
    <glyph glyph-name="ellipsis" unicode="&#x2026;" horiz-adv-x="1363" 
d="M153 132h151v-132h-151v132zM618 132h151v-132h-151v132zM1098 132h151v-132h-151v132z" />
    </font>
</defs>
</svg>
